{
.appVersion = "3151";
.formatVersion = 3;
classes = (
{
automatic = 1;
code = "A Aacute Abreve Acircumflex Adieresis Agrave Amacron Aogonek Aring Aringacute Atilde AE AEacute B C Cacute Ccaron Ccedilla Ccircumflex Cdotaccent D Eth Dcaron Dcroat E Eacute Ebreve Ecaron Ecircumflex Edieresis Edotaccent Egrave Emacron Eogonek F G Gbreve Gcircumflex Gcommaaccent Gdotaccent H Hbar Hcircumflex I IJ Iacute Ibreve Icircumflex Idieresis Idotaccent Igrave Imacron Iogonek Itilde J Jcircumflex K Kcommaaccent L Lacute Lcaron Lcommaaccent Ldot Lslash M N Nacute Ncaron Ncommaaccent Ntilde Eng O Oacute Obreve Ocircumflex Odieresis Ograve Ohungarumlaut Omacron Oslash Oslashacute Otilde OE P Thorn Q R Racute Rcaron Rcommaaccent S Sacute Scaron Scedilla Scircumflex Scommaaccent T Tbar Tcaron Tcedilla Tcommaaccent U Uacute Ubreve Ucircumflex Udieresis Ugrave Uhungarumlaut Umacron Uogonek Uring Utilde V W Wacute Wcircumflex Wdieresis Wgrave X Y Yacute Ycircumflex Ydieresis Ygrave Z Zacute Zcaron Zdotaccent L.alt Delta Omega";
name = Uppercase;
}
);
customParameters = (
{
name = fsType;
value = (
);
},
{
name = "Use Typo Metrics";
value = 1;
}
);
date = "2023-02-15 15:54:01 +0000";
familyName = "Diplomata SC";
featurePrefixes = (
{
automatic = 1;
code = "languagesystem DFLT dflt;

languagesystem latn dflt;
languagesystem latn AZE;
languagesystem latn CRT;
languagesystem latn KAZ;
languagesystem latn TAT;
languagesystem latn TRK;
languagesystem latn ROM;
languagesystem latn MOL;
languagesystem latn CAT;
";
name = Languagesystems;
}
);
features = (
{
automatic = 1;
code = "feature locl;
feature subs;
feature sinf;
feature sups;
feature frac;
feature ordn;
feature case;
feature salt;
";
tag = aalt;
},
{
automatic = 1;
code = "lookup ccmp_Other_1 {
	@CombiningTopAccents = [acutecomb brevecomb caroncomb circumflexcomb commaturnedabovecomb dieresiscomb dotaccentcomb gravecomb hungarumlautcomb macroncomb ringcomb tildecomb];
	@CombiningNonTopAccents = [cedillacomb ogonekcomb];

glyphs = (
{
glyphname = A;
kernLeft = A;
kernRight = A;
lastChange = "2023-02-16 10:29:22 +0000";
layers = (
{
anchors = (
{
name = bottom;
pos = (699,0);
},
{
name = ogonek;
pos = (1410,22);
},
{
name = top;
pos = (579,650);
}
);
background = {
shapes = (
{
closed = 1;
nodes = (
(806,650,l),
(234,650,l),
(234,607,l),
(313,607,ls),
(378,607,o),
(406,589,o),
(436,553,cs),
(461,522,l),
(204,195,ls),
(204,194,o),
(97,43,o),
(-14,43,c),
(-14,0,l),
(422,0,l),
(422,43,l),
(329,43,ls),
(286,43,o),
(254,68,o),
(254,112,cs),
(254,135,o),
(263,163,o),
(283,194,c),
(726,194,l),
(763,148,ls),
(783,123,o),
(792,103,o),
(792,86,cs),
(792,58,o),
(766,43,o),
(733,43,cs),
(659,43,l),
(659,0,l),
(1410,0,l),
(1410,43,l),
(1296,43,l,{
name = hr00;
})
);
},
{
closed = 1;
nodes = (
(500,474,l),
(688,242,l),
(321,242,l)
);
},
{
closed = 1;
nodes = (
(473,607,l),
(550,607,l),
(1005,43,l),
(928,43,l)
);
}
);
};
layerId = master01;
shapes = (
{
closed = 1;
nodes = (
(422,0,l),
(422,43,l),
(329,43,ls),
(286,43,o),
(254,68,o),
(254,112,cs),
(254,135,o),
(263,163,o),
(283,194,c),
(726,194,l),
(763,148,ls),
(783,123,o),
(792,103,o),
(792,86,cs),
(792,58,o),
(766,43,o),
(733,43,cs),
(659,43,l),
(659,0,l),
(1410,0,l),
(1410,43,l),
(1296,43,l,{
name = hr00;
}),
(806,650,l),
(234,650,l),
(234,607,l),
(313,607,ls),
(378,607,o),
(407,589,o),
(436,553,cs),
(461,522,l),
(204,195,ls),
(203,194,o),
(97,43,o),
(-14,43,c),
(-14,0,l)
);
},
{
closed = 1;
nodes = (
(500,474,l),
(688,242,l),
(321,242,l)
);
},
{
closed = 1;
nodes = (
(473,607,l),
(550,607,l),
(1005,43,l),
(928,43,l)
);
}
);
width = 1397;
}
);
unicode = 65;
},
{
glyphname = Aacute;
kernLeft = A;
kernRight = A;
lastChange = "2023-02-16 09:47:52 +0000";
layers = (
{
background = {
shapes = (
{
closed = 1;
nodes = (
(806,650,l),
(234,650,l),
(234,607,l),
(313,607,ls),
(378,607,o),
(406,589,o),
(436,553,cs),
(461,522,l),
(204,195,ls),
(204,194,o),
(97,43,o),
(-14,43,c),
(-14,0,l),
(422,0,l),
(422,43,l),
(329,43,ls),
(286,43,o),
(254,68,o),
(254,112,cs),
(254,135,o),
(263,163,o),
(283,194,c),
(726,194,l),
(763,148,ls),
(783,123,o),
(792,103,o),
(792,86,cs),
(792,58,o),
(766,43,o),
(733,43,cs),
(659,43,l),
(659,0,l),
(1410,0,l),
(1410,43,l),
(1296,43,l,{
name = hr00;
})
);
},
{
closed = 1;
nodes = (
(500,474,l),
(688,242,l),
(321,242,l)
);
},
{
closed = 1;
nodes = (
(473,607,l),
(550,607,l),
(1005,43,l),
(928,43,l)
);
},
{
closed = 1;
nodes = (
(829,763,o),
(853,862,o),
(853,862,c),
(562,862,l),
(512,792,o),
(459,752,o),
(303,752,c),
(303,716,l,{
name = hr01;
}),
(357,716,ls),
(444,716,o),
(627,716,o),
(705,734,c)
);
},
{
closed = 1;
nodes = (
(531,769,o),
(584,797,o),
(602,834,c),
(666,834,l),
(649,809,o),
(605,760,o),
(501,755,c),
(501,759,l)
);
}
);
};
layerId = master01;
shapes = (
{
ref = A;
},
{
pos = (254,0);
ref = acutecomb.case;
}
);
width = 1397;
}
);
unicode = 193;
},
{
glyphname = Abreve;
kernLeft = A;
kernRight = A;
lastChange = "2023-02-16 09:47:52 +0000";
layers = (
{
background = {
shapes = (
{
closed = 1;
nodes = (
(806,650,l),
(234,650,l),
(234,607,l),
(313,607,ls),
(378,607,o),
(406,589,o),
(436,553,cs),
(461,522,l),
(204,195,ls),
(204,194,o),
(97,43,o),
(-14,43,c),
(-14,0,l),
(422,0,l),
(422,43,l),
(329,43,ls),
(286,43,o),
(254,68,o),
(254,112,cs),
(254,135,o),
(263,163,o),
(283,194,c),
(726,194,l),
(763,148,ls),
(783,123,o),
(792,103,o),
(792,86,cs),
(792,58,o),
(766,43,o),
(733,43,cs),
(659,43,l),
(659,0,l),
(1410,0,l),
(1410,43,l),
(1296,43,l,{
name = hr00;
})
);
},
{
closed = 1;
nodes = (
(500,474,l),
(688,242,l),
(321,242,l)
);
},
{
closed = 1;
nodes = (
(473,607,l),
(550,607,l),
(1005,43,l),
(928,43,l)
);
},
{
closed = 1;
nodes = (
(518,818,o),
(465,846,o),
(424,879,c),
(403,873,l),
(403,768,o),
(492,683,o),
(599,683,cs),
(708,683,o),
(793,768,o),
(793,873,c),
(773,879,l),
(733,846,o),
(681,818,o),
(599,818,cs)
);
},
{
closed = 1;
nodes = (
(653,755,o),
(701,773,o),
(733,797,c),
(738,794,l),
(711,746,o),
(657,715,o),
(599,715,cs),
(542,715,o),
(488,746,o),
(461,794,c),
(466,797,l),
(498,773,o),
(548,755,o),
(599,755,cs,{
name = hr01;
})
);
}
);
};
layerId = master01;
shapes = (
{
ref = A;
},
{
pos = (334,0);
ref = brevecomb.case;
}
);
width = 1397;
}
);
unicode = 258;
},
{
glyphname = Acircumflex;
kernLeft = A;
kernRight = A;
lastChange = "2023-02-16 09:47:52 +0000";
layers = (
{
background = {
shapes = (
{
closed = 1;
nodes = (
(806,650,l),
(234,650,l),
(234,607,l),
(313,607,ls),
(378,607,o),
(406,589,o),
(436,553,cs),
(461,522,l),
(204,195,ls),
(204,194,o),
(97,43,o),
(-14,43,c),
(-14,0,l),
(422,0,l),
(422,43,l),
(329,43,ls),
(286,43,o),
(254,68,o),
(254,112,cs),
(254,135,o),
(263,163,o),
(283,194,c),
(726,194,l),
(763,148,ls),
(783,123,o),
(792,103,o),
(792,86,cs),
(792,58,o),
(766,43,o),
(733,43,cs),
(659,43,l),
(659,0,l),
(1410,0,l),
(1410,43,l),
(1296,43,l,{
name = hr00;
})
);
},
{
closed = 1;
nodes = (
(500,474,l),
(688,242,l),
(321,242,l)
);
},
{
closed = 1;
nodes = (
(473,607,l),
(550,607,l),
(1005,43,l),
(928,43,l)
);
},
{
closed = 1;
nodes = (
(228,716,l),
(525,716,l),
(629,828,l),
(732,716,l),
(819,716,l),
(686,862,l),
(362,862,l)
);
},
{
closed = 1;
nodes = (
(401,754,l),
(339,754,l),
(414,837,l),
(476,837,l,{
name = hr01;
})
);
}
);
};
layerId = master01;
shapes = (
{
ref = A;
},
{
pos = (233,0);
ref = circumflexcomb.case;
}
);
width = 1397;
}
);
unicode = 194;
},
{
glyphname = Adieresis;
kernLeft = A;
kernRight = A;
lastChange = "2023-02-16 09:47:52 +0000";
layers = (
{
background = {
shapes = (
{
closed = 1;
nodes = (
(806,650,l),
(234,650,l),
(234,607,l),
(313,607,ls),
(378,607,o),
(406,589,o),
(436,553,cs),
(461,522,l),
(204,195,ls),
(204,194,o),
(97,43,o),
(-14,43,c),
(-14,0,l),
(422,0,l),
(422,43,l),
(329,43,ls),
(286,43,o),
(254,68,o),
(254,112,cs),
(254,135,o),
(263,163,o),
(283,194,c),
(726,194,l),
(763,148,ls),
(783,123,o),
(792,103,o),
(792,86,cs),
(792,58,o),
(766,43,o),
(733,43,cs),
(659,43,l),
(659,0,l),
(1410,0,l),
(1410,43,l),
(1296,43,l,{
name = hr00;
})
);
},
{
closed = 1;
nodes = (
(500,474,l),
(688,242,l),
(321,242,l)
);
},
{
closed = 1;
nodes = (
(473,607,l),
(550,607,l),
(1005,43,l),
(928,43,l)
);
},
{
closed = 1;
nodes = (
(943,861,o),
(882,913,o),
(805,913,cs),
(730,913,o),
(669,861,o),
(669,798,cs),
(669,735,o),
(730,685,o),
(805,685,cs),
(882,685,o),
(943,735,o),
(943,798,c,{
name = hr00;
})
);
},
{
closed = 1;
nodes = (
(487,861,o),
(426,913,o),
(349,913,cs),
(274,913,o),
(213,861,o),
(213,798,cs),
(213,735,o),
(274,685,o),
(349,685,cs),
(426,685,o),
(487,735,o),
(487,798,c)
);
},
{
closed = 1;
nodes = (
(291,762,o),
(303,732,o),
(322,711,c),
(319,708,l),
(279,725,o),
(250,760,o),
(250,798,cs),
(250,836,o),
(279,871,o),
(319,888,c),
(322,885,l),
(303,864,o),
(291,834,o),
(291,798,c)
);
},
{
closed = 1;
nodes = (
(747,762,o),
(759,732,o),
(778,711,c),
(775,708,l),
(735,725,o),
(706,760,o),
(706,798,cs),
(706,836,o),
(735,871,o),
(775,888,c),
(778,885,l),
(759,864,o),
(747,834,o),
(747,798,cs)
);
}
);
};
layerId = master01;
shapes = (
{
ref = A;
},
{
pos = (137,0);
ref = dieresiscomb.case;
}
);
width = 1397;
}
);
unicode = 196;
},
{
glyphname = Agrave;
kernLeft = A;
kernRight = A;
lastChange = "2023-02-16 09:47:52 +0000";
layers = (
{
background = {
shapes = (
{
closed = 1;
nodes = (
(806,650,l),
(234,650,l),
(234,607,l),
(313,607,ls),
(378,607,o),
(406,589,o),
(436,553,cs),
(461,522,l),
(204,195,ls),
(204,194,o),
(97,43,o),
(-14,43,c),
(-14,0,l),
(422,0,l),
(422,43,l),
(329,43,ls),
(286,43,o),
(254,68,o),
(254,112,cs),
(254,135,o),
(263,163,o),
(283,194,c),
(726,194,l),
(763,148,ls),
(783,123,o),
(792,103,o),
(792,86,cs),
(792,58,o),
(766,43,o),
(733,43,cs),
(659,43,l),
(659,0,l),
(1410,0,l),
(1410,43,l),
(1296,43,l,{
name = hr00;
})
);
},
{
closed = 1;
nodes = (
(500,474,l),
(688,242,l),
(321,242,l)
);
},
{
closed = 1;
nodes = (
(473,607,l),
(550,607,l),
(1005,43,l),
(928,43,l)
);
},
{
closed = 1;
nodes = (
(529,716,o),
(712,716,o),
(799,716,cs),
(853,716,l),
(853,752,l,{
name = hr01;
}),
(697,752,o),
(644,792,o),
(594,862,c),
(303,862,l),
(303,862,o),
(327,763,o),
(451,734,cs)
);
},
{
closed = 1;
nodes = (
(437,760,o),
(393,809,o),
(376,834,c),
(440,834,l),
(458,797,o),
(511,769,o),
(541,759,c),
(541,755,l)
);
}
);
};
layerId = master01;
shapes = (
{
ref = A;
},
{
pos = (254,0);
ref = gravecomb.case;
}
);
width = 1397;
}
);
unicode = 192;
},
{
glyphname = Amacron;
kernLeft = A;
kernRight = A;
lastChange = "2023-02-16 09:47:52 +0000";
layers = (
{
background = {
shapes = (
{
closed = 1;
nodes = (
(806,650,l),
(234,650,l),
(234,607,l),
(313,607,ls),
(378,607,o),
(406,589,o),
(436,553,cs),
(461,522,l),
(204,195,ls),
(204,194,o),
(97,43,o),
(-14,43,c),
(-14,0,l),
(422,0,l),
(422,43,l),
(329,43,ls),
(286,43,o),
(254,68,o),
(254,112,cs),
(254,135,o),
(263,163,o),
(283,194,c),
(726,194,l),
(763,148,ls),
(783,123,o),
(792,103,o),
(792,86,cs),
(792,58,o),
(766,43,o),
(733,43,cs),
(659,43,l),
(659,0,l),
(1410,0,l),
(1410,43,l),
(1296,43,l,{
name = hr00;
})
);
},
{
closed = 1;
nodes = (
(500,474,l),
(688,242,l),
(321,242,l)
);
},
{
closed = 1;
nodes = (
(473,607,l),
(550,607,l),
(1005,43,l),
(928,43,l)
);
},
{
closed = 1;
nodes = (
(801,722,l),
(801,856,l),
(396,856,l),
(396,722,l,{
name = hr00;
})
);
},
{
closed = 1;
nodes = (
(457,742,l),
(457,836,l),
(511,836,l),
(511,742,l)
);
}
);
};
layerId = master01;
shapes = (
{
ref = A;
},
{
pos = (326,0);
ref = macroncomb.case;
}
);
width = 1397;
}
);
unicode = 256;
},
{
glyphname = Aogonek;
kernLeft = A;
kernRight = A;
lastChange = "2023-02-16 09:48:02 +0000";
layers = (
{
background = {
shapes = (
{
closed = 1;
nodes = (
(806,650,l),
(234,650,l),
(234,607,l),
(313,607,ls),
(378,607,o),
(406,589,o),
(436,553,cs),
(461,522,l),
(204,195,ls),
(204,194,o),
(97,43,o),
(-14,43,c),
(-14,0,l),
(422,0,l),
(422,43,l),
(329,43,ls),
(286,43,o),
(254,68,o),
(254,112,cs),
(254,135,o),
(263,163,o),
(283,194,c),
(726,194,l),
(763,148,ls),
(783,123,o),
(792,103,o),
(792,86,cs),
(792,58,o),
(766,43,o),
(733,43,cs),
(659,43,l),
(659,0,l),
(1410,0,l),
(1410,43,l),
(1296,43,l,{
name = hr00;
})
);
},
{
closed = 1;
nodes = (
(500,474,l),
(688,242,l),
(321,242,l)
);
},
{
closed = 1;
nodes = (
(473,607,l),
(550,607,l),
(1005,43,l),
(928,43,l)
);
},
{
closed = 1;
nodes = (
(1371,-80,l),
(1350,-133,o),
(1285,-176,o),
(1232,-176,cs),
(1189,-176,o),
(1154,-155,o),
(1154,-106,cs),
(1154,-51,o),
(1197,-7,o),
(1285,6,c),
(1285,22,l),
(1115,11,o),
(944,-36,o),
(944,-134,cs),
(944,-213,o),
(1069,-224,o),
(1177,-224,cs),
(1272,-224,o),
(1359,-208,o),
(1410,-189,c),
(1410,-80,l,{
name = hr00;
})
);
},
{
closed = 1;
nodes = (
(1048,-62,o),
(1034,-88,o),
(1034,-119,cs),
(1034,-148,o),
(1060,-184,o),
(1088,-196,c),
(1086,-201,l),
(1021,-193,o),
(984,-161,o),
(984,-124,cs),
(984,-84,o),
(1024,-55,o),
(1076,-39,c),
(1079,-44,l)
);
}
);
};
layerId = master01;
shapes = (
{
ref = A;
},
{
pos = (894,0);
ref = ogonekcomb;
}
);
width = 1397;
}
);
unicode = 260;
},
{
glyphname = Aring;
kernLeft = A;
kernRight = A;
lastChange = "2023-02-16 09:47:52 +0000";
layers = (
{
background = {
shapes = (
{
closed = 1;
nodes = (
(806,650,l),
(234,650,l),
(234,607,l),
(313,607,ls),
(378,607,o),
(406,589,o),
(436,553,cs),
(461,522,l),
(204,195,ls),
(204,194,o),
(97,43,o),
(-14,43,c),
(-14,0,l),
(422,0,l),
(422,43,l),
(329,43,ls),
(286,43,o),
(254,68,o),
(254,112,cs),
(254,135,o),
(263,163,o),
(283,194,c),
(726,194,l),
(763,148,ls),
(783,123,o),
(792,103,o),
(792,86,cs),
(792,58,o),
(766,43,o),
(733,43,cs),
(659,43,l),
(659,0,l),
(1410,0,l),
(1410,43,l),
(1296,43,l,{
name = hr00;
})
);
},
{
closed = 1;
nodes = (
(500,474,l),
(688,242,l),
(321,242,l)
);
},
{
closed = 1;
nodes = (
(473,607,l),
(550,607,l),
(1005,43,l),
(928,43,l)
);
},
{
closed = 1;
nodes = (
(530,853,o),
(552,897,o),
(578,897,cs),
(604,897,o),
(626,853,o),
(626,798,cs),
(626,743,o),
(604,699,o),
(578,699,cs),
(552,699,o),
(530,743,o),
(530,798,cs,{
name = hr00;
})
);
},
{
closed = 1;
nodes = (
(737,870,o),
(666,930,o),
(578,930,cs),
(492,930,o),
(421,870,o),
(421,798,cs),
(421,725,o),
(492,668,o),
(578,668,cs),
(666,668,o),
(737,725,o),
(737,798,cs)
);
},
{
closed = 1;
nodes = (
(493,762,o),
(505,730,o),
(524,708,c),
(521,705,l),
(481,723,o),
(453,760,o),
(453,798,cs),
(453,836,o),
(481,873,o),
(521,891,c),
(524,888,l),
(505,866,o),
(493,833,o),
(493,798,c)
);
}
);
};
layerId = master01;
shapes = (
{
ref = A;
},
{
pos = (392,0);
ref = ringcomb.case;
}
);
width = 1397;
}
);
unicode = 197;
},
{
glyphname = Aringacute;
kernLeft = A;
kernRight = A;
lastChange = "2023-02-16 09:39:43 +0000";
layers = (
{
background = {
shapes = (
{
closed = 1;
nodes = (
(806,650,l),
(234,650,l),
(234,607,l),
(313,607,ls),
(378,607,o),
(406,589,o),
(436,553,cs),
(461,522,l),
(204,195,ls),
(204,194,o),
(97,43,o),
(-14,43,c),
(-14,0,l),
(422,0,l),
(422,43,l),
(329,43,ls),
(286,43,o),
(254,68,o),
(254,112,cs),
(254,135,o),
(263,163,o),
(283,194,c),
(726,194,l),
(763,148,ls),
(783,123,o),
(792,103,o),
(792,86,cs),
(792,58,o),
(766,43,o),
(733,43,cs),
(659,43,l),
(659,0,l),
(1410,0,l),
(1410,43,l),
(1296,43,l,{
name = hr00;
})
);
},
{
closed = 1;
nodes = (
(500,474,l),
(688,242,l),
(321,242,l)
);
},
{
closed = 1;
nodes = (
(473,607,l),
(550,607,l),
(1005,43,l),
(928,43,l)
);
},
{
closed = 1;
nodes = (
(538,837,o),
(560,877,o),
(586,877,cs),
(612,877,o),
(634,837,o),
(634,788,cs),
(634,739,o),
(612,699,o),
(586,699,cs),
(560,699,o),
(538,739,o),
(538,788,cs,{
name = hr00;
})
);
},
{
closed = 1;
nodes = (
(501,756,o),
(513,728,o),
(532,708,c),
(529,705,l),
(489,721,o),
(461,754,o),
(461,788,cs),
(461,823,o),
(489,857,o),
(529,874,c),
(532,871,l),
(513,850,o),
(501,820,o),
(501,788,cs)
);
},
{
closed = 1;
nodes = (
(607,910,o),
(660,938,o),
(678,975,c),
(742,975,l),
(725,950,o),
(682,901,o),
(580,896,c),
(577,900,l)
);
},
{
closed = 1;
nodes = (
(648,1003,l),
(604,888,o),
(429,915,o),
(429,788,cs),
(429,721,o),
(500,668,o),
(586,668,cs),
(674,668,o),
(745,721,o),
(745,788,cs),
(745,828,o),
(719,863,o),
(680,886,c),
(797,900,o),
(839,975,o),
(845,1003,c)
);
}
);
};
layerId = master01;
shapes = (
{
alignment = -1;
ref = A;
},
{
alignment = -1;
pos = (400,0);
ref = ringacute.case;
}
);
width = 1397;
}
);
unicode = 506;
},
{
glyphname = Atilde;
kernLeft = A;
kernRight = A;
lastChange = "2023-02-16 09:47:52 +0000";
layers = (
{
background = {
shapes = (
{
closed = 1;
nodes = (
(806,650,l),
(234,650,l),
(234,607,l),
(313,607,ls),
(378,607,o),
(406,589,o),
(436,553,cs),
(461,522,l),
(204,195,ls),
(204,194,o),
(97,43,o),
(-14,43,c),
(-14,0,l),
(422,0,l),
(422,43,l),
(329,43,ls),
(286,43,o),
(254,68,o),
(254,112,cs),
(254,135,o),
(263,163,o),
(283,194,c),
(726,194,l),
(763,148,ls),
(783,123,o),
(792,103,o),
(792,86,cs),
(792,58,o),
(766,43,o),
(733,43,cs),
(659,43,l),
(659,0,l),
(1410,0,l),
(1410,43,l),
(1296,43,l,{
name = hr00;
})
);
},
{
closed = 1;
nodes = (
(500,474,l),
(688,242,l),
(321,242,l)
);
},
{
closed = 1;
nodes = (
(473,607,l),
(550,607,l),
(1005,43,l),
(928,43,l)
);
},
{
closed = 1;
nodes = (
(793,757,o),
(739,739,o),
(693,739,cs),
(553,739,o),
(460,789,o),
(376,789,cs),
(362,789,o),
(348,787,o),
(334,784,c),
(331,788,l),
(349,804,o),
(374,818,o),
(411,818,cs),
(521,818,o),
(565,774,o),
(721,774,cs,{
name = hr01;
}),
(750,774,o),
(796,780,o),
(824,789,c,{
name = hr02;
}),
(826,785,l)
);
},
{
closed = 1;
nodes = (
(851,856,o),
(830,843,o),
(786,843,cs,{
name = hr03;
}),
(680,843,o),
(635,879,o),
(485,879,cs,{
name = hr04;
}),
(337,879,o),
(263,767,o),
(259,717,c),
(287,717,l),
(296,739,o),
(320,754,o),
(349,754,cs,{
name = hr05;
}),
(479,754,o),
(529,705,o),
(686,705,cs,{
name = hr06;
}),
(825,705,o),
(892,825,o),
(897,878,c),
(864,878,l)
);
}
);
};
layerId = master01;
shapes = (
{
ref = A;
},
{
pos = (210,0);
ref = tildecomb.case;
}
);
width = 1397;
}
);
unicode = 195;
},
{
glyphname = AE;
kernLeft = A;
lastChange = "2023-02-16 10:29:22 +0000";
layers = (
{
anchors = (
{
name = bottom;
pos = (917,0);
},
{
name = top;
pos = (1047,650);
}
);
background = {
shapes = (
{
closed = 1;
nodes = (
(1524,605,o),
(1659,507,o),
(1724,420,c),
(1753,420,l),
(1753,650,l),
(546,650,l),
(546,607,l),
(666,607,ls),
(747,607,o),
(775,566,o),
(775,507,cs),
(775,151,ls),
(775,71,o),
(727,43,o),
(666,43,cs),
(546,43,l),
(546,0,l),
(1753,0,l),
(1753,212,l),
(1724,212,l),
(1602,48,o),
(1420,43,o),
(1275,43,cs),
(1250,43,ls),
(1170,43,o),
(1164,99,o),
(1164,187,cs),
(1164,223,ls),
(1164,265,o),
(1184,312,o),
(1252,312,cs),
(1339,312,o),
(1462,270,o),
(1495,194,c),
(1532,194,l),
(1532,499,l),
(1495,499,l),
(1462,428,o),
(1339,372,o),
(1252,372,cs),
(1174,372,o),
(1164,433,o),
(1164,474,cs),
(1164,508,ls),
(1164,565,o),
(1207,605,o),
(1277,605,cs,{
name = hr00;
})
);
},
{
closed = 1;
nodes = (
(842,43,l),
(842,607,l),
(908,607,l),
(908,43,l)
);
},
{
closed = 1;
nodes = (
(786,312,l),
(786,372,l),
(371,372,l),
(371,312,l)
);
},
{
closed = 1;
nodes = (
(234,607,l),
(313,607,ls),
(378,607,o),
(406,589,o),
(436,553,cs),
(461,522,l),
(204,195,ls),
(204,194,o),
(97,43,o),
(-14,43,c),
(-14,0,l),
(422,0,l),
(422,43,l),
(329,43,ls),
(286,43,o),
(254,68,o),
(254,112,cs),
(254,135,o),
(260,165,o),
(283,194,cs),
(638,650,l),
(234,650,l)
);
}
);
};
layerId = master01;
shapes = (
{
closed = 1;
nodes = (
(1753,0,l),
(1753,212,l),
(1724,212,l),
(1602,48,o),
(1420,43,o),
(1275,43,cs),
(1250,43,ls),
(1170,43,o),
(1164,99,o),
(1164,187,cs),
(1164,223,ls),
(1164,265,o),
(1184,312,o),
(1252,312,cs),
(1339,312,o),
(1462,270,o),
(1495,194,c),
(1532,194,l),
(1532,499,l),
(1495,499,l),
(1462,428,o),
(1339,372,o),
(1252,372,cs),
(1174,372,o),
(1164,433,o),
(1164,474,cs),
(1164,508,ls),
(1164,565,o),
(1207,605,o),
(1277,605,cs,{
name = hr00;
}),
(1524,605,o),
(1659,507,o),
(1724,420,c),
(1753,420,l),
(1753,650,l),
(546,650,l),
(546,607,l),
(666,607,ls),
(747,607,o),
(775,566,o),
(775,507,cs),
(775,151,ls),
(775,71,o),
(727,43,o),
(666,43,cs),
(546,43,l),
(546,0,l)
);
},
{
closed = 1;
nodes = (
(422,0,l),
(422,43,l),
(329,43,ls),
(286,43,o),
(254,68,o),
(254,112,cs),
(254,135,o),
(260,165,o),
(283,194,cs),
(638,650,l),
(234,650,l),
(234,607,l),
(313,607,ls),
(378,607,o),
(407,589,o),
(436,553,cs),
(461,522,l),
(204,195,ls),
(203,194,o),
(97,43,o),
(-14,43,c),
(-14,0,l)
);
},
{
closed = 1;
nodes = (
(786,312,l),
(786,372,l),
(371,372,l),
(371,312,l)
);
},
{
closed = 1;
nodes = (
(842,607,l),
(908,607,l),
(908,43,l),
(842,43,l)
);
}
);
width = 1833;
}
);
unicode = 198;
},
{
glyphname = AEacute;
kernLeft = A;
lastChange = "2023-02-16 09:48:18 +0000";
layers = (
{
background = {
shapes = (
{
closed = 1;
nodes = (
(1524,605,o),
(1659,507,o),
(1724,420,c),
(1753,420,l),
(1753,650,l),
(546,650,l),
(546,607,l),
(666,607,ls),
(747,607,o),
(775,566,o),
(775,507,cs),
(775,151,ls),
(775,71,o),
(727,43,o),
(666,43,cs),
(546,43,l),
(546,0,l),
(1753,0,l),
(1753,212,l),
(1724,212,l),
(1602,48,o),
(1420,43,o),
(1275,43,cs),
(1250,43,ls),
(1170,43,o),
(1164,99,o),
(1164,187,cs),
(1164,223,ls),
(1164,265,o),
(1184,312,o),
(1252,312,cs),
(1339,312,o),
(1462,270,o),
(1495,194,c),
(1532,194,l),
(1532,499,l),
(1495,499,l),
(1462,428,o),
(1339,372,o),
(1252,372,cs),
(1174,372,o),
(1164,433,o),
(1164,474,cs),
(1164,508,ls),
(1164,565,o),
(1207,605,o),
(1277,605,cs,{
name = hr00;
})
);
},
{
closed = 1;
nodes = (
(842,43,l),
(842,607,l),
(908,607,l),
(908,43,l)
);
},
{
closed = 1;
nodes = (
(786,312,l),
(786,372,l),
(371,372,l),
(371,312,l)
);
},
{
closed = 1;
nodes = (
(234,607,l),
(313,607,ls),
(378,607,o),
(406,589,o),
(436,553,cs),
(461,522,l),
(204,195,ls),
(204,194,o),
(97,43,o),
(-14,43,c),
(-14,0,l),
(422,0,l),
(422,43,l),
(329,43,ls),
(286,43,o),
(254,68,o),
(254,112,cs),
(254,135,o),
(260,165,o),
(283,194,cs),
(638,650,l),
(234,650,l)
);
},
{
closed = 1;
nodes = (
(1297,763,o),
(1321,862,o),
(1321,862,c),
(1030,862,l),
(980,792,o),
(927,752,o),
(771,752,c),
(771,716,l),
(825,716,ls),
(912,716,o),
(1095,716,o),
(1173,734,c,{
name = hr00;
})
);
},
{
closed = 1;
nodes = (
(999,769,o),
(1052,797,o),
(1070,834,c),
(1134,834,l),
(1117,809,o),
(1073,760,o),
(969,755,c),
(969,759,l)
);
}
);
};
layerId = master01;
shapes = (
{
ref = AE;
},
{
pos = (722,0);
ref = acutecomb.case;
}
);
width = 1833;
}
);
unicode = 508;
},
{
glyphname = B;
lastChange = "2023-02-16 10:29:22 +0000";
layers = (
{
anchors = (
{
name = bottom;
pos = (741,0);
},
{
name = center;
pos = (741,325);
},
{
name = top;
pos = (741,650);
}
);
background = {
shapes = (
{
closed = 1;
nodes = (
(1362,634,o),
(1214,650,o),
(1035,650,cs),
(73,650,l),
(73,607,l),
(193,607,ls),
(253,607,o),
(301,556,o),
(301,497,cs),
(301,151,ls),
(301,72,o),
(253,43,o),
(193,43,cs),
(73,43,l),
(73,0,l),
(1114,0,ls),
(1230,0,o),
(1421,32,o),
(1421,175,cs,{
name = hr01;
}),
(1421,298,o),
(1273,337,o),
(1228,345,c),
(1228,350,l),
(1264,363,o),
(1362,407,o),
(1362,505,cs)
);
},
{
closed = 1;
nodes = (
(714,43,o),
(692,85,o),
(692,145,cs),
(692,324,l),
(856,324,ls),
(948,324,o),
(1018,283,o),
(1018,184,cs),
(1018,76,o),
(934,43,o),
(867,43,cs),
(776,43,ls)
);
},
{
closed = 1;
nodes = (
(692,567,o),
(736,606,o),
(810,606,cs),
(919,606,o),
(980,562,o),
(980,484,cs,{
name = hr03;
}),
(980,398,o),
(908,362,o),
(849,362,cs),
(692,362,l),
(692,508,ls)
);
},
{
closed = 1;
nodes = (
(369,43,l),
(369,607,l),
(434,607,l),
(434,43,l)
);
},
{
closed = 1;
nodes = (
(1047,400,o),
(1061,434,o),
(1061,478,cs),
(1061,523,o),
(1046,557,o),
(1021,588,c),
(1024,591,l),
(1086,573,o),
(1132,532,o),
(1132,478,cs),
(1132,424,o),
(1085,384,o),
(1024,364,c),
(1021,368,l)
);
},
{
closed = 1;
nodes = (
(1078,83,o),
(1102,127,o),
(1102,184,cs,{
name = hr04;
}),
(1102,243,o),
(1077,287,o),
(1040,319,c),
(1043,323,l),
(1118,299,o),
(1172,249,o),
(1172,184,cs),
(1172,121,o),
(1118,71,o),
(1043,47,c),
(1041,51,l)
);
}
);
};
layerId = master01;
shapes = (
{
closed = 1;
nodes = (
(1114,0,ls),
(1230,0,o),
(1421,32,o),
(1421,175,cs,{
name = hr01;
}),
(1421,298,o),
(1273,337,o),
(1228,345,c),
(1228,350,l),
(1264,363,o),
(1362,407,o),
(1362,505,cs),
(1362,634,o),
(1214,650,o),
(1035,650,cs),
(73,650,l),
(73,607,l),
(193,607,ls),
(253,607,o),
(301,556,o),
(301,497,cs),
(301,151,ls),
(301,72,o),
(253,43,o),
(193,43,cs),
(73,43,l),
(73,0,l)
);
},
{
closed = 1;
nodes = (
(369,607,l),
(434,607,l),
(434,43,l),
(369,43,l)
);
},
{
closed = 1;
nodes = (
(714,43,o),
(692,85,o),
(692,145,cs),
(692,324,l),
(856,324,ls),
(948,324,o),
(1018,283,o),
(1018,184,cs),
(1018,76,o),
(934,43,o),
(867,43,cs),
(776,43,ls)
);
},
{
closed = 1;
nodes = (
(1041,51,l),
(1078,83,o),
(1102,127,o),
(1102,184,cs,{
name = hr04;
}),
(1102,243,o),
(1077,287,o),
(1040,319,c),
(1043,323,l),
(1118,299,o),
(1172,249,o),
(1172,184,cs),
(1172,121,o),
(1118,71,o),
(1043,47,c)
);
},
{
closed = 1;
nodes = (
(692,508,ls),
(692,567,o),
(736,606,o),
(810,606,cs),
(919,606,o),
(980,562,o),
(980,484,cs,{
name = hr03;
}),
(980,398,o),
(908,362,o),
(849,362,cs),
(692,362,l)
);
},
{
closed = 1;
nodes = (
(1021,368,l),
(1047,400,o),
(1061,434,o),
(1061,478,cs),
(1061,523,o),
(1046,557,o),
(1021,588,c),
(1024,591,l),
(1086,573,o),
(1132,532,o),
(1132,478,cs),
(1132,424,o),
(1085,384,o),
(1024,364,c)
);
}
);
width = 1481;
}
);
unicode = 66;
},
{
glyphname = C;
kernLeft = O;
lastChange = "2023-02-16 10:29:22 +0000";
layers = (
{
anchors = (
{
name = bottom;
pos = (549,0);
},
{
name = top;
pos = (611,650);
}
);
background = {
shapes = (
{
closed = 1;
nodes = (
(1047,76,o),
(1084,103,o),
(1084,123,cs),
(1084,139,o),
(1069,143,o),
(1060,143,cs),
(1025,143,o),
(922,20,o),
(669,20,cs,{
name = hr01;
}),
(523,20,o),
(474,78,o),
(474,211,cs),
(474,211,o),
(474,430,o),
(474,485,cs),
(474,568,o),
(508,630,o),
(625,630,cs),
(782,630,o),
(937,509,o),
(989,411,c),
(1037,411,l),
(1037,650,l),
(989,650,l),
(989,600,l),
(887,637,o),
(764,674,o),
(630,674,cs,{
name = hr02;
}),
(351,674,o),
(22,580,o),
(22,328,cs),
(22,80,o),
(322,-22,o),
(666,-22,cs),
(817,-22,o),
(913,9,o),
(980,42,cs)
);
},
{
closed = 1;
nodes = (
(152,195,o),
(247,111,o),
(357,64,c),
(356,59,l),
(195,101,o),
(81,202,o),
(81,320,cs),
(81,449,o),
(195,560,o),
(356,605,c),
(357,600,l),
(247,549,o),
(152,457,o),
(152,320,c)
);
}
);
};
layerId = master01;
shapes = (
{
closed = 1;
nodes = (
(817,-22,o),
(913,9,o),
(980,42,cs),
(1047,76,o),
(1084,103,o),
(1084,123,cs),
(1084,139,o),
(1069,143,o),
(1060,143,cs),
(1025,143,o),
(922,20,o),
(669,20,cs,{
name = hr01;
}),
(523,20,o),
(474,78,o),
(474,211,cs),
(474,211,o),
(474,430,o),
(474,485,cs),
(474,568,o),
(508,630,o),
(625,630,cs),
(782,630,o),
(937,509,o),
(989,411,c),
(1037,411,l),
(1037,650,l),
(989,650,l),
(989,600,l),
(887,637,o),
(764,674,o),
(630,674,cs,{
name = hr02;
}),
(351,674,o),
(22,580,o),
(22,328,cs),
(22,80,o),
(322,-22,o),
(666,-22,cs)
);
},
{
closed = 1;
nodes = (
(195,101,o),
(81,202,o),
(81,320,cs),
(81,449,o),
(195,560,o),
(356,605,c),
(357,600,l),
(247,549,o),
(152,457,o),
(152,320,c),
(152,195,o),
(247,111,o),
(357,64,c),
(356,59,l)
);
}
);
width = 1097;
}
);
unicode = 67;
},
{
glyphname = Cacute;
kernLeft = O;
lastChange = "2023-02-16 09:48:23 +0000";
layers = (
{
background = {
shapes = (
{
closed = 1;
nodes = (
(1047,76,o),
(1084,103,o),
(1084,123,cs),
(1084,139,o),
(1069,143,o),
(1060,143,cs),
(1025,143,o),
(922,20,o),
(669,20,cs,{
name = hr01;
}),
(523,20,o),
(474,78,o),
(474,211,cs),
(474,211,o),
(474,430,o),
(474,485,cs),
(474,568,o),
(508,630,o),
(625,630,cs),
(782,630,o),
(937,509,o),
(989,411,c),
(1037,411,l),
(1037,650,l),
(989,650,l),
(989,600,l),
(887,637,o),
(764,674,o),
(630,674,cs,{
name = hr02;
}),
(351,674,o),
(22,580,o),
(22,328,cs),
(22,80,o),
(322,-22,o),
(666,-22,cs),
(817,-22,o),
(913,9,o),
(980,42,cs)
);
},
{
closed = 1;
nodes = (
(152,195,o),
(247,111,o),
(357,64,c),
(356,59,l),
(195,101,o),
(81,202,o),
(81,320,cs),
(81,449,o),
(195,560,o),
(356,605,c),
(357,600,l),
(247,549,o),
(152,457,o),
(152,320,c)
);
},
{
closed = 1;
nodes = (
(879,763,o),
(903,862,o),
(903,862,c),
(612,862,l),
(562,792,o),
(509,752,o),
(353,752,c),
(353,716,l),
(407,716,ls),
(494,716,o),
(677,716,o),
(755,734,c,{
name = hr00;
})
);
},
{
closed = 1;
nodes = (
(581,769,o),
(634,797,o),
(652,834,c),
(716,834,l),
(699,809,o),
(655,760,o),
(551,755,c),
(551,759,l)
);
}
);
};
layerId = master01;
shapes = (
{
ref = C;
},
{
pos = (286,0);
ref = acutecomb.case;
}
);
width = 1097;
}
);
unicode = 262;
},
{
glyphname = Ccaron;
kernLeft = O;
lastChange = "2023-02-16 09:48:23 +0000";
layers = (
{
background = {
shapes = (
{
closed = 1;
nodes = (
(1047,76,o),
(1084,103,o),
(1084,123,cs),
(1084,139,o),
(1069,143,o),
(1060,143,cs),
(1025,143,o),
(922,20,o),
(669,20,cs,{
name = hr01;
}),
(523,20,o),
(474,78,o),
(474,211,cs),
(474,211,o),
(474,430,o),
(474,485,cs),
(474,568,o),
(508,630,o),
(625,630,cs),
(782,630,o),
(937,509,o),
(989,411,c),
(1037,411,l),
(1037,650,l),
(989,650,l),
(989,600,l),
(887,637,o),
(764,674,o),
(630,674,cs,{
name = hr02;
}),
(351,674,o),
(22,580,o),
(22,328,cs),
(22,80,o),
(322,-22,o),
(666,-22,cs),
(817,-22,o),
(913,9,o),
(980,42,cs)
);
},
{
closed = 1;
nodes = (
(152,195,o),
(247,111,o),
(357,64,c),
(356,59,l),
(195,101,o),
(81,202,o),
(81,320,cs),
(81,449,o),
(195,560,o),
(356,605,c),
(357,600,l),
(247,549,o),
(152,457,o),
(152,320,c)
);
},
{
closed = 1;
nodes = (
(904,862,l),
(817,862,l),
(714,750,l),
(610,862,l),
(313,862,l),
(447,716,l),
(771,716,l,{
name = hr00;
})
);
},
{
closed = 1;
nodes = (
(424,824,l),
(486,824,l),
(561,741,l),
(499,741,l)
);
}
);
};
layerId = master01;
shapes = (
{
ref = C;
},
{
pos = (265,0);
ref = caroncomb.case;
}
);
width = 1097;
}
);
unicode = 268;
},
{
glyphname = Ccedilla;
kernLeft = O;
lastChange = "2023-02-16 09:44:17 +0000";
layers = (
{
background = {
shapes = (
{
closed = 1;
nodes = (
(1047,76,o),
(1084,103,o),
(1084,123,cs),
(1084,139,o),
(1069,143,o),
(1060,143,cs),
(1025,143,o),
(922,20,o),
(669,20,cs,{
name = hr01;
}),
(523,20,o),
(474,78,o),
(474,211,cs),
(474,211,o),
(474,430,o),
(474,485,cs),
(474,568,o),
(508,630,o),
(625,630,cs),
(782,630,o),
(937,509,o),
(989,411,c),
(1037,411,l),
(1037,650,l),
(989,650,l),
(989,600,l),
(887,637,o),
(764,674,o),
(630,674,cs,{
name = hr02;
}),
(351,674,o),
(22,580,o),
(22,328,cs),
(22,80,o),
(322,-22,o),
(666,-22,cs),
(817,-22,o),
(913,9,o),
(980,42,cs)
);
},
{
closed = 1;
nodes = (
(152,195,o),
(247,111,o),
(357,64,c),
(356,59,l),
(195,101,o),
(81,202,o),
(81,320,cs),
(81,449,o),
(195,560,o),
(356,605,c),
(357,600,l),
(247,549,o),
(152,457,o),
(152,320,c)
);
},
{
closed = 1;
nodes = (
(366,-207,o),
(453,-223,o),
(548,-223,cs),
(656,-223,o),
(781,-212,o),
(781,-133,cs),
(781,-35,o),
(610,16,o),
(440,16,c),
(440,0,l),
(528,-13,o),
(571,-50,o),
(571,-105,cs),
(571,-154,o),
(536,-175,o),
(493,-175,cs),
(440,-175,o),
(375,-132,o),
(354,-79,c),
(315,-79,l),
(315,-188,l)
);
},
{
closed = 1;
nodes = (
(641,-41,o),
(681,-65,o),
(681,-107,cs,{
name = hr01;
}),
(681,-146,o),
(629,-178,o),
(589,-188,c),
(586,-182,l),
(614,-169,o),
(631,-137,o),
(631,-107,cs),
(631,-74,o),
(616,-49,o),
(585,-30,c),
(589,-24,l)
);
}
);
};
layerId = master01;
shapes = (
{
ref = C;
},
{
pos = (266,0);
ref = cedillacomb;
}
);
width = 1097;
}
);
unicode = 199;
},
{
glyphname = Ccircumflex;
kernLeft = O;
lastChange = "2023-02-16 09:48:23 +0000";
layers = (
{
background = {
shapes = (
{
closed = 1;
nodes = (
(1047,76,o),
(1084,103,o),
(1084,123,cs),
(1084,139,o),
(1069,143,o),
(1060,143,cs),
(1025,143,o),
(922,20,o),
(669,20,cs,{
name = hr01;
}),
(523,20,o),
(474,78,o),
(474,211,cs),
(474,211,o),
(474,430,o),
(474,485,cs),
(474,568,o),
(508,630,o),
(625,630,cs),
(782,630,o),
(937,509,o),
(989,411,c),
(1037,411,l),
(1037,650,l),
(989,650,l),
(989,600,l),
(887,637,o),
(764,674,o),
(630,674,cs,{
name = hr02;
}),
(351,674,o),
(22,580,o),
(22,328,cs),
(22,80,o),
(322,-22,o),
(666,-22,cs),
(817,-22,o),
(913,9,o),
(980,42,cs)
);
},
{
closed = 1;
nodes = (
(152,195,o),
(247,111,o),
(357,64,c),
(356,59,l),
(195,101,o),
(81,202,o),
(81,320,cs),
(81,449,o),
(195,560,o),
(356,605,c),
(357,600,l),
(247,549,o),
(152,457,o),
(152,320,c)
);
},
{
closed = 1;
nodes = (
(333,716,l),
(630,716,l),
(734,828,l),
(837,716,l),
(924,716,l),
(791,862,l),
(467,862,l,{
name = hr00;
})
);
},
{
closed = 1;
nodes = (
(506,754,l),
(444,754,l),
(519,837,l),
(581,837,l)
);
}
);
};
layerId = master01;
shapes = (
{
ref = C;
},
{
pos = (265,0);
ref = circumflexcomb.case;
}
);
width = 1097;
}
);
unicode = 264;
},
{
glyphname = Cdotaccent;
kernLeft = O;
lastChange = "2023-02-16 09:48:23 +0000";
layers = (
{
background = {
shapes = (
{
closed = 1;
nodes = (
(1047,76,o),
(1084,103,o),
(1084,123,cs),
(1084,139,o),
(1069,143,o),
(1060,143,cs),
(1025,143,o),
(922,20,o),
(669,20,cs,{
name = hr01;
}),
(523,20,o),
(474,78,o),
(474,211,cs),
(474,211,o),
(474,430,o),
(474,485,cs),
(474,568,o),
(508,630,o),
(625,630,cs),
(782,630,o),
(937,509,o),
(989,411,c),
(1037,411,l),
(1037,650,l),
(989,650,l),
(989,600,l),
(887,637,o),
(764,674,o),
(630,674,cs,{
name = hr02;
}),
(351,674,o),
(22,580,o),
(22,328,cs),
(22,80,o),
(322,-22,o),
(666,-22,cs),
(817,-22,o),
(913,9,o),
(980,42,cs)
);
},
{
closed = 1;
nodes = (
(152,195,o),
(247,111,o),
(357,64,c),
(356,59,l),
(195,101,o),
(81,202,o),
(81,320,cs),
(81,449,o),
(195,560,o),
(356,605,c),
(357,600,l),
(247,549,o),
(152,457,o),
(152,320,c)
);
},
{
closed = 1;
nodes = (
(765,861,o),
(704,913,o),
(627,913,cs),
(552,913,o),
(491,861,o),
(491,798,cs),
(491,735,o),
(552,685,o),
(627,685,cs),
(704,685,o),
(765,735,o),
(765,798,c,{
name = hr00;
})
);
},
{
closed = 1;
nodes = (
(553,767,o),
(564,739,o),
(580,720,c),
(578,717,l),
(543,733,o),
(518,765,o),
(518,798,cs),
(518,831,o),
(543,863,o),
(578,879,c),
(580,876,l),
(564,857,o),
(553,829,o),
(553,798,c)
);
}
);
};
layerId = master01;
shapes = (
{
ref = C;
},
{
pos = (424,0);
ref = dotaccentcomb.case;
}
);
width = 1097;
}
);
unicode = 266;
},
{
glyphname = D;
lastChange = "2023-02-16 10:29:22 +0000";
layers = (
{
anchors = (
{
name = bottom;
pos = (735,0);
},
{
name = center;
pos = (735,325);
},
{
name = top;
pos = (735,650);
}
);
background = {
shapes = (
{
closed = 1;
nodes = (
(70,607,l),
(190,607,ls),
(250,607,o),
(299,557,o),
(299,498,cs),
(299,152,ls),
(299,72,o),
(250,43,o),
(190,43,cs),
(70,43,l),
(70,0,l),
(925,0,ls),
(1110,0,o),
(1446,58,o),
(1446,337,cs),
(1446,568,o),
(1139,650,o),
(833,650,cs),
(70,650,l,{
name = hr00;
})
);
},
{
closed = 1;
nodes = (
(366,43,l),
(366,607,l),
(431,607,l),
(431,43,l)
);
},
{
closed = 1;
nodes = (
(710,43,o),
(688,85,o),
(688,145,cs),
(688,508,ls),
(688,568,o),
(733,606,o),
(807,606,cs),
(979,606,o),
(1030,484,o),
(1030,324,cs),
(1030,184,o),
(987,43,o),
(863,43,cs),
(772,43,ls)
);
},
{
closed = 1;
nodes = (
(1200,189,o),
(1135,107,o),
(1034,50,c),
(1032,53,l),
(1088,129,o),
(1119,222,o),
(1119,324,cs),
(1119,426,o),
(1088,519,o),
(1032,595,c),
(1034,598,l),
(1135,541,o),
(1200,459,o),
(1200,324,cs)
);
}
);
};
layerId = master01;
shapes = (
{
closed = 1;
nodes = (
(925,0,ls),
(1110,0,o),
(1446,58,o),
(1446,337,cs),
(1446,568,o),
(1139,650,o),
(833,650,cs),
(70,650,l,{
name = hr00;
}),
(70,607,l),
(190,607,ls),
(250,607,o),
(299,557,o),
(299,498,cs),
(299,152,ls),
(299,72,o),
(250,43,o),
(190,43,cs),
(70,43,l),
(70,0,l)
);
},
{
closed = 1;
nodes = (
(366,607,l),
(431,607,l),
(431,43,l),
(366,43,l)
);
},
{
closed = 1;
nodes = (
(710,43,o),
(688,85,o),
(688,145,cs),
(688,508,ls),
(688,568,o),
(733,606,o),
(807,606,cs),
(979,606,o),
(1030,484,o),
(1030,324,cs),
(1030,184,o),
(987,43,o),
(863,43,cs),
(772,43,ls)
);
},
{
closed = 1;
nodes = (
(1032,53,l),
(1088,129,o),
(1119,222,o),
(1119,324,cs),
(1119,426,o),
(1088,519,o),
(1032,595,c),
(1034,598,l),
(1135,541,o),
(1200,459,o),
(1200,324,cs),
(1200,189,o),
(1135,107,o),
(1034,50,c)
);
}
);
width = 1469;
}
);
unicode = 68;
},
{
glyphname = Eth;
lastChange = "2023-02-16 10:29:22 +0000";
layers = (
{
background = {
shapes = (
{
closed = 1;
nodes = (
(510,365,l),
(510,285,l),
(876,285,l),
(876,365,l,{
name = hr00;
})
);
},
{
closed = 1;
nodes = (
(148,365,l),
(148,285,l),
(324,285,l),
(324,365,l)
);
},
{
closed = 1;
nodes = (
(70,607,l),
(190,607,ls),
(250,607,o),
(299,557,o),
(299,498,cs),
(299,152,ls),
(299,72,o),
(250,43,o),
(190,43,cs),
(70,43,l),
(70,0,l),
(925,0,ls),
(1110,0,o),
(1446,58,o),
(1446,337,cs),
(1446,568,o),
(1139,650,o),
(833,650,cs),
(70,650,l,{
name = hr00;
})
);
},
{
closed = 1;
nodes = (
(366,43,l),
(366,607,l),
(431,607,l),
(431,43,l)
);
},
{
closed = 1;
nodes = (
(710,43,o),
(688,85,o),
(688,145,cs),
(688,508,ls),
(688,568,o),
(733,606,o),
(807,606,cs),
(979,606,o),
(1030,484,o),
(1030,324,cs),
(1030,184,o),
(987,43,o),
(863,43,cs),
(772,43,ls)
);
},
{
closed = 1;
nodes = (
(1200,189,o),
(1135,107,o),
(1034,50,c),
(1032,53,l),
(1088,129,o),
(1119,222,o),
(1119,324,cs),
(1119,426,o),
(1088,519,o),
(1032,595,c),
(1034,598,l),
(1135,541,o),
(1200,459,o),
(1200,324,cs)
);
}
);
};
layerId = master01;
shapes = (
{
closed = 1;
nodes = (
(876,285,l),
(876,365,l,{
name = hr00;
}),
(510,365,l),
(510,285,l)
);
},
{
closed = 1;
nodes = (
(324,285,l),
(324,365,l),
(148,365,l),
(148,285,l)
);
},
{
ref = D;
}
);
width = 1469;
}
);
unicode = 208;
},
{
glyphname = Dcaron;
lastChange = "2023-02-16 09:44:17 +0000";
layers = (
{
background = {
shapes = (
{
closed = 1;
nodes = (
(70,607,l),
(190,607,ls),
(250,607,o),
(299,557,o),
(299,498,cs),
(299,152,ls),
(299,72,o),
(250,43,o),
(190,43,cs),
(70,43,l),
(70,0,l),
(925,0,ls),
(1110,0,o),
(1446,58,o),
(1446,337,cs),
(1446,568,o),
(1139,650,o),
(833,650,cs),
(70,650,l,{
name = hr00;
})
);
},
{
closed = 1;
nodes = (
(366,43,l),
(366,607,l),
(431,607,l),
(431,43,l)
);
},
{
closed = 1;
nodes = (
(710,43,o),
(688,85,o),
(688,145,cs),
(688,508,ls),
(688,568,o),
(733,606,o),
(807,606,cs),
(979,606,o),
(1030,484,o),
(1030,324,cs),
(1030,184,o),
(987,43,o),
(863,43,cs),
(772,43,ls)
);
},
{
closed = 1;
nodes = (
(1200,189,o),
(1135,107,o),
(1034,50,c),
(1032,53,l),
(1088,129,o),
(1119,222,o),
(1119,324,cs),
(1119,426,o),
(1088,519,o),
(1032,595,c),
(1034,598,l),
(1135,541,o),
(1200,459,o),
(1200,324,cs)
);
},
{
closed = 1;
nodes = (
(1030,862,l),
(943,862,l),
(840,750,l),
(736,862,l),
(439,862,l),
(573,716,l),
(897,716,l,{
name = hr00;
})
);
},
{
closed = 1;
nodes = (
(550,824,l),
(612,824,l),
(687,741,l),
(625,741,l)
);
}
);
};
layerId = master01;
shapes = (
{
ref = D;
},
{
pos = (389,0);
ref = caroncomb.case;
}
);
width = 1469;
}
);
unicode = 270;
},
{
glyphname = Dcroat;
lastChange = "2023-02-16 09:44:17 +0000";
layers = (
{
background = {
shapes = (
{
closed = 1;
nodes = (
(510,365,l),
(510,285,l),
(876,285,l),
(876,365,l,{
name = hr00;
})
);
},
{
closed = 1;
nodes = (
(148,365,l),
(148,285,l),
(324,285,l),
(324,365,l)
);
},
{
closed = 1;
nodes = (
(70,607,l),
(190,607,ls),
(250,607,o),
(299,557,o),
(299,498,cs),
(299,152,ls),
(299,72,o),
(250,43,o),
(190,43,cs),
(70,43,l),
(70,0,l),
(925,0,ls),
(1110,0,o),
(1446,58,o),
(1446,337,cs),
(1446,568,o),
(1139,650,o),
(833,650,cs),
(70,650,l,{
name = hr00;
})
);
},
{
closed = 1;
nodes = (
(366,43,l),
(366,607,l),
(431,607,l),
(431,43,l)
);
},
{
closed = 1;
nodes = (
(710,43,o),
(688,85,o),
(688,145,cs),
(688,508,ls),
(688,568,o),
(733,606,o),
(807,606,cs),
(979,606,o),
(1030,484,o),
(1030,324,cs),
(1030,184,o),
(987,43,o),
(863,43,cs),
(772,43,ls)
);
},
{
closed = 1;
nodes = (
(1200,189,o),
(1135,107,o),
(1034,50,c),
(1032,53,l),
(1088,129,o),
(1119,222,o),
(1119,324,cs),
(1119,426,o),
(1088,519,o),
(1032,595,c),
(1034,598,l),
(1135,541,o),
(1200,459,o),
(1200,324,cs)
);
}
);
};
layerId = master01;
shapes = (
{
ref = Eth;
}
);
width = 1469;
}
);
unicode = 272;
},
{
glyphname = E;
lastChange = "2023-02-16 10:29:22 +0000";
layers = (
{
anchors = (
{
name = bottom;
pos = (680,0);
},
{
name = ogonek;
pos = (1280,22);
},
{
name = top;
pos = (770,650);
},
{
name = topleft;
pos = (20,650);
}
);
background = {
shapes = (
{
closed = 1;
nodes = (
(1051,605,o),
(1186,507,o),
(1251,420,c),
(1280,420,l),
(1280,650,l),
(73,650,l),
(73,607,l),
(193,607,ls),
(254,607,o),
(302,556,o),
(302,497,cs),
(302,151,ls),
(302,71,o),
(254,43,o),
(193,43,cs),
(73,43,l),
(73,0,l),
(1280,0,l),
(1280,212,l),
(1251,212,l),
(1129,48,o),
(947,43,o),
(802,43,cs),
(777,43,ls),
(697,43,o),
(691,99,o),
(691,187,cs),
(691,223,ls),
(691,265,o),
(711,312,o),
(779,312,cs),
(866,312,o),
(989,270,o),
(1022,194,c),
(1059,194,l),
(1059,499,l),
(1022,499,l),
(989,428,o),
(866,372,o),
(779,372,cs),
(701,372,o),
(691,433,o),
(691,474,cs),
(691,508,ls),
(691,565,o),
(734,605,o),
(804,605,cs,{
name = hr00;
})
);
},
{
closed = 1;
nodes = (
(369,43,l),
(369,607,l),
(435,607,l),
(435,43,l)
);
}
);
};
layerId = master01;
shapes = (
{
closed = 1;
nodes = (
(1280,0,l),
(1280,212,l),
(1251,212,l),
(1129,48,o),
(947,43,o),
(802,43,cs),
(777,43,ls),
(697,43,o),
(691,99,o),
(691,187,cs),
(691,223,ls),
(691,265,o),
(711,312,o),
(779,312,cs),
(866,312,o),
(989,270,o),
(1022,194,c),
(1059,194,l),
(1059,499,l),
(1022,499,l),
(989,428,o),
(866,372,o),
(779,372,cs),
(701,372,o),
(691,433,o),
(691,474,cs),
(691,508,ls),
(691,565,o),
(734,605,o),
(804,605,cs,{
name = hr00;
}),
(1051,605,o),
(1186,507,o),
(1251,420,c),
(1280,420,l),
(1280,650,l),
(73,650,l),
(73,607,l),
(193,607,ls),
(254,607,o),
(302,556,o),
(302,497,cs),
(302,151,ls),
(302,71,o),
(254,43,o),
(193,43,cs),
(73,43,l),
(73,0,l)
);
},
{
closed = 1;
nodes = (
(369,607,l),
(435,607,l),
(435,43,l),
(369,43,l)
);
}
);
width = 1360;
}
);
unicode = 69;
},
{
glyphname = Eacute;
lastChange = "2023-02-16 09:48:44 +0000";
layers = (
{
background = {
shapes = (
{
closed = 1;
nodes = (
(1051,605,o),
(1186,507,o),
(1251,420,c),
(1280,420,l),
(1280,650,l),
(73,650,l),
(73,607,l),
(193,607,ls),
(254,607,o),
(302,556,o),
(302,497,cs),
(302,151,ls),
(302,71,o),
(254,43,o),
(193,43,cs),
(73,43,l),
(73,0,l),
(1280,0,l),
(1280,212,l),
(1251,212,l),
(1129,48,o),
(947,43,o),
(802,43,cs),
(777,43,ls),
(697,43,o),
(691,99,o),
(691,187,cs),
(691,223,ls),
(691,265,o),
(711,312,o),
(779,312,cs),
(866,312,o),
(989,270,o),
(1022,194,c),
(1059,194,l),
(1059,499,l),
(1022,499,l),
(989,428,o),
(866,372,o),
(779,372,cs),
(701,372,o),
(691,433,o),
(691,474,cs),
(691,508,ls),
(691,565,o),
(734,605,o),
(804,605,cs,{
name = hr00;
})
);
},
{
closed = 1;
nodes = (
(369,43,l),
(369,607,l),
(435,607,l),
(435,43,l)
);
},
{
closed = 1;
nodes = (
(931,763,o),
(955,862,o),
(955,862,c),
(664,862,l),
(614,792,o),
(561,752,o),
(405,752,c),
(405,716,l,{
name = hr01;
}),
(459,716,ls),
(546,716,o),
(729,716,o),
(807,734,c)
);
},
{
closed = 1;
nodes = (
(633,769,o),
(686,797,o),
(704,834,c),
(768,834,l),
(751,809,o),
(707,760,o),
(603,755,c),
(603,759,l)
);
}
);
};
layerId = master01;
shapes = (
{
ref = E;
},
{
pos = (445,0);
ref = acutecomb.case;
}
);
width = 1360;
}
);
unicode = 201;
},
{
glyphname = Ebreve;
lastChange = "2023-02-16 09:48:44 +0000";
layers = (
{
background = {
shapes = (
{
closed = 1;
nodes = (
(1051,605,o),
(1186,507,o),
(1251,420,c),
(1280,420,l),
(1280,650,l),
(73,650,l),
(73,607,l),
(193,607,ls),
(254,607,o),
(302,556,o),
(302,497,cs),
(302,151,ls),
(302,71,o),
(254,43,o),
(193,43,cs),
(73,43,l),
(73,0,l),
(1280,0,l),
(1280,212,l),
(1251,212,l),
(1129,48,o),
(947,43,o),
(802,43,cs),
(777,43,ls),
(697,43,o),
(691,99,o),
(691,187,cs),
(691,223,ls),
(691,265,o),
(711,312,o),
(779,312,cs),
(866,312,o),
(989,270,o),
(1022,194,c),
(1059,194,l),
(1059,499,l),
(1022,499,l),
(989,428,o),
(866,372,o),
(779,372,cs),
(701,372,o),
(691,433,o),
(691,474,cs),
(691,508,ls),
(691,565,o),
(734,605,o),
(804,605,cs,{
name = hr00;
})
);
},
{
closed = 1;
nodes = (
(369,43,l),
(369,607,l),
(435,607,l),
(435,43,l)
);
},
{
closed = 1;
nodes = (
(700,818,o),
(647,846,o),
(606,879,c),
(585,873,l),
(585,768,o),
(674,683,o),
(781,683,cs),
(890,683,o),
(975,768,o),
(975,873,c),
(955,879,l),
(915,846,o),
(863,818,o),
(781,818,cs)
);
},
{
closed = 1;
nodes = (
(835,755,o),
(883,773,o),
(915,797,c),
(920,794,l),
(893,746,o),
(839,715,o),
(781,715,cs),
(724,715,o),
(670,746,o),
(643,794,c),
(648,797,l),
(680,773,o),
(730,755,o),
(781,755,cs,{
name = hr01;
})
);
}
);
};
layerId = master01;
shapes = (
{
ref = E;
},
{
pos = (525,0);
ref = brevecomb.case;
}
);
width = 1360;
}
);
unicode = 276;
},
{
glyphname = Ecaron;
lastChange = "2023-02-16 09:48:44 +0000";
layers = (
{
background = {
shapes = (
{
closed = 1;
nodes = (
(1051,605,o),
(1186,507,o),
(1251,420,c),
(1280,420,l),
(1280,650,l),
(73,650,l),
(73,607,l),
(193,607,ls),
(254,607,o),
(302,556,o),
(302,497,cs),
(302,151,ls),
(302,71,o),
(254,43,o),
(193,43,cs),
(73,43,l),
(73,0,l),
(1280,0,l),
(1280,212,l),
(1251,212,l),
(1129,48,o),
(947,43,o),
(802,43,cs),
(777,43,ls),
(697,43,o),
(691,99,o),
(691,187,cs),
(691,223,ls),
(691,265,o),
(711,312,o),
(779,312,cs),
(866,312,o),
(989,270,o),
(1022,194,c),
(1059,194,l),
(1059,499,l),
(1022,499,l),
(989,428,o),
(866,372,o),
(779,372,cs),
(701,372,o),
(691,433,o),
(691,474,cs),
(691,508,ls),
(691,565,o),
(734,605,o),
(804,605,cs,{
name = hr00;
})
);
},
{
closed = 1;
nodes = (
(369,43,l),
(369,607,l),
(435,607,l),
(435,43,l)
);
},
{
closed = 1;
nodes = (
(1075,862,l),
(988,862,l),
(885,750,l),
(781,862,l),
(484,862,l),
(618,716,l),
(942,716,l,{
name = hr00;
})
);
},
{
closed = 1;
nodes = (
(595,824,l),
(657,824,l),
(732,741,l),
(670,741,l)
);
}
);
};
layerId = master01;
shapes = (
{
ref = E;
},
{
pos = (424,0);
ref = caroncomb.case;
}
);
width = 1360;
}
);
unicode = 282;
},
{
glyphname = Ecircumflex;
lastChange = "2023-02-16 09:48:44 +0000";
layers = (
{
background = {
shapes = (
{
closed = 1;
nodes = (
(1051,605,o),
(1186,507,o),
(1251,420,c),
(1280,420,l),
(1280,650,l),
(73,650,l),
(73,607,l),
(193,607,ls),
(254,607,o),
(302,556,o),
(302,497,cs),
(302,151,ls),
(302,71,o),
(254,43,o),
(193,43,cs),
(73,43,l),
(73,0,l),
(1280,0,l),
(1280,212,l),
(1251,212,l),
(1129,48,o),
(947,43,o),
(802,43,cs),
(777,43,ls),
(697,43,o),
(691,99,o),
(691,187,cs),
(691,223,ls),
(691,265,o),
(711,312,o),
(779,312,cs),
(866,312,o),
(989,270,o),
(1022,194,c),
(1059,194,l),
(1059,499,l),
(1022,499,l),
(989,428,o),
(866,372,o),
(779,372,cs),
(701,372,o),
(691,433,o),
(691,474,cs),
(691,508,ls),
(691,565,o),
(734,605,o),
(804,605,cs,{
name = hr00;
})
);
},
{
closed = 1;
nodes = (
(369,43,l),
(369,607,l),
(435,607,l),
(435,43,l)
);
},
{
closed = 1;
nodes = (
(470,716,l),
(767,716,l),
(871,828,l),
(974,716,l),
(1061,716,l),
(928,862,l),
(604,862,l)
);
},
{
closed = 1;
nodes = (
(643,754,l),
(581,754,l),
(656,837,l),
(718,837,l,{
name = hr01;
})
);
}
);
};
layerId = master01;
shapes = (
{
ref = E;
},
{
pos = (424,0);
ref = circumflexcomb.case;
}
);
width = 1360;
}
);
unicode = 202;
},
{
glyphname = Edieresis;
lastChange = "2023-02-16 09:48:44 +0000";
layers = (
{
background = {
shapes = (
{
closed = 1;
nodes = (
(1051,605,o),
(1186,507,o),
(1251,420,c),
(1280,420,l),
(1280,650,l),
(73,650,l),
(73,607,l),
(193,607,ls),
(254,607,o),
(302,556,o),
(302,497,cs),
(302,151,ls),
(302,71,o),
(254,43,o),
(193,43,cs),
(73,43,l),
(73,0,l),
(1280,0,l),
(1280,212,l),
(1251,212,l),
(1129,48,o),
(947,43,o),
(802,43,cs),
(777,43,ls),
(697,43,o),
(691,99,o),
(691,187,cs),
(691,223,ls),
(691,265,o),
(711,312,o),
(779,312,cs),
(866,312,o),
(989,270,o),
(1022,194,c),
(1059,194,l),
(1059,499,l),
(1022,499,l),
(989,428,o),
(866,372,o),
(779,372,cs),
(701,372,o),
(691,433,o),
(691,474,cs),
(691,508,ls),
(691,565,o),
(734,605,o),
(804,605,cs,{
name = hr00;
})
);
},
{
closed = 1;
nodes = (
(369,43,l),
(369,607,l),
(435,607,l),
(435,43,l)
);
},
{
closed = 1;
nodes = (
(1115,861,o),
(1054,913,o),
(977,913,cs),
(902,913,o),
(841,861,o),
(841,798,cs),
(841,735,o),
(902,685,o),
(977,685,cs),
(1054,685,o),
(1115,735,o),
(1115,798,c,{
name = hr00;
})
);
},
{
closed = 1;
nodes = (
(659,861,o),
(598,913,o),
(521,913,cs),
(446,913,o),
(385,861,o),
(385,798,cs),
(385,735,o),
(446,685,o),
(521,685,cs),
(598,685,o),
(659,735,o),
(659,798,c)
);
},
{
closed = 1;
nodes = (
(463,762,o),
(475,732,o),
(494,711,c),
(491,708,l),
(451,725,o),
(422,760,o),
(422,798,cs),
(422,836,o),
(451,871,o),
(491,888,c),
(494,885,l),
(475,864,o),
(463,834,o),
(463,798,c)
);
},
{
closed = 1;
nodes = (
(919,762,o),
(931,732,o),
(950,711,c),
(947,708,l),
(907,725,o),
(878,760,o),
(878,798,cs),
(878,836,o),
(907,871,o),
(947,888,c),
(950,885,l),
(931,864,o),
(919,834,o),
(919,798,cs)
);
}
);
};
layerId = master01;
shapes = (
{
ref = E;
},
{
pos = (328,0);
ref = dieresiscomb.case;
}
);
width = 1360;
}
);
unicode = 203;
},
{
glyphname = Edotaccent;
lastChange = "2023-02-16 09:48:44 +0000";
layers = (
{
background = {
shapes = (
{
closed = 1;
nodes = (
(1051,605,o),
(1186,507,o),
(1251,420,c),
(1280,420,l),
(1280,650,l),
(73,650,l),
(73,607,l),
(193,607,ls),
(254,607,o),
(302,556,o),
(302,497,cs),
(302,151,ls),
(302,71,o),
(254,43,o),
(193,43,cs),
(73,43,l),
(73,0,l),
(1280,0,l),
(1280,212,l),
(1251,212,l),
(1129,48,o),
(947,43,o),
(802,43,cs),
(777,43,ls),
(697,43,o),
(691,99,o),
(691,187,cs),
(691,223,ls),
(691,265,o),
(711,312,o),
(779,312,cs),
(866,312,o),
(989,270,o),
(1022,194,c),
(1059,194,l),
(1059,499,l),
(1022,499,l),
(989,428,o),
(866,372,o),
(779,372,cs),
(701,372,o),
(691,433,o),
(691,474,cs),
(691,508,ls),
(691,565,o),
(734,605,o),
(804,605,cs,{
name = hr00;
})
);
},
{
closed = 1;
nodes = (
(369,43,l),
(369,607,l),
(435,607,l),
(435,43,l)
);
},
{
closed = 1;
nodes = (
(917,861,o),
(856,913,o),
(779,913,cs),
(704,913,o),
(643,861,o),
(643,798,cs),
(643,735,o),
(704,685,o),
(779,685,cs),
(856,685,o),
(917,735,o),
(917,798,c,{
name = hr00;
})
);
},
{
closed = 1;
nodes = (
(705,767,o),
(716,739,o),
(732,720,c),
(730,717,l),
(695,733,o),
(670,765,o),
(670,798,cs),
(670,831,o),
(695,863,o),
(730,879,c),
(732,876,l),
(716,857,o),
(705,829,o),
(705,798,c)
);
}
);
};
layerId = master01;
shapes = (
{
ref = E;
},
{
pos = (583,0);
ref = dotaccentcomb.case;
}
);
width = 1360;
}
);
unicode = 278;
},
{
glyphname = Egrave;
lastChange = "2023-02-16 09:48:44 +0000";
layers = (
{
background = {
shapes = (
{
closed = 1;
nodes = (
(1051,605,o),
(1186,507,o),
(1251,420,c),
(1280,420,l),
(1280,650,l),
(73,650,l),
(73,607,l),
(193,607,ls),
(254,607,o),
(302,556,o),
(302,497,cs),
(302,151,ls),
(302,71,o),
(254,43,o),
(193,43,cs),
(73,43,l),
(73,0,l),
(1280,0,l),
(1280,212,l),
(1251,212,l),
(1129,48,o),
(947,43,o),
(802,43,cs),
(777,43,ls),
(697,43,o),
(691,99,o),
(691,187,cs),
(691,223,ls),
(691,265,o),
(711,312,o),
(779,312,cs),
(866,312,o),
(989,270,o),
(1022,194,c),
(1059,194,l),
(1059,499,l),
(1022,499,l),
(989,428,o),
(866,372,o),
(779,372,cs),
(701,372,o),
(691,433,o),
(691,474,cs),
(691,508,ls),
(691,565,o),
(734,605,o),
(804,605,cs,{
name = hr00;
})
);
},
{
closed = 1;
nodes = (
(369,43,l),
(369,607,l),
(435,607,l),
(435,43,l)
);
},
{
closed = 1;
nodes = (
(631,716,o),
(814,716,o),
(901,716,cs),
(955,716,l),
(955,752,l,{
name = hr01;
}),
(799,752,o),
(746,792,o),
(696,862,c),
(405,862,l),
(405,862,o),
(429,763,o),
(553,734,cs)
);
},
{
closed = 1;
nodes = (
(539,760,o),
(495,809,o),
(478,834,c),
(542,834,l),
(560,797,o),
(613,769,o),
(643,759,c),
(643,755,l)
);
}
);
};
layerId = master01;
shapes = (
{
ref = E;
},
{
pos = (445,0);
ref = gravecomb.case;
}
);
width = 1360;
}
);
unicode = 200;
},
{
glyphname = Emacron;
lastChange = "2023-02-16 09:48:44 +0000";
layers = (
{
background = {
shapes = (
{
closed = 1;
nodes = (
(1051,605,o),
(1186,507,o),
(1251,420,c),
(1280,420,l),
(1280,650,l),
(73,650,l),
(73,607,l),
(193,607,ls),
(254,607,o),
(302,556,o),
(302,497,cs),
(302,151,ls),
(302,71,o),
(254,43,o),
(193,43,cs),
(73,43,l),
(73,0,l),
(1280,0,l),
(1280,212,l),
(1251,212,l),
(1129,48,o),
(947,43,o),
(802,43,cs),
(777,43,ls),
(697,43,o),
(691,99,o),
(691,187,cs),
(691,223,ls),
(691,265,o),
(711,312,o),
(779,312,cs),
(866,312,o),
(989,270,o),
(1022,194,c),
(1059,194,l),
(1059,499,l),
(1022,499,l),
(989,428,o),
(866,372,o),
(779,372,cs),
(701,372,o),
(691,433,o),
(691,474,cs),
(691,508,ls),
(691,565,o),
(734,605,o),
(804,605,cs,{
name = hr00;
})
);
},
{
closed = 1;
nodes = (
(369,43,l),
(369,607,l),
(435,607,l),
(435,43,l)
);
},
{
closed = 1;
nodes = (
(982,722,l),
(982,856,l),
(577,856,l),
(577,722,l,{
name = hr00;
})
);
},
{
closed = 1;
nodes = (
(638,742,l),
(638,836,l),
(692,836,l),
(692,742,l)
);
}
);
};
layerId = master01;
shapes = (
{
ref = E;
},
{
pos = (517,0);
ref = macroncomb.case;
}
);
width = 1360;
}
);
unicode = 274;
},
{
glyphname = Eogonek;
lastChange = "2023-02-16 09:48:59 +0000";
layers = (
{
background = {
shapes = (
{
closed = 1;
nodes = (
(1051,605,o),
(1186,507,o),
(1251,420,c),
(1280,420,l),
(1280,650,l),
(73,650,l),
(73,607,l),
(193,607,ls),
(254,607,o),
(302,556,o),
(302,497,cs),
(302,151,ls),
(302,71,o),
(254,43,o),
(193,43,cs),
(73,43,l),
(73,0,l),
(1280,0,l),
(1280,212,l),
(1251,212,l),
(1129,48,o),
(947,43,o),
(802,43,cs),
(777,43,ls),
(697,43,o),
(691,99,o),
(691,187,cs),
(691,223,ls),
(691,265,o),
(711,312,o),
(779,312,cs),
(866,312,o),
(989,270,o),
(1022,194,c),
(1059,194,l),
(1059,499,l),
(1022,499,l),
(989,428,o),
(866,372,o),
(779,372,cs),
(701,372,o),
(691,433,o),
(691,474,cs),
(691,508,ls),
(691,565,o),
(734,605,o),
(804,605,cs,{
name = hr00;
})
);
},
{
closed = 1;
nodes = (
(369,43,l),
(369,607,l),
(435,607,l),
(435,43,l)
);
},
{
closed = 1;
nodes = (
(1241,-80,l),
(1220,-133,o),
(1155,-176,o),
(1102,-176,cs),
(1059,-176,o),
(1024,-155,o),
(1024,-106,cs),
(1024,-51,o),
(1067,-7,o),
(1155,6,c),
(1155,22,l),
(985,11,o),
(814,-36,o),
(814,-134,cs),
(814,-213,o),
(939,-224,o),
(1047,-224,cs),
(1142,-224,o),
(1229,-208,o),
(1280,-189,c),
(1280,-80,l,{
name = hr00;
})
);
},
{
closed = 1;
nodes = (
(918,-62,o),
(904,-88,o),
(904,-119,cs),
(904,-148,o),
(930,-184,o),
(958,-196,c),
(956,-201,l),
(891,-193,o),
(854,-161,o),
(854,-124,cs),
(854,-84,o),
(894,-55,o),
(946,-39,c),
(949,-44,l)
);
}
);
};
layerId = master01;
shapes = (
{
ref = E;
},
{
pos = (764,0);
ref = ogonekcomb;
}
);
width = 1360;
}
);
unicode = 280;
},
{
glyphname = F;
kernRight = F;
lastChange = "2023-02-16 10:29:22 +0000";
layers = (
{
anchors = (
{
name = bottom;
pos = (618,0);
},
{
name = top;
pos = (618,650);
}
);
background = {
shapes = (
{
closed = 1;
nodes = (
(810,43,ls),
(725,43,o),
(692,54,o),
(692,147,cs),
(692,223,ls),
(692,266,o),
(711,313,o),
(779,313,cs),
(865,313,o),
(928,290,o),
(961,213,c),
(998,213,l),
(998,463,l),
(961,463,l),
(928,414,o),
(865,372,o),
(779,372,cs),
(701,372,o),
(692,434,o),
(692,474,cs),
(692,508,ls),
(692,565,o),
(733,606,o),
(804,606,cs),
(1050,606,o),
(1118,528,o),
(1180,463,c),
(1208,463,l),
(1208,650,l),
(73,650,l),
(73,607,l),
(193,607,ls),
(253,607,o),
(301,557,o),
(301,497,cs),
(301,152,ls),
(301,72,o),
(253,43,o),
(193,43,cs),
(73,43,l),
(73,0,l),
(910,0,l),
(910,43,l,{
name = hr00;
})
);
},
{
closed = 1;
nodes = (
(369,43,l),
(369,607,l),
(434,607,l),
(434,43,l)
);
}
);
};
layerId = master01;
shapes = (
{
closed = 1;
nodes = (
(910,0,l),
(910,43,l,{
name = hr00;
}),
(810,43,ls),
(725,43,o),
(692,54,o),
(692,147,cs),
(692,223,ls),
(692,266,o),
(711,313,o),
(779,313,cs),
(865,313,o),
(928,290,o),
(961,213,c),
(998,213,l),
(998,463,l),
(961,463,l),
(928,414,o),
(865,372,o),
(779,372,cs),
(701,372,o),
(692,434,o),
(692,474,cs),
(692,508,ls),
(692,565,o),
(733,606,o),
(804,606,cs),
(1050,606,o),
(1118,528,o),
(1180,463,c),
(1208,463,l),
(1208,650,l),
(73,650,l),
(73,607,l),
(193,607,ls),
(253,607,o),
(301,557,o),
(301,497,cs),
(301,152,ls),
(301,72,o),
(253,43,o),
(193,43,cs),
(73,43,l),
(73,0,l)
);
},
{
closed = 1;
nodes = (
(369,607,l),
(434,607,l),
(434,43,l),
(369,43,l)
);
}
);
width = 1235;
}
);
unicode = 70;
},
{
glyphname = G;
kernLeft = O;
lastChange = "2023-02-16 10:29:22 +0000";
layers = (
{
anchors = (
{
name = bottom;
pos = (646,0);
},
{
name = top;
pos = (646,650);
}
);
background = {
shapes = (
{
closed = 1;
nodes = (
(603,348,l),
(718,348,ls),
(774,348,o),
(832,305,o),
(832,247,cs),
(832,175,ls),
(832,44,o),
(731,21,o),
(669,21,cs),
(508,21,o),
(474,112,o),
(474,203,cs),
(474,482,ls),
(474,588,o),
(567,629,o),
(684,629,cs),
(859,629,o),
(1020,529,o),
(1079,439,c),
(1127,439,l),
(1127,650,l,{
name = hr01;
}),
(1079,650,l),
(1079,607,l),
(935,650,o),
(770,674,o),
(630,674,cs,{
name = hr02;
}),
(307,674,o),
(22,598,o),
(22,328,cs),
(22,74,o),
(305,-23,o),
(666,-23,cs),
(912,-23,o),
(1020,63,o),
(1094,63,cs),
(1141,63,o),
(1165,36,o),
(1165,0,c,{
name = hr03;
}),
(1213,0,l),
(1213,348,l),
(1403,348,l),
(1403,391,l),
(603,391,l)
);
},
{
closed = 1;
nodes = (
(175,108,o),
(85,213,o),
(85,335,cs),
(85,457,o),
(175,560,o),
(299,601,c),
(301,596,l),
(218,548,o),
(159,449,o),
(159,335,cs),
(159,220,o),
(218,120,o),
(301,71,c),
(300,67,l)
);
},
{
closed = 1;
nodes = (
(964,136,o),
(937,71,o),
(914,71,cs),
(904,71,o),
(899,85,o),
(899,149,cs),
(899,346,l),
(964,346,l),
(964,215,ls)
);
}
);
};
layerId = master01;
shapes = (
{
closed = 1;
nodes = (
(912,-23,o),
(1020,63,o),
(1094,63,cs),
(1141,63,o),
(1165,36,o),
(1165,0,c,{
name = hr03;
}),
(1213,0,l),
(1213,348,l),
(1403,348,l),
(1403,391,l),
(603,391,l),
(603,348,l),
(718,348,ls),
(774,348,o),
(832,305,o),
(832,247,cs),
(832,175,ls),
(832,44,o),
(731,21,o),
(669,21,cs),
(508,21,o),
(474,112,o),
(474,203,cs),
(474,482,ls),
(474,588,o),
(567,629,o),
(684,629,cs),
(859,629,o),
(1020,529,o),
(1079,439,c),
(1127,439,l),
(1127,650,l,{
name = hr01;
}),
(1079,650,l),
(1079,607,l),
(935,650,o),
(770,674,o),
(630,674,cs,{
name = hr02;
}),
(307,674,o),
(22,598,o),
(22,328,cs),
(22,74,o),
(305,-23,o),
(666,-23,cs)
);
},
{
closed = 1;
nodes = (
(175,108,o),
(85,213,o),
(85,335,cs),
(85,457,o),
(175,560,o),
(299,601,c),
(301,596,l),
(218,548,o),
(159,449,o),
(159,335,cs),
(159,220,o),
(218,120,o),
(301,71,c),
(300,67,l)
);
},
{
closed = 1;
nodes = (
(904,71,o),
(899,85,o),
(899,149,cs),
(899,346,l),
(964,346,l),
(964,215,ls),
(964,136,o),
(937,71,o),
(914,71,cs)
);
}
);
width = 1372;
}
);
unicode = 71;
},
{
glyphname = Gbreve;
kernLeft = O;
lastChange = "2023-02-16 09:49:05 +0000";
layers = (
{
background = {
shapes = (
{
closed = 1;
nodes = (
(603,348,l),
(718,348,ls),
(774,348,o),
(832,305,o),
(832,247,cs),
(832,175,ls),
(832,44,o),
(731,21,o),
(669,21,cs),
(508,21,o),
(474,112,o),
(474,203,cs),
(474,482,ls),
(474,588,o),
(567,629,o),
(684,629,cs),
(859,629,o),
(1020,529,o),
(1079,439,c),
(1127,439,l),
(1127,650,l,{
name = hr01;
}),
(1079,650,l),
(1079,607,l),
(935,650,o),
(770,674,o),
(630,674,cs,{
name = hr02;
}),
(307,674,o),
(22,598,o),
(22,328,cs),
(22,74,o),
(305,-23,o),
(666,-23,cs),
(912,-23,o),
(1020,63,o),
(1094,63,cs),
(1141,63,o),
(1165,36,o),
(1165,0,c,{
name = hr03;
}),
(1213,0,l),
(1213,348,l),
(1403,348,l),
(1403,391,l),
(603,391,l)
);
},
{
closed = 1;
nodes = (
(175,108,o),
(85,213,o),
(85,335,cs),
(85,457,o),
(175,560,o),
(299,601,c),
(301,596,l),
(218,548,o),
(159,449,o),
(159,335,cs),
(159,220,o),
(218,120,o),
(301,71,c),
(300,67,l)
);
},
{
closed = 1;
nodes = (
(964,136,o),
(937,71,o),
(914,71,cs),
(904,71,o),
(899,85,o),
(899,149,cs),
(899,346,l),
(964,346,l),
(964,215,ls)
);
},
{
closed = 1;
nodes = (
(566,818,o),
(513,846,o),
(472,879,c),
(451,873,l),
(451,768,o),
(540,683,o),
(647,683,cs),
(756,683,o),
(841,768,o),
(841,873,c),
(821,879,l),
(781,846,o),
(729,818,o),
(647,818,cs)
);
},
{
closed = 1;
nodes = (
(701,755,o),
(749,773,o),
(781,797,c),
(786,794,l),
(759,746,o),
(705,715,o),
(647,715,cs),
(590,715,o),
(536,746,o),
(509,794,c),
(514,797,l),
(546,773,o),
(596,755,o),
(647,755,cs,{
name = hr01;
})
);
}
);
};
layerId = master01;
shapes = (
{
ref = G;
},
{
pos = (401,0);
ref = brevecomb.case;
}
);
width = 1372;
}
);
unicode = 286;
},
{
glyphname = Gcircumflex;
kernLeft = O;
lastChange = "2023-02-16 09:49:05 +0000";
layers = (
{
background = {
shapes = (
{
closed = 1;
nodes = (
(603,348,l),
(718,348,ls),
(774,348,o),
(832,305,o),
(832,247,cs),
(832,175,ls),
(832,44,o),
(731,21,o),
(669,21,cs),
(508,21,o),
(474,112,o),
(474,203,cs),
(474,482,ls),
(474,588,o),
(567,629,o),
(684,629,cs),
(859,629,o),
(1020,529,o),
(1079,439,c),
(1127,439,l),
(1127,650,l,{
name = hr01;
}),
(1079,650,l),
(1079,607,l),
(935,650,o),
(770,674,o),
(630,674,cs,{
name = hr02;
}),
(307,674,o),
(22,598,o),
(22,328,cs),
(22,74,o),
(305,-23,o),
(666,-23,cs),
(912,-23,o),
(1020,63,o),
(1094,63,cs),
(1141,63,o),
(1165,36,o),
(1165,0,c,{
name = hr03;
}),
(1213,0,l),
(1213,348,l),
(1403,348,l),
(1403,391,l),
(603,391,l)
);
},
{
closed = 1;
nodes = (
(175,108,o),
(85,213,o),
(85,335,cs),
(85,457,o),
(175,560,o),
(299,601,c),
(301,596,l),
(218,548,o),
(159,449,o),
(159,335,cs),
(159,220,o),
(218,120,o),
(301,71,c),
(300,67,l)
);
},
{
closed = 1;
nodes = (
(964,136,o),
(937,71,o),
(914,71,cs),
(904,71,o),
(899,85,o),
(899,149,cs),
(899,346,l),
(964,346,l),
(964,215,ls)
);
},
{
closed = 1;
nodes = (
(350,716,l),
(647,716,l),
(751,828,l),
(854,716,l),
(941,716,l),
(808,862,l),
(484,862,l,{
name = hr00;
})
);
},
{
closed = 1;
nodes = (
(523,754,l),
(461,754,l),
(536,837,l),
(598,837,l)
);
}
);
};
layerId = master01;
shapes = (
{
ref = G;
},
{
pos = (300,0);
ref = circumflexcomb.case;
}
);
width = 1372;
}
);
unicode = 284;
},
{
glyphname = Gcommaaccent;
lastChange = "2023-02-16 09:49:08 +0000";
layers = (
{
background = {
shapes = (
{
closed = 1;
nodes = (
(603,348,l),
(718,348,ls),
(774,348,o),
(832,305,o),
(832,247,cs),
(832,175,ls),
(832,44,o),
(731,21,o),
(669,21,cs),
(508,21,o),
(474,112,o),
(474,203,cs),
(474,482,ls),
(474,588,o),
(567,629,o),
(684,629,cs),
(859,629,o),
(1020,529,o),
(1079,439,c),
(1127,439,l),
(1127,650,l,{
name = hr01;
}),
(1079,650,l),
(1079,607,l),
(935,650,o),
(770,674,o),
(630,674,cs,{
name = hr02;
}),
(307,674,o),
(22,598,o),
(22,328,cs),
(22,74,o),
(305,-23,o),
(666,-23,cs),
(912,-23,o),
(1020,63,o),
(1094,63,cs),
(1141,63,o),
(1165,36,o),
(1165,0,c,{
name = hr03;
}),
(1213,0,l),
(1213,348,l),
(1403,348,l),
(1403,391,l),
(603,391,l)
);
},
{
closed = 1;
nodes = (
(175,108,o),
(85,213,o),
(85,335,cs),
(85,457,o),
(175,560,o),
(299,601,c),
(301,596,l),
(218,548,o),
(159,449,o),
(159,335,cs),
(159,220,o),
(218,120,o),
(301,71,c),
(300,67,l)
);
},
{
closed = 1;
nodes = (
(964,136,o),
(937,71,o),
(914,71,cs),
(904,71,o),
(899,85,o),
(899,149,cs),
(899,346,l),
(964,346,l),
(964,215,ls)
);
},
{
closed = 1;
nodes = (
(584,-203,o),
(595,-231,o),
(611,-250,c),
(609,-253,l),
(574,-237,o),
(549,-205,o),
(549,-172,cs),
(549,-139,o),
(574,-107,o),
(609,-91,c),
(611,-94,l),
(595,-113,o),
(584,-141,o),
(584,-172,c,{
name = hr00;
})
);
},
{
closed = 1;
nodes = (
(509,-235,o),
(570,-287,o),
(647,-287,cs),
(662,-287,o),
(677,-285,o),
(690,-281,c),
(661,-340,o),
(567,-359,o),
(519,-359,c),
(519,-396,l),
(715,-383,o),
(783,-278,o),
(783,-180,cs),
(783,-109,o),
(722,-59,o),
(647,-59,cs),
(570,-59,o),
(509,-109,o),
(509,-172,cs)
);
}
);
};
layerId = master01;
shapes = (
{
ref = G;
},
{
pos = (509,0);
ref = commaaccentcomb;
}
);
width = 1372;
}
);
unicode = 290;
},
{
glyphname = Gdotaccent;
kernLeft = O;
lastChange = "2023-02-16 09:49:05 +0000";
layers = (
{
background = {
shapes = (
{
closed = 1;
nodes = (
(603,348,l),
(718,348,ls),
(774,348,o),
(832,305,o),
(832,247,cs),
(832,175,ls),
(832,44,o),
(731,21,o),
(669,21,cs),
(508,21,o),
(474,112,o),
(474,203,cs),
(474,482,ls),
(474,588,o),
(567,629,o),
(684,629,cs),
(859,629,o),
(1020,529,o),
(1079,439,c),
(1127,439,l),
(1127,650,l,{
name = hr01;
}),
(1079,650,l),
(1079,607,l),
(935,650,o),
(770,674,o),
(630,674,cs,{
name = hr02;
}),
(307,674,o),
(22,598,o),
(22,328,cs),
(22,74,o),
(305,-23,o),
(666,-23,cs),
(912,-23,o),
(1020,63,o),
(1094,63,cs),
(1141,63,o),
(1165,36,o),
(1165,0,c,{
name = hr03;
}),
(1213,0,l),
(1213,348,l),
(1403,348,l),
(1403,391,l),
(603,391,l)
);
},
{
closed = 1;
nodes = (
(175,108,o),
(85,213,o),
(85,335,cs),
(85,457,o),
(175,560,o),
(299,601,c),
(301,596,l),
(218,548,o),
(159,449,o),
(159,335,cs),
(159,220,o),
(218,120,o),
(301,71,c),
(300,67,l)
);
},
{
closed = 1;
nodes = (
(964,136,o),
(937,71,o),
(914,71,cs),
(904,71,o),
(899,85,o),
(899,149,cs),
(899,346,l),
(964,346,l),
(964,215,ls)
);
},
{
closed = 1;
nodes = (
(783,861,o),
(722,913,o),
(645,913,cs),
(570,913,o),
(509,861,o),
(509,798,cs),
(509,735,o),
(570,685,o),
(645,685,cs),
(722,685,o),
(783,735,o),
(783,798,c,{
name = hr00;
})
);
},
{
closed = 1;
nodes = (
(571,767,o),
(582,739,o),
(598,720,c),
(596,717,l),
(561,733,o),
(536,765,o),
(536,798,cs),
(536,831,o),
(561,863,o),
(596,879,c),
(598,876,l),
(582,857,o),
(571,829,o),
(571,798,c)
);
}
);
};
layerId = master01;
shapes = (
{
ref = G;
},
{
pos = (459,0);
ref = dotaccentcomb.case;
}
);
width = 1372;
}
);
unicode = 288;
},
{
glyphname = H;
lastChange = "2023-02-16 10:29:22 +0000";
layers = (
{
anchors = (
{
name = bottom;
pos = (856,0);
},
{
name = center;
pos = (856,325);
},
{
name = top;
pos = (856,650);
},
{
name = topleft;
pos = (20,650);
}
);
background = {
shapes = (
{
closed = 1;
nodes = (
(1402,71,o),
(1452,43,o),
(1511,43,cs),
(1632,43,l),
(1632,0,l),
(877,0,l),
(877,43,l),
(1009,43,o),
(1012,83,o),
(1012,139,cs),
(1012,274,ls),
(1012,295,o),
(1003,318,o),
(970,318,cs),
(734,318,ls),
(702,318,o),
(692,295,o),
(692,274,cs),
(692,136,ls),
(692,81,o),
(695,43,o),
(827,43,c),
(827,0,l),
(73,0,l),
(73,43,l),
(193,43,ls),
(253,43,o),
(301,71,o),
(301,151,cs),
(301,497,ls),
(301,556,o),
(253,607,o),
(193,607,cs),
(73,607,l),
(73,650,l),
(827,650,l),
(827,607,l),
(717,607,o),
(692,565,o),
(692,508,cs),
(692,371,l),
(1012,371,l),
(1012,508,ls),
(1012,565,o),
(987,607,o),
(877,607,c),
(877,650,l),
(1632,650,l),
(1632,607,l),
(1511,607,ls),
(1452,607,o),
(1402,556,o),
(1402,497,cs),
(1402,151,ls,{
name = hr00;
})
);
},
{
closed = 1;
nodes = (
(369,607,l),
(369,43,l),
(434,43,l),
(434,607,l)
);
},
{
closed = 1;
nodes = (
(1081,607,l),
(1081,43,l),
(1146,43,l),
(1146,607,l)
);
}
);
};
layerId = master01;
shapes = (
{
closed = 1;
nodes = (
(827,0,l),
(827,43,l),
(695,43,o),
(692,81,o),
(692,136,cs),
(692,274,ls),
(692,295,o),
(702,318,o),
(734,318,cs),
(970,318,ls),
(1003,318,o),
(1012,295,o),
(1012,274,cs),
(1012,139,ls),
(1012,83,o),
(1009,43,o),
(877,43,c),
(877,0,l),
(1632,0,l),
(1632,43,l),
(1511,43,ls),
(1452,43,o),
(1402,71,o),
(1402,151,cs,{
name = hr00;
}),
(1402,497,ls),
(1402,556,o),
(1452,607,o),
(1511,607,cs),
(1632,607,l),
(1632,650,l),
(877,650,l),
(877,607,l),
(987,607,o),
(1012,565,o),
(1012,508,cs),
(1012,371,l),
(692,371,l),
(692,508,ls),
(692,565,o),
(717,607,o),
(827,607,c),
(827,650,l),
(73,650,l),
(73,607,l),
(193,607,ls),
(253,607,o),
(301,556,o),
(301,497,cs),
(301,151,ls),
(301,71,o),
(253,43,o),
(193,43,cs),
(73,43,l),
(73,0,l)
);
},
{
closed = 1;
nodes = (
(369,607,l),
(434,607,l),
(434,43,l),
(369,43,l)
);
},
{
closed = 1;
nodes = (
(1081,607,l),
(1146,607,l),
(1146,43,l),
(1081,43,l)
);
}
);
width = 1711;
}
);
unicode = 72;
},
{
glyphname = Hbar;
lastChange = "2023-02-16 10:29:22 +0000";
layers = (
{
background = {
shapes = (
{
closed = 1;
nodes = (
(181,510,l),
(181,438,l),
(339,438,l),
(339,510,l,{
name = hr00;
})
);
},
{
closed = 1;
nodes = (
(662,510,l),
(662,438,l),
(1042,438,l),
(1042,510,l)
);
},
{
closed = 1;
nodes = (
(1364,510,l),
(1364,438,l),
(1522,438,l),
(1522,510,l)
);
},
{
closed = 1;
nodes = (
(1402,71,o),
(1452,43,o),
(1511,43,cs),
(1632,43,l),
(1632,0,l),
(877,0,l),
(877,43,l),
(1009,43,o),
(1012,83,o),
(1012,139,cs),
(1012,274,ls),
(1012,295,o),
(1003,318,o),
(970,318,cs),
(734,318,ls),
(702,318,o),
(692,295,o),
(692,274,cs),
(692,136,ls),
(692,81,o),
(695,43,o),
(827,43,c),
(827,0,l),
(73,0,l),
(73,43,l),
(193,43,ls),
(253,43,o),
(301,71,o),
(301,151,cs),
(301,497,ls),
(301,556,o),
(253,607,o),
(193,607,cs),
(73,607,l),
(73,650,l),
(827,650,l),
(827,607,l),
(717,607,o),
(692,565,o),
(692,508,cs),
(692,371,l),
(1012,371,l),
(1012,508,ls),
(1012,565,o),
(987,607,o),
(877,607,c),
(877,650,l),
(1632,650,l),
(1632,607,l),
(1511,607,ls),
(1452,607,o),
(1402,556,o),
(1402,497,cs),
(1402,151,ls,{
name = hr00;
})
);
},
{
closed = 1;
nodes = (
(369,607,l),
(369,43,l),
(434,43,l),
(434,607,l)
);
},
{
closed = 1;
nodes = (
(1081,607,l),
(1081,43,l),
(1146,43,l),
(1146,607,l)
);
}
);
};
layerId = master01;
shapes = (
{
closed = 1;
nodes = (
(1042,438,l),
(1042,510,l),
(662,510,l),
(662,438,l)
);
},
{
closed = 1;
nodes = (
(339,438,l),
(339,510,l,{
name = hr00;
}),
(181,510,l),
(181,438,l)
);
},
{
ref = H;
},
{
closed = 1;
nodes = (
(1522,438,l),
(1522,510,l),
(1364,510,l),
(1364,438,l)
);
}
);
width = 1711;
}
);
unicode = 294;
},
{
glyphname = Hcircumflex;
lastChange = "2023-02-16 09:44:17 +0000";
layers = (
{
background = {
shapes = (
{
closed = 1;
nodes = (
(1402,71,o),
(1452,43,o),
(1511,43,cs),
(1632,43,l),
(1632,0,l),
(877,0,l),
(877,43,l),
(1009,43,o),
(1012,83,o),
(1012,139,cs),
(1012,274,ls),
(1012,295,o),
(1003,318,o),
(970,318,cs),
(734,318,ls),
(702,318,o),
(692,295,o),
(692,274,cs),
(692,136,ls),
(692,81,o),
(695,43,o),
(827,43,c),
(827,0,l),
(73,0,l),
(73,43,l),
(193,43,ls),
(253,43,o),
(301,71,o),
(301,151,cs),
(301,497,ls),
(301,556,o),
(253,607,o),
(193,607,cs),
(73,607,l),
(73,650,l),
(827,650,l),
(827,607,l),
(717,607,o),
(692,565,o),
(692,508,cs),
(692,371,l),
(1012,371,l),
(1012,508,ls),
(1012,565,o),
(987,607,o),
(877,607,c),
(877,650,l),
(1632,650,l),
(1632,607,l),
(1511,607,ls),
(1452,607,o),
(1402,556,o),
(1402,497,cs),
(1402,151,ls,{
name = hr00;
})
);
},
{
closed = 1;
nodes = (
(369,607,l),
(369,43,l),
(434,43,l),
(434,607,l)
);
},
{
closed = 1;
nodes = (
(1081,607,l),
(1081,43,l),
(1146,43,l),
(1146,607,l)
);
},
{
closed = 1;
nodes = (
(560,716,l),
(857,716,l),
(961,828,l),
(1064,716,l),
(1151,716,l),
(1018,862,l),
(694,862,l,{
name = hr00;
})
);
},
{
closed = 1;
nodes = (
(733,754,l),
(671,754,l),
(746,837,l),
(808,837,l)
);
}
);
};
layerId = master01;
shapes = (
{
ref = H;
},
{
pos = (510,0);
ref = circumflexcomb.case;
}
);
width = 1711;
}
);
unicode = 292;
},
{
glyphname = I;
lastChange = "2023-02-16 10:29:22 +0000";
layers = (
{
anchors = (
{
name = bottom;
pos = (502,0);
},
{
name = ogonek;
pos = (744,22);
},
{
name = top;
pos = (502,650);
},
{
name = topleft;
pos = (20,650);
}
);
background = {
shapes = (
{
closed = 1;
nodes = (
(694,556,o),
(743,607,o),
(803,607,cs),
(924,607,l),
(924,650,l),
(73,650,l),
(73,607,l),
(195,607,ls),
(255,607,o),
(304,556,o),
(304,497,cs),
(304,151,ls),
(304,71,o),
(255,43,o),
(195,43,cs),
(73,43,l),
(73,0,l),
(924,0,l),
(924,43,l),
(803,43,ls),
(743,43,o),
(694,71,o),
(694,151,cs),
(694,497,ls,{
name = hr00;
})
);
},
{
closed = 1;
nodes = (
(371,43,l),
(371,607,l),
(436,607,l),
(436,43,l)
);
}
);
};
layerId = master01;
shapes = (
{
closed = 1;
nodes = (
(924,0,l),
(924,43,l),
(803,43,ls),
(743,43,o),
(694,71,o),
(694,151,cs),
(694,497,ls,{
name = hr00;
}),
(694,556,o),
(743,607,o),
(803,607,cs),
(924,607,l),
(924,650,l),
(73,650,l),
(73,607,l),
(195,607,ls),
(255,607,o),
(304,556,o),
(304,497,cs),
(304,151,ls),
(304,71,o),
(255,43,o),
(195,43,cs),
(73,43,l),
(73,0,l)
);
},
{
closed = 1;
nodes = (
(371,607,l),
(436,607,l),
(436,43,l),
(371,43,l)
);
}
);
width = 1003;
}
);
unicode = 73;
},
{
glyphname = IJ;
lastChange = "2023-02-16 09:44:17 +0000";
layers = (
{
background = {
shapes = (
{
closed = 1;
nodes = (
(694,556,o),
(743,607,o),
(803,607,cs),
(924,607,l),
(924,650,l),
(73,650,l),
(73,607,l),
(195,607,ls),
(255,607,o),
(304,556,o),
(304,497,cs),
(304,151,ls),
(304,71,o),
(255,43,o),
(195,43,cs),
(73,43,l),
(73,0,l),
(924,0,l),
(924,43,l),
(803,43,ls),
(743,43,o),
(694,71,o),
(694,151,cs),
(694,497,ls,{
name = hr00;
})
);
},
{
closed = 1;
nodes = (
(371,43,l),
(371,607,l),
(436,607,l),
(436,43,l)
);
},
{
closed = 1;
nodes = (
(1611,109,o),
(1574,75,o),
(1547,64,c),
(1547,607,l),
(1611,607,l),
(1611,208,l)
);
},
{
closed = 1;
nodes = (
(1250,607,l),
(1371,607,ls),
(1440,607,o),
(1480,556,o),
(1480,497,cs),
(1480,129,ls),
(1480,49,o),
(1430,21,o),
(1371,21,cs),
(1144,21,o),
(1038,262,o),
(1038,262,c),
(989,262,l),
(989,0,l),
(1038,0,l),
(1038,51,l),
(1084,33,o),
(1237,-22,o),
(1437,-22,cs,{
name = hr01;
}),
(1776,-22,o),
(1870,60,o),
(1870,196,cs),
(1870,497,ls),
(1870,556,o),
(1909,607,o),
(1979,607,cs),
(2078,607,l),
(2078,650,l),
(1250,650,l)
);
}
);
};
layerId = master01;
shapes = (
{
ref = I;
},
{
pos = (1003,0);
ref = J;
}
);
width = 2091;
}
);
unicode = 306;
},
{
glyphname = Iacute;
lastChange = "2023-02-16 09:44:17 +0000";
layers = (
{
background = {
shapes = (
{
closed = 1;
nodes = (
(694,556,o),
(743,607,o),
(803,607,cs),
(924,607,l),
(924,650,l),
(73,650,l),
(73,607,l),
(195,607,ls),
(255,607,o),
(304,556,o),
(304,497,cs),
(304,151,ls),
(304,71,o),
(255,43,o),
(195,43,cs),
(73,43,l),
(73,0,l),
(924,0,l),
(924,43,l),
(803,43,ls),
(743,43,o),
(694,71,o),
(694,151,cs),
(694,497,ls,{
name = hr00;
})
);
},
{
closed = 1;
nodes = (
(371,43,l),
(371,607,l),
(436,607,l),
(436,43,l)
);
},
{
closed = 1;
nodes = (
(752,763,o),
(776,862,o),
(776,862,c),
(485,862,l),
(435,792,o),
(382,752,o),
(226,752,c),
(226,716,l,{
name = hr01;
}),
(280,716,ls),
(367,716,o),
(550,716,o),
(628,734,c)
);
},
{
closed = 1;
nodes = (
(454,769,o),
(507,797,o),
(525,834,c),
(589,834,l),
(572,809,o),
(528,760,o),
(424,755,c),
(424,759,l)
);
}
);
};
layerId = master01;
shapes = (
{
ref = I;
},
{
pos = (177,0);
ref = acutecomb.case;
}
);
width = 1003;
}
);
unicode = 205;
},
{
glyphname = Ibreve;
lastChange = "2023-02-16 09:44:17 +0000";
layers = (
{
background = {
shapes = (
{
closed = 1;
nodes = (
(694,556,o),
(743,607,o),
(803,607,cs),
(924,607,l),
(924,650,l),
(73,650,l),
(73,607,l),
(195,607,ls),
(255,607,o),
(304,556,o),
(304,497,cs),
(304,151,ls),
(304,71,o),
(255,43,o),
(195,43,cs),
(73,43,l),
(73,0,l),
(924,0,l),
(924,43,l),
(803,43,ls),
(743,43,o),
(694,71,o),
(694,151,cs),
(694,497,ls,{
name = hr00;
})
);
},
{
closed = 1;
nodes = (
(371,43,l),
(371,607,l),
(436,607,l),
(436,43,l)
);
},
{
closed = 1;
nodes = (
(421,818,o),
(368,846,o),
(327,879,c),
(306,873,l),
(306,768,o),
(395,683,o),
(502,683,cs),
(611,683,o),
(696,768,o),
(696,873,c),
(676,879,l),
(636,846,o),
(584,818,o),
(502,818,cs)
);
},
{
closed = 1;
nodes = (
(556,755,o),
(604,773,o),
(636,797,c),
(641,794,l),
(614,746,o),
(560,715,o),
(502,715,cs),
(445,715,o),
(391,746,o),
(364,794,c),
(369,797,l),
(401,773,o),
(451,755,o),
(502,755,cs,{
name = hr01;
})
);
}
);
};
layerId = master01;
shapes = (
{
ref = I;
},
{
pos = (257,0);
ref = brevecomb.case;
}
);
width = 1003;
}
);
unicode = 300;
},
{
glyphname = Icircumflex;
lastChange = "2023-02-16 09:44:17 +0000";
layers = (
{
background = {
shapes = (
{
closed = 1;
nodes = (
(694,556,o),
(743,607,o),
(803,607,cs),
(924,607,l),
(924,650,l),
(73,650,l),
(73,607,l),
(195,607,ls),
(255,607,o),
(304,556,o),
(304,497,cs),
(304,151,ls),
(304,71,o),
(255,43,o),
(195,43,cs),
(73,43,l),
(73,0,l),
(924,0,l),
(924,43,l),
(803,43,ls),
(743,43,o),
(694,71,o),
(694,151,cs),
(694,497,ls,{
name = hr00;
})
);
},
{
closed = 1;
nodes = (
(371,43,l),
(371,607,l),
(436,607,l),
(436,43,l)
);
},
{
closed = 1;
nodes = (
(206,716,l),
(503,716,l),
(607,828,l),
(710,716,l),
(797,716,l),
(664,862,l),
(340,862,l)
);
},
{
closed = 1;
nodes = (
(379,754,l),
(317,754,l),
(392,837,l),
(454,837,l,{
name = hr01;
})
);
}
);
};
layerId = master01;
shapes = (
{
ref = I;
},
{
pos = (156,0);
ref = circumflexcomb.case;
}
);
width = 1003;
}
);
unicode = 206;
},
{
glyphname = Idieresis;
lastChange = "2023-02-16 09:44:17 +0000";
layers = (
{
background = {
shapes = (
{
closed = 1;
nodes = (
(694,556,o),
(743,607,o),
(803,607,cs),
(924,607,l),
(924,650,l),
(73,650,l),
(73,607,l),
(195,607,ls),
(255,607,o),
(304,556,o),
(304,497,cs),
(304,151,ls),
(304,71,o),
(255,43,o),
(195,43,cs),
(73,43,l),
(73,0,l),
(924,0,l),
(924,43,l),
(803,43,ls),
(743,43,o),
(694,71,o),
(694,151,cs),
(694,497,ls,{
name = hr00;
})
);
},
{
closed = 1;
nodes = (
(371,43,l),
(371,607,l),
(436,607,l),
(436,43,l)
);
},
{
closed = 1;
nodes = (
(866,861,o),
(805,913,o),
(728,913,cs),
(653,913,o),
(592,861,o),
(592,798,cs),
(592,735,o),
(653,685,o),
(728,685,cs),
(805,685,o),
(866,735,o),
(866,798,c,{
name = hr00;
})
);
},
{
closed = 1;
nodes = (
(410,861,o),
(349,913,o),
(272,913,cs),
(197,913,o),
(136,861,o),
(136,798,cs),
(136,735,o),
(197,685,o),
(272,685,cs),
(349,685,o),
(410,735,o),
(410,798,c)
);
},
{
closed = 1;
nodes = (
(214,762,o),
(226,732,o),
(245,711,c),
(242,708,l),
(202,725,o),
(173,760,o),
(173,798,cs),
(173,836,o),
(202,871,o),
(242,888,c),
(245,885,l),
(226,864,o),
(214,834,o),
(214,798,c)
);
},
{
closed = 1;
nodes = (
(670,762,o),
(682,732,o),
(701,711,c),
(698,708,l),
(658,725,o),
(629,760,o),
(629,798,cs),
(629,836,o),
(658,871,o),
(698,888,c),
(701,885,l),
(682,864,o),
(670,834,o),
(670,798,cs)
);
}
);
};
layerId = master01;
shapes = (
{
ref = I;
},
{
pos = (60,0);
ref = dieresiscomb.case;
}
);
width = 1003;
}
);
unicode = 207;
},
{
glyphname = Idotaccent;
lastChange = "2023-02-16 09:44:17 +0000";
layers = (
{
background = {
shapes = (
{
closed = 1;
nodes = (
(694,556,o),
(743,607,o),
(803,607,cs),
(924,607,l),
(924,650,l),
(73,650,l),
(73,607,l),
(195,607,ls),
(255,607,o),
(304,556,o),
(304,497,cs),
(304,151,ls),
(304,71,o),
(255,43,o),
(195,43,cs),
(73,43,l),
(73,0,l),
(924,0,l),
(924,43,l),
(803,43,ls),
(743,43,o),
(694,71,o),
(694,151,cs),
(694,497,ls,{
name = hr00;
})
);
},
{
closed = 1;
nodes = (
(371,43,l),
(371,607,l),
(436,607,l),
(436,43,l)
);
},
{
closed = 1;
nodes = (
(638,861,o),
(577,913,o),
(500,913,cs),
(425,913,o),
(364,861,o),
(364,798,cs),
(364,735,o),
(425,685,o),
(500,685,cs),
(577,685,o),
(638,735,o),
(638,798,c,{
name = hr00;
})
);
},
{
closed = 1;
nodes = (
(426,767,o),
(437,739,o),
(453,720,c),
(451,717,l),
(416,733,o),
(391,765,o),
(391,798,cs),
(391,831,o),
(416,863,o),
(451,879,c),
(453,876,l),
(437,857,o),
(426,829,o),
(426,798,c)
);
}
);
};
layerId = master01;
shapes = (
{
ref = I;
},
{
pos = (315,0);
ref = dotaccentcomb.case;
}
);
width = 1003;
}
);
unicode = 304;
},
{
glyphname = Igrave;
lastChange = "2023-02-16 09:44:17 +0000";
layers = (
{
background = {
shapes = (
{
closed = 1;
nodes = (
(694,556,o),
(743,607,o),
(803,607,cs),
(924,607,l),
(924,650,l),
(73,650,l),
(73,607,l),
(195,607,ls),
(255,607,o),
(304,556,o),
(304,497,cs),
(304,151,ls),
(304,71,o),
(255,43,o),
(195,43,cs),
(73,43,l),
(73,0,l),
(924,0,l),
(924,43,l),
(803,43,ls),
(743,43,o),
(694,71,o),
(694,151,cs),
(694,497,ls,{
name = hr00;
})
);
},
{
closed = 1;
nodes = (
(371,43,l),
(371,607,l),
(436,607,l),
(436,43,l)
);
},
{
closed = 1;
nodes = (
(452,716,o),
(635,716,o),
(722,716,cs),
(776,716,l),
(776,752,l,{
name = hr01;
}),
(620,752,o),
(567,792,o),
(517,862,c),
(226,862,l),
(226,862,o),
(250,763,o),
(374,734,cs)
);
},
{
closed = 1;
nodes = (
(360,760,o),
(316,809,o),
(299,834,c),
(363,834,l),
(381,797,o),
(434,769,o),
(464,759,c),
(464,755,l)
);
}
);
};
layerId = master01;
shapes = (
{
ref = I;
},
{
pos = (177,0);
ref = gravecomb.case;
}
);
width = 1003;
}
);
unicode = 204;
},
{
glyphname = Imacron;
lastChange = "2023-02-16 09:44:17 +0000";
layers = (
{
background = {
shapes = (
{
closed = 1;
nodes = (
(694,556,o),
(743,607,o),
(803,607,cs),
(924,607,l),
(924,650,l),
(73,650,l),
(73,607,l),
(195,607,ls),
(255,607,o),
(304,556,o),
(304,497,cs),
(304,151,ls),
(304,71,o),
(255,43,o),
(195,43,cs),
(73,43,l),
(73,0,l),
(924,0,l),
(924,43,l),
(803,43,ls),
(743,43,o),
(694,71,o),
(694,151,cs),
(694,497,ls,{
name = hr00;
})
);
},
{
closed = 1;
nodes = (
(371,43,l),
(371,607,l),
(436,607,l),
(436,43,l)
);
},
{
closed = 1;
nodes = (
(704,722,l),
(704,856,l),
(299,856,l),
(299,722,l)
);
},
{
closed = 1;
nodes = (
(360,742,l),
(360,836,l),
(414,836,l),
(414,742,l,{
name = hr01;
})
);
}
);
};
layerId = master01;
shapes = (
{
ref = I;
},
{
pos = (249,0);
ref = macroncomb.case;
}
);
width = 1003;
}
);
unicode = 298;
},
{
glyphname = Iogonek;
lastChange = "2023-02-16 09:49:30 +0000";
layers = (
{
background = {
shapes = (
{
closed = 1;
nodes = (
(694,556,o),
(743,607,o),
(803,607,cs),
(924,607,l),
(924,650,l),
(73,650,l),
(73,607,l),
(195,607,ls),
(255,607,o),
(304,556,o),
(304,497,cs),
(304,151,ls),
(304,71,o),
(255,43,o),
(195,43,cs),
(73,43,l),
(73,0,l),
(924,0,l),
(924,43,l),
(803,43,ls),
(743,43,o),
(694,71,o),
(694,151,cs),
(694,497,ls,{
name = hr00;
})
);
},
{
closed = 1;
nodes = (
(371,43,l),
(371,607,l),
(436,607,l),
(436,43,l)
);
},
{
closed = 1;
nodes = (
(705,-80,l),
(684,-133,o),
(619,-176,o),
(566,-176,cs),
(523,-176,o),
(488,-155,o),
(488,-106,cs),
(488,-51,o),
(531,-7,o),
(619,6,c),
(619,22,l),
(449,11,o),
(278,-36,o),
(278,-134,cs),
(278,-213,o),
(403,-224,o),
(511,-224,cs),
(606,-224,o),
(693,-208,o),
(744,-189,c),
(744,-80,l,{
name = hr00;
})
);
},
{
closed = 1;
nodes = (
(382,-62,o),
(368,-88,o),
(368,-119,cs),
(368,-148,o),
(394,-184,o),
(422,-196,c),
(420,-201,l),
(355,-193,o),
(318,-161,o),
(318,-124,cs),
(318,-84,o),
(358,-55,o),
(410,-39,c),
(413,-44,l)
);
}
);
};
layerId = master01;
shapes = (
{
ref = I;
},
{
pos = (228,0);
ref = ogonekcomb;
}
);
width = 1003;
}
);
unicode = 302;
},
{
glyphname = Itilde;
lastChange = "2023-02-16 09:44:17 +0000";
layers = (
{
background = {
shapes = (
{
closed = 1;
nodes = (
(694,556,o),
(743,607,o),
(803,607,cs),
(924,607,l),
(924,650,l),
(73,650,l),
(73,607,l),
(195,607,ls),
(255,607,o),
(304,556,o),
(304,497,cs),
(304,151,ls),
(304,71,o),
(255,43,o),
(195,43,cs),
(73,43,l),
(73,0,l),
(924,0,l),
(924,43,l),
(803,43,ls),
(743,43,o),
(694,71,o),
(694,151,cs),
(694,497,ls,{
name = hr00;
})
);
},
{
closed = 1;
nodes = (
(371,43,l),
(371,607,l),
(436,607,l),
(436,43,l)
);
},
{
closed = 1;
nodes = (
(716,757,o),
(662,739,o),
(616,739,cs),
(476,739,o),
(383,789,o),
(299,789,cs),
(285,789,o),
(271,787,o),
(257,784,c),
(254,788,l),
(272,804,o),
(297,818,o),
(334,818,cs),
(444,818,o),
(488,774,o),
(644,774,cs,{
name = hr01;
}),
(673,774,o),
(719,780,o),
(747,789,c,{
name = hr02;
}),
(749,785,l)
);
},
{
closed = 1;
nodes = (
(774,856,o),
(753,843,o),
(709,843,cs,{
name = hr03;
}),
(603,843,o),
(558,879,o),
(408,879,cs,{
name = hr04;
}),
(260,879,o),
(186,767,o),
(182,717,c),
(210,717,l),
(219,739,o),
(243,754,o),
(272,754,cs,{
name = hr05;
}),
(402,754,o),
(452,705,o),
(609,705,cs,{
name = hr06;
}),
(748,705,o),
(815,825,o),
(820,878,c),
(787,878,l)
);
}
);
};
layerId = master01;
shapes = (
{
ref = I;
},
{
pos = (133,0);
ref = tildecomb.case;
}
);
width = 1003;
}
);
unicode = 296;
},
{
glyphname = J;
lastChange = "2023-02-16 10:29:22 +0000";
layers = (
{
anchors = (
{
name = bottom;
pos = (544,0);
},
{
name = top;
pos = (664,650);
}
);
background = {
shapes = (
{
closed = 1;
nodes = (
(608,109,o),
(571,75,o),
(544,64,c),
(544,607,l),
(608,607,l),
(608,208,l)
);
},
{
closed = 1;
nodes = (
(247,607,l),
(368,607,ls),
(437,607,o),
(477,556,o),
(477,497,cs),
(477,129,ls),
(477,49,o),
(427,21,o),
(368,21,cs),
(141,21,o),
(35,262,o),
(35,262,c),
(-14,262,l),
(-14,0,l),
(35,0,l),
(35,51,l),
(81,33,o),
(234,-22,o),
(434,-22,cs,{
name = hr01;
}),
(773,-22,o),
(867,60,o),
(867,196,cs),
(867,497,ls),
(867,556,o),
(906,607,o),
(976,607,cs),
(1075,607,l),
(1075,650,l),
(247,650,l)
);
}
);
};
layerId = master01;
shapes = (
{
closed = 1;
nodes = (
(773,-22,o),
(867,60,o),
(867,196,cs),
(867,497,ls),
(867,556,o),
(906,607,o),
(976,607,cs),
(1075,607,l),
(1075,650,l),
(247,650,l),
(247,607,l),
(368,607,ls),
(437,607,o),
(477,556,o),
(477,497,cs),
(477,129,ls),
(477,49,o),
(427,21,o),
(368,21,cs),
(141,21,o),
(35,262,o),
(35,262,c),
(-14,262,l),
(-14,0,l),
(35,0,l),
(35,51,l),
(81,33,o),
(234,-22,o),
(434,-22,cs,{
name = hr01;
})
);
},
{
closed = 1;
nodes = (
(544,607,l),
(608,607,l),
(608,208,l),
(608,109,o),
(571,75,o),
(544,64,c)
);
}
);
width = 1088;
}
);
unicode = 74;
},
{
glyphname = Jcircumflex;
lastChange = "2023-02-16 09:49:38 +0000";
layers = (
{
background = {
shapes = (
{
closed = 1;
nodes = (
(608,109,o),
(571,75,o),
(544,64,c),
(544,607,l),
(608,607,l),
(608,208,l)
);
},
{
closed = 1;
nodes = (
(247,607,l),
(368,607,ls),
(437,607,o),
(477,556,o),
(477,497,cs),
(477,129,ls),
(477,49,o),
(427,21,o),
(368,21,cs),
(141,21,o),
(35,262,o),
(35,262,c),
(-14,262,l),
(-14,0,l),
(35,0,l),
(35,51,l),
(81,33,o),
(234,-22,o),
(434,-22,cs,{
name = hr01;
}),
(773,-22,o),
(867,60,o),
(867,196,cs),
(867,497,ls),
(867,556,o),
(906,607,o),
(976,607,cs),
(1075,607,l),
(1075,650,l),
(247,650,l)
);
},
{
closed = 1;
nodes = (
(368,716,l),
(665,716,l),
(769,828,l),
(872,716,l),
(959,716,l),
(826,862,l),
(502,862,l,{
name = hr00;
})
);
},
{
closed = 1;
nodes = (
(541,754,l),
(479,754,l),
(554,837,l),
(616,837,l)
);
}
);
};
layerId = master01;
shapes = (
{
ref = J;
},
{
pos = (318,0);
ref = circumflexcomb.case;
}
);
width = 1088;
}
);
unicode = 308;
},
{
glyphname = K;
kernRight = K;
lastChange = "2023-02-16 10:29:22 +0000";
layers = (
{
anchors = (
{
name = bottom;
pos = (848,0);
},
{
name = top;
pos = (828,650);
}
);
background = {
shapes = (
{
closed = 1;
nodes = (
(369,43,l),
(369,607,l),
(434,607,l),
(434,43,l,{
name = hr00;
})
);
},
{
closed = 1;
nodes = (
(1126,43,l),
(875,324,l),
(962,324,l),
(1213,43,l)
);
},
{
closed = 1;
nodes = (
(873,43,l),
(801,43,ls),
(741,43,o),
(692,72,o),
(692,151,cs),
(692,252,ls),
(692,273,o),
(701,296,o),
(734,296,cs),
(813,296,l),
(1077,0,l),
(1633,0,l),
(1633,43,l),
(1499,43,l),
(1201,397,ls),
(1190,410,o),
(1186,422,o),
(1186,433,cs),
(1186,453,o),
(1201,469,o),
(1216,478,cs),
(1240,492,o),
(1443,607,o),
(1526,607,cs),
(1609,607,o),
(1633,607,o),
(1633,607,c),
(1633,650,l),
(1041,650,l),
(1041,607,l),
(1143,607,o),
(1181,599,o),
(1181,563,cs),
(1181,527,o),
(1145,498,o),
(1061,460,cs),
(864,371,ls),
(829,355,o),
(806,345,o),
(770,345,cs),
(750,345,ls),
(700,345,o),
(692,376,o),
(692,403,cs),
(692,509,ls),
(692,566,o),
(734,607,o),
(804,607,cs),
(915,607,l),
(915,650,l),
(73,650,l),
(73,607,l),
(193,607,ls),
(253,607,o),
(301,557,o),
(301,498,cs),
(301,151,ls),
(301,72,o),
(253,43,o),
(193,43,cs),
(73,43,l),
(73,0,l),
(873,0,l)
);
}
);
};
layerId = master01;
shapes = (
{
closed = 1;
nodes = (
(873,0,l),
(873,43,l),
(801,43,ls),
(741,43,o),
(692,72,o),
(692,151,cs),
(692,252,ls),
(692,273,o),
(701,296,o),
(734,296,cs),
(813,296,l),
(1077,0,l),
(1633,0,l),
(1633,43,l),
(1499,43,l),
(1201,397,ls),
(1190,410,o),
(1186,422,o),
(1186,433,cs),
(1186,453,o),
(1201,469,o),
(1216,478,cs),
(1240,492,o),
(1443,607,o),
(1526,607,cs),
(1609,607,o),
(1633,607,o),
(1633,607,c),
(1633,650,l),
(1041,650,l),
(1041,607,l),
(1143,607,o),
(1181,599,o),
(1181,563,cs),
(1181,527,o),
(1145,498,o),
(1061,460,cs),
(864,371,ls),
(829,355,o),
(806,345,o),
(770,345,cs),
(750,345,ls),
(700,345,o),
(692,376,o),
(692,403,cs),
(692,509,ls),
(692,566,o),
(734,607,o),
(804,607,cs),
(915,607,l),
(915,650,l),
(73,650,l),
(73,607,l),
(193,607,ls),
(253,607,o),
(301,557,o),
(301,498,cs),
(301,151,ls),
(301,72,o),
(253,43,o),
(193,43,cs),
(73,43,l),
(73,0,l)
);
},
{
closed = 1;
nodes = (
(369,607,l),
(434,607,l),
(434,43,l,{
name = hr00;
}),
(369,43,l)
);
},
{
closed = 1;
nodes = (
(875,324,l),
(962,324,l),
(1213,43,l),
(1126,43,l)
);
}
);
width = 1655;
}
);
unicode = 75;
},
{
glyphname = Kcommaaccent;
lastChange = "2023-02-16 09:49:46 +0000";
layers = (
{
background = {
shapes = (
{
closed = 1;
nodes = (
(369,43,l),
(369,607,l),
(434,607,l),
(434,43,l,{
name = hr00;
})
);
},
{
closed = 1;
nodes = (
(1126,43,l),
(875,324,l),
(962,324,l),
(1213,43,l)
);
},
{
closed = 1;
nodes = (
(873,43,l),
(801,43,ls),
(741,43,o),
(692,72,o),
(692,151,cs),
(692,252,ls),
(692,273,o),
(701,296,o),
(734,296,cs),
(813,296,l),
(1077,0,l),
(1633,0,l),
(1633,43,l),
(1499,43,l),
(1201,397,ls),
(1190,410,o),
(1186,422,o),
(1186,433,cs),
(1186,453,o),
(1201,469,o),
(1216,478,cs),
(1240,492,o),
(1443,607,o),
(1526,607,cs),
(1609,607,o),
(1633,607,o),
(1633,607,c),
(1633,650,l),
(1041,650,l),
(1041,607,l),
(1143,607,o),
(1181,599,o),
(1181,563,cs),
(1181,527,o),
(1145,498,o),
(1061,460,cs),
(864,371,ls),
(829,355,o),
(806,345,o),
(770,345,cs),
(750,345,ls),
(700,345,o),
(692,376,o),
(692,403,cs),
(692,509,ls),
(692,566,o),
(734,607,o),
(804,607,cs),
(915,607,l),
(915,650,l),
(73,650,l),
(73,607,l),
(193,607,ls),
(253,607,o),
(301,557,o),
(301,498,cs),
(301,151,ls),
(301,72,o),
(253,43,o),
(193,43,cs),
(73,43,l),
(73,0,l),
(873,0,l)
);
},
{
closed = 1;
nodes = (
(785,-203,o),
(796,-231,o),
(812,-250,c),
(810,-253,l),
(775,-237,o),
(750,-205,o),
(750,-172,cs),
(750,-139,o),
(775,-107,o),
(810,-91,c),
(812,-94,l),
(796,-113,o),
(785,-141,o),
(785,-172,c,{
name = hr00;
})
);
},
{
closed = 1;
nodes = (
(710,-235,o),
(771,-287,o),
(848,-287,cs),
(863,-287,o),
(878,-285,o),
(891,-281,c),
(862,-340,o),
(768,-359,o),
(720,-359,c),
(720,-396,l),
(916,-383,o),
(984,-278,o),
(984,-180,cs),
(984,-109,o),
(923,-59,o),
(848,-59,cs),
(771,-59,o),
(710,-109,o),
(710,-172,cs)
);
}
);
};
layerId = master01;
shapes = (
{
ref = K;
},
{
pos = (711,0);
ref = commaaccentcomb;
}
);
width = 1655;
}
);
unicode = 310;
},
{
glyphname = L;
kernRight = L;
lastChange = "2023-02-16 10:29:22 +0000";
layers = (
{
anchors = (
{
name = bottom;
pos = (692,0);
},
{
name = center;
pos = (625,325);
},
{
name = top;
pos = (555,650);
},
{
name = topright;
pos = (912,590);
}
);
background = {
shapes = (
{
closed = 1;
nodes = (
(692,556,o),
(741,607,o),
(801,607,cs),
(968,607,l),
(968,650,l),
(73,650,l),
(73,607,l),
(193,607,ls),
(253,607,o),
(301,556,o),
(301,497,cs),
(301,151,ls),
(301,71,o),
(253,43,o),
(193,43,cs),
(73,43,l),
(73,0,l),
(1236,0,l),
(1236,288,l),
(1202,288,l),
(1059,85,o),
(900,43,o),
(801,43,cs),
(715,43,o),
(692,92,o),
(692,151,cs),
(692,497,ls,{
name = hr00;
})
);
},
{
closed = 1;
nodes = (
(369,43,l),
(369,607,l),
(434,607,l),
(434,43,l)
);
}
);
};
layerId = master01;
shapes = (
{
closed = 1;
nodes = (
(1236,0,l),
(1236,288,l),
(1202,288,l),
(1059,85,o),
(900,43,o),
(801,43,cs),
(715,43,o),
(692,92,o),
(692,151,cs),
(692,497,ls,{
name = hr00;
}),
(692,556,o),
(741,607,o),
(801,607,cs),
(968,607,l),
(968,650,l),
(73,650,l),
(73,607,l),
(193,607,ls),
(253,607,o),
(301,556,o),
(301,497,cs),
(301,151,ls),
(301,71,o),
(253,43,o),
(193,43,cs),
(73,43,l),
(73,0,l)
);
},
{
closed = 1;
nodes = (
(369,607,l),
(434,607,l),
(434,43,l),
(369,43,l)
);
}
);
width = 1249;
}
);
unicode = 76;
},
{
glyphname = Lacute;
kernRight = L;
lastChange = "2023-02-16 09:50:26 +0000";
layers = (
{
background = {
shapes = (
{
closed = 1;
nodes = (
(692,556,o),
(741,607,o),
(801,607,cs),
(968,607,l),
(968,650,l),
(73,650,l),
(73,607,l),
(193,607,ls),
(253,607,o),
(301,556,o),
(301,497,cs),
(301,151,ls),
(301,71,o),
(253,43,o),
(193,43,cs),
(73,43,l),
(73,0,l),
(1236,0,l),
(1236,288,l),
(1202,288,l),
(1059,85,o),
(900,43,o),
(801,43,cs),
(715,43,o),
(692,92,o),
(692,151,cs),
(692,497,ls,{
name = hr00;
})
);
},
{
closed = 1;
nodes = (
(369,43,l),
(369,607,l),
(434,607,l),
(434,43,l)
);
},
{
closed = 1;
nodes = (
(805,763,o),
(829,862,o),
(829,862,c),
(538,862,l),
(488,792,o),
(435,752,o),
(279,752,c),
(279,716,l),
(333,716,ls),
(420,716,o),
(603,716,o),
(681,734,c,{
name = hr00;
})
);
},
{
closed = 1;
nodes = (
(507,769,o),
(560,797,o),
(578,834,c),
(642,834,l),
(625,809,o),
(581,760,o),
(477,755,c),
(477,759,l)
);
}
);
};
layerId = master01;
shapes = (
{
ref = L;
},
{
pos = (230,0);
ref = acutecomb.case;
}
);
width = 1249;
}
);
unicode = 313;
},
{
glyphname = Lcaron;
kernRight = L;
lastChange = "2023-02-16 09:46:06 +0000";
layers = (
{
background = {
shapes = (
{
closed = 1;
nodes = (
(692,556,o),
(741,607,o),
(801,607,c),
(801,650,l),
(73,650,l),
(73,607,l),
(193,607,ls),
(253,607,o),
(301,556,o),
(301,497,cs),
(301,151,ls),
(301,71,o),
(253,43,o),
(193,43,cs),
(73,43,l),
(73,0,l),
(1236,0,l),
(1236,288,l),
(1202,288,l),
(1059,85,o),
(900,43,o),
(801,43,cs),
(715,43,o),
(692,92,o),
(692,151,cs),
(692,497,ls,{
name = hr00;
})
);
},
{
closed = 1;
nodes = (
(369,43,l),
(369,607,l),
(434,607,l),
(434,43,l)
);
},
{
closed = 1;
nodes = (
(917,801,o),
(928,773,o),
(944,754,c),
(942,751,l),
(907,767,o),
(882,799,o),
(882,832,cs),
(882,865,o),
(907,897,o),
(942,913,c),
(944,910,l),
(928,891,o),
(917,863,o),
(917,832,c,{
name = hr00;
})
);
},
{
closed = 1;
nodes = (
(842,769,o),
(903,717,o),
(980,717,cs),
(995,717,o),
(1010,719,o),
(1023,723,c),
(994,664,o),
(900,645,o),
(852,645,c),
(852,608,l),
(1048,621,o),
(1116,726,o),
(1116,824,cs),
(1116,895,o),
(1055,945,o),
(980,945,cs),
(903,945,o),
(842,895,o),
(842,832,cs)
);
}
);
};
layerId = master01;
shapes = (
{
ref = L;
},
{
pos = (890,-340);
ref = caroncomb.alt;
}
);
width = 1249;
}
);
unicode = 317;
},
{
glyphname = Lcommaaccent;
lastChange = "2023-02-16 09:50:21 +0000";
layers = (
{
background = {
shapes = (
{
closed = 1;
nodes = (
(692,556,o),
(741,607,o),
(801,607,cs),
(968,607,l),
(968,650,l),
(73,650,l),
(73,607,l),
(193,607,ls),
(253,607,o),
(301,556,o),
(301,497,cs),
(301,151,ls),
(301,71,o),
(253,43,o),
(193,43,cs),
(73,43,l),
(73,0,l),
(1236,0,l),
(1236,288,l),
(1202,288,l),
(1059,85,o),
(900,43,o),
(801,43,cs),
(715,43,o),
(692,92,o),
(692,151,cs),
(692,497,ls,{
name = hr00;
})
);
},
{
closed = 1;
nodes = (
(369,43,l),
(369,607,l),
(434,607,l),
(434,43,l)
);
},
{
closed = 1;
nodes = (
(630,-203,o),
(641,-231,o),
(657,-250,c),
(655,-253,l),
(620,-237,o),
(595,-205,o),
(595,-172,cs),
(595,-139,o),
(620,-107,o),
(655,-91,c),
(657,-94,l),
(641,-113,o),
(630,-141,o),
(630,-172,c,{
name = hr00;
})
);
},
{
closed = 1;
nodes = (
(555,-235,o),
(616,-287,o),
(693,-287,cs),
(708,-287,o),
(723,-285,o),
(736,-281,c),
(707,-340,o),
(613,-359,o),
(565,-359,c),
(565,-396,l),
(761,-383,o),
(829,-278,o),
(829,-180,cs),
(829,-109,o),
(768,-59,o),
(693,-59,cs),
(616,-59,o),
(555,-109,o),
(555,-172,cs)
);
}
);
};
layerId = master01;
shapes = (
{
ref = L;
},
{
pos = (555,0);
ref = commaaccentcomb;
}
);
width = 1249;
}
);
unicode = 315;
},
{
glyphname = Ldot;
kernRight = L;
lastChange = "2023-02-16 09:39:43 +0000";
layers = (
{
background = {
shapes = (
{
closed = 1;
nodes = (
(692,556,o),
(741,607,o),
(801,607,cs),
(968,607,l),
(968,650,l),
(73,650,l),
(73,607,l),
(193,607,ls),
(253,607,o),
(301,556,o),
(301,497,cs),
(301,151,ls),
(301,71,o),
(253,43,o),
(193,43,cs),
(73,43,l),
(73,0,l),
(1236,0,l),
(1236,288,l),
(1202,288,l),
(1059,85,o),
(900,43,o),
(801,43,cs),
(715,43,o),
(692,92,o),
(692,151,cs),
(692,497,ls,{
name = hr00;
})
);
},
{
closed = 1;
nodes = (
(369,43,l),
(369,607,l),
(434,607,l),
(434,43,l)
);
},
{
closed = 1;
nodes = (
(1028,434,o),
(967,486,o),
(890,486,cs),
(815,486,o),
(754,434,o),
(754,371,cs),
(754,308,o),
(815,258,o),
(890,258,cs),
(967,258,o),
(1028,308,o),
(1028,371,c,{
name = hr00;
})
);
},
{
closed = 1;
nodes = (
(816,340,o),
(827,312,o),
(843,293,c),
(841,290,l),
(806,306,o),
(781,338,o),
(781,371,cs),
(781,404,o),
(806,436,o),
(841,452,c),
(843,449,l),
(827,430,o),
(816,402,o),
(816,371,c)
);
}
);
};
layerId = master01;
shapes = (
{
alignment = -1;
ref = L;
},
{
alignment = -1;
pos = (704,-335);
ref = dotaccent;
}
);
width = 1249;
}
);
unicode = 319;
},
{
glyphname = Lslash;
kernRight = L;
lastChange = "2023-02-16 10:29:22 +0000";
layers = (
{
background = {
shapes = (
{
closed = 1;
nodes = (
(510,365,l),
(510,285,l),
(876,403,l),
(876,483,l,{
name = hr00;
})
);
},
{
closed = 1;
nodes = (
(151,249,l),
(151,169,l),
(349,233,l),
(349,313,l)
);
},
{
closed = 1;
nodes = (
(692,556,o),
(741,607,o),
(801,607,cs),
(968,607,l),
(968,650,l),
(73,650,l),
(73,607,l),
(193,607,ls),
(253,607,o),
(301,556,o),
(301,497,cs),
(301,151,ls),
(301,71,o),
(253,43,o),
(193,43,cs),
(73,43,l),
(73,0,l),
(1236,0,l),
(1236,288,l),
(1202,288,l),
(1059,85,o),
(900,43,o),
(801,43,cs),
(715,43,o),
(692,92,o),
(692,151,cs),
(692,497,ls,{
name = hr00;
})
);
},
{
closed = 1;
nodes = (
(369,43,l),
(369,607,l),
(434,607,l),
(434,43,l)
);
}
);
};
layerId = master01;
shapes = (
{
closed = 1;
nodes = (
(876,403,l),
(876,483,l,{
name = hr00;
}),
(510,365,l),
(510,285,l)
);
},
{
closed = 1;
nodes = (
(349,233,l),
(349,313,l),
(151,249,l),
(151,169,l)
);
},
{
ref = L;
}
);
width = 1249;
}
);
unicode = 321;
},
{
glyphname = M;
lastChange = "2023-02-16 10:29:22 +0000";
layers = (
{
anchors = (
{
name = bottom;
pos = (929,0);
},
{
name = top;
pos = (929,650);
}
);
background = {
shapes = (
{
closed = 1;
nodes = (
(1291,607,l),
(1291,43,l),
(1226,43,l),
(1226,607,l,{
name = hr00;
})
);
},
{
closed = 1;
nodes = (
(1825,650,l),
(1144,650,l),
(976,389,l),
(669,650,l),
(22,650,l),
(22,607,l),
(187,607,o),
(350,519,o),
(350,382,cs),
(350,277,ls),
(350,105,o),
(168,43,o),
(35,43,c),
(35,0,l),
(730,0,l),
(730,43,l),
(597,43,o),
(415,105,o),
(415,277,cs),
(415,411,l),
(801,85,l),
(853,85,l),
(1159,559,l),
(1159,151,ls),
(1159,71,o),
(1110,43,o),
(1050,43,cs),
(930,43,l),
(930,0,l),
(1825,0,l),
(1825,43,l),
(1658,43,ls),
(1598,43,o),
(1549,71,o),
(1549,151,cs),
(1549,526,ls),
(1549,585,o),
(1598,607,o),
(1658,607,cs),
(1825,607,l)
);
},
{
closed = 1;
nodes = (
(811,169,l),
(296,605,l),
(396,605,l),
(836,232,l),
(836,169,l)
);
}
);
};
layerId = master01;
shapes = (
{
closed = 1;
nodes = (
(730,0,l),
(730,43,l),
(597,43,o),
(415,105,o),
(415,277,cs),
(415,411,l),
(801,85,l),
(853,85,l),
(1159,559,l),
(1159,151,ls),
(1159,71,o),
(1110,43,o),
(1050,43,cs),
(930,43,l),
(930,0,l),
(1825,0,l),
(1825,43,l),
(1658,43,ls),
(1598,43,o),
(1549,71,o),
(1549,151,cs),
(1549,526,ls),
(1549,585,o),
(1598,607,o),
(1658,607,cs),
(1825,607,l),
(1825,650,l),
(1144,650,l),
(976,389,l),
(669,650,l),
(22,650,l),
(22,607,l),
(187,607,o),
(350,519,o),
(350,382,cs),
(350,277,ls),
(350,105,o),
(168,43,o),
(35,43,c),
(35,0,l)
);
},
{
closed = 1;
nodes = (
(296,605,l),
(396,605,l),
(836,232,l),
(836,169,l),
(811,169,l)
);
},
{
closed = 1;
nodes = (
(1226,607,l,{
name = hr00;
}),
(1291,607,l),
(1291,43,l),
(1226,43,l)
);
}
);
width = 1858;
}
);
unicode = 77;
},
{
glyphname = N;
lastChange = "2023-02-16 10:29:22 +0000";
layers = (
{
anchors = (
{
name = bottom;
pos = (772,0);
},
{
name = top;
pos = (772,650);
}
);
background = {
shapes = (
{
closed = 1;
nodes = (
(1009,607,l),
(1108,607,o),
(1237,583,o),
(1237,410,cs),
(1237,387,o),
(1222,383,o),
(1214,383,cs),
(1196,383,o),
(1120,431,o),
(1120,431,cs),
(772,650,l),
(23,650,l),
(23,607,l),
(187,607,o),
(350,519,o),
(350,382,cs),
(350,277,ls),
(350,104,o),
(168,43,o),
(35,43,c),
(35,0,l),
(730,0,l),
(730,43,l),
(597,43,o),
(415,104,o),
(415,277,cs),
(415,323,ls),
(415,379,o),
(440,393,o),
(465,393,cs),
(490,393,o),
(515,379,o),
(515,379,cs),
(1211,-42,l),
(1301,-42,l),
(1301,410,ls),
(1301,583,o),
(1430,607,o),
(1529,607,c),
(1529,650,l),
(1009,650,l,{
name = hr00;
})
);
},
{
closed = 1;
nodes = (
(356,552,l),
(356,607,l),
(383,607,l),
(1211,107,l),
(1211,35,l)
);
}
);
};
layerId = master01;
shapes = (
{
closed = 1;
nodes = (
(1301,-42,l),
(1301,410,ls),
(1301,583,o),
(1430,607,o),
(1529,607,c),
(1529,650,l),
(1009,650,l,{
name = hr00;
}),
(1009,607,l),
(1108,607,o),
(1237,583,o),
(1237,410,cs),
(1237,387,o),
(1222,383,o),
(1214,383,cs),
(1196,383,o),
(1120,431,o),
(1120,431,cs),
(772,650,l),
(23,650,l),
(23,607,l),
(187,607,o),
(350,519,o),
(350,382,cs),
(350,277,ls),
(350,104,o),
(168,43,o),
(35,43,c),
(35,0,l),
(730,0,l),
(730,43,l),
(597,43,o),
(415,104,o),
(415,277,cs),
(415,323,ls),
(415,379,o),
(440,393,o),
(465,393,cs),
(490,393,o),
(515,379,o),
(515,379,cs),
(1211,-42,l)
);
},
{
closed = 1;
nodes = (
(356,552,l),
(356,607,l),
(383,607,l),
(1211,107,l),
(1211,35,l)
);
}
);
width = 1544;
}
);
unicode = 78;
},
{
glyphname = Nacute;
lastChange = "2023-02-16 09:44:17 +0000";
layers = (
{
background = {
shapes = (
{
closed = 1;
nodes = (
(1009,607,l),
(1108,607,o),
(1237,583,o),
(1237,410,cs),
(1237,387,o),
(1222,383,o),
(1214,383,cs),
(1196,383,o),
(1120,431,o),
(1120,431,cs),
(772,650,l),
(23,650,l),
(23,607,l),
(187,607,o),
(350,519,o),
(350,382,cs),
(350,277,ls),
(350,104,o),
(168,43,o),
(35,43,c),
(35,0,l),
(730,0,l),
(730,43,l),
(597,43,o),
(415,104,o),
(415,277,cs),
(415,323,ls),
(415,379,o),
(440,393,o),
(465,393,cs),
(490,393,o),
(515,379,o),
(515,379,cs),
(1211,-42,l),
(1301,-42,l),
(1301,410,ls),
(1301,583,o),
(1430,607,o),
(1529,607,c),
(1529,650,l),
(1009,650,l,{
name = hr00;
})
);
},
{
closed = 1;
nodes = (
(356,552,l),
(356,607,l),
(383,607,l),
(1211,107,l),
(1211,35,l)
);
},
{
closed = 1;
nodes = (
(1123,763,o),
(1147,862,o),
(1147,862,c),
(856,862,l),
(806,792,o),
(753,752,o),
(597,752,c),
(597,716,l),
(651,716,ls),
(738,716,o),
(921,716,o),
(999,734,c,{
name = hr00;
})
);
},
{
closed = 1;
nodes = (
(825,769,o),
(878,797,o),
(896,834,c),
(960,834,l),
(943,809,o),
(899,760,o),
(795,755,c),
(795,759,l)
);
}
);
};
layerId = master01;
shapes = (
{
ref = N;
},
{
pos = (447,0);
ref = acutecomb.case;
}
);
width = 1544;
}
);
unicode = 323;
},
{
glyphname = Ncaron;
lastChange = "2023-02-16 09:44:17 +0000";
layers = (
{
background = {
shapes = (
{
closed = 1;
nodes = (
(1009,607,l),
(1108,607,o),
(1237,583,o),
(1237,410,cs),
(1237,387,o),
(1222,383,o),
(1214,383,cs),
(1196,383,o),
(1120,431,o),
(1120,431,cs),
(772,650,l),
(23,650,l),
(23,607,l),
(187,607,o),
(350,519,o),
(350,382,cs),
(350,277,ls),
(350,104,o),
(168,43,o),
(35,43,c),
(35,0,l),
(730,0,l),
(730,43,l),
(597,43,o),
(415,104,o),
(415,277,cs),
(415,323,ls),
(415,379,o),
(440,393,o),
(465,393,cs),
(490,393,o),
(515,379,o),
(515,379,cs),
(1211,-42,l),
(1301,-42,l),
(1301,410,ls),
(1301,583,o),
(1430,607,o),
(1529,607,c),
(1529,650,l),
(1009,650,l,{
name = hr00;
})
);
},
{
closed = 1;
nodes = (
(356,552,l),
(356,607,l),
(383,607,l),
(1211,107,l),
(1211,35,l)
);
},
{
closed = 1;
nodes = (
(1067,862,l),
(980,862,l),
(877,750,l),
(773,862,l),
(476,862,l),
(610,716,l),
(934,716,l)
);
},
{
closed = 1;
nodes = (
(587,824,l,{
name = hr01;
}),
(649,824,l),
(724,741,l),
(662,741,l)
);
}
);
};
layerId = master01;
shapes = (
{
ref = N;
},
{
pos = (426,0);
ref = caroncomb.case;
}
);
width = 1544;
}
);
unicode = 327;
},
{
glyphname = Ncommaaccent;
lastChange = "2023-02-16 09:44:17 +0000";
layers = (
{
background = {
shapes = (
{
closed = 1;
nodes = (
(1009,607,l),
(1108,607,o),
(1237,583,o),
(1237,410,cs),
(1237,387,o),
(1222,383,o),
(1214,383,cs),
(1196,383,o),
(1120,431,o),
(1120,431,cs),
(772,650,l),
(23,650,l),
(23,607,l),
(187,607,o),
(350,519,o),
(350,382,cs),
(350,277,ls),
(350,104,o),
(168,43,o),
(35,43,c),
(35,0,l),
(730,0,l),
(730,43,l),
(597,43,o),
(415,104,o),
(415,277,cs),
(415,323,ls),
(415,379,o),
(440,393,o),
(465,393,cs),
(490,393,o),
(515,379,o),
(515,379,cs),
(1211,-42,l),
(1301,-42,l),
(1301,410,ls),
(1301,583,o),
(1430,607,o),
(1529,607,c),
(1529,650,l),
(1009,650,l,{
name = hr00;
})
);
},
{
closed = 1;
nodes = (
(356,552,l),
(356,607,l),
(383,607,l),
(1211,107,l),
(1211,35,l)
);
},
{
closed = 1;
nodes = (
(710,-203,o),
(721,-231,o),
(737,-250,c),
(735,-253,l),
(700,-237,o),
(675,-205,o),
(675,-172,cs),
(675,-139,o),
(700,-107,o),
(735,-91,c),
(737,-94,l),
(721,-113,o),
(710,-141,o),
(710,-172,c,{
name = hr00;
})
);
},
{
closed = 1;
nodes = (
(635,-235,o),
(696,-287,o),
(773,-287,cs),
(788,-287,o),
(803,-285,o),
(816,-281,c),
(787,-340,o),
(693,-359,o),
(645,-359,c),
(645,-396,l),
(841,-383,o),
(909,-278,o),
(909,-180,cs),
(909,-109,o),
(848,-59,o),
(773,-59,cs),
(696,-59,o),
(635,-109,o),
(635,-172,cs)
);
}
);
};
layerId = master01;
shapes = (
{
ref = N;
},
{
pos = (635,0);
ref = commaaccentcomb;
}
);
width = 1544;
}
);
unicode = 325;
},
{
glyphname = Ntilde;
lastChange = "2023-02-16 09:44:17 +0000";
layers = (
{
background = {
shapes = (
{
closed = 1;
nodes = (
(1009,607,l),
(1108,607,o),
(1237,583,o),
(1237,410,cs),
(1237,387,o),
(1222,383,o),
(1214,383,cs),
(1196,383,o),
(1120,431,o),
(1120,431,cs),
(772,650,l),
(23,650,l),
(23,607,l),
(187,607,o),
(350,519,o),
(350,382,cs),
(350,277,ls),
(350,104,o),
(168,43,o),
(35,43,c),
(35,0,l),
(730,0,l),
(730,43,l),
(597,43,o),
(415,104,o),
(415,277,cs),
(415,323,ls),
(415,379,o),
(440,393,o),
(465,393,cs),
(490,393,o),
(515,379,o),
(515,379,cs),
(1211,-42,l),
(1301,-42,l),
(1301,410,ls),
(1301,583,o),
(1430,607,o),
(1529,607,c),
(1529,650,l),
(1009,650,l,{
name = hr00;
})
);
},
{
closed = 1;
nodes = (
(356,552,l),
(356,607,l),
(383,607,l),
(1211,107,l),
(1211,35,l)
);
},
{
closed = 1;
nodes = (
(995,757,o),
(941,739,o),
(895,739,cs),
(755,739,o),
(662,789,o),
(578,789,cs),
(564,789,o),
(550,787,o),
(536,784,c),
(533,788,l),
(551,804,o),
(576,818,o),
(613,818,cs),
(723,818,o),
(767,774,o),
(923,774,cs,{
name = hr01;
}),
(952,774,o),
(998,780,o),
(1026,789,c,{
name = hr02;
}),
(1028,785,l)
);
},
{
closed = 1;
nodes = (
(1053,856,o),
(1032,843,o),
(988,843,cs,{
name = hr03;
}),
(882,843,o),
(837,879,o),
(687,879,cs,{
name = hr04;
}),
(539,879,o),
(465,767,o),
(461,717,c),
(489,717,l),
(498,739,o),
(522,754,o),
(551,754,cs,{
name = hr05;
}),
(681,754,o),
(731,705,o),
(888,705,cs,{
name = hr06;
}),
(1027,705,o),
(1094,825,o),
(1099,878,c),
(1066,878,l)
);
}
);
};
layerId = master01;
shapes = (
{
ref = N;
},
{
pos = (403,0);
ref = tildecomb.case;
}
);
width = 1544;
}
);
unicode = 209;
},
{
glyphname = Eng;
lastChange = "2023-02-16 10:29:22 +0000";
layers = (
{
anchors = (
{
name = bottom;
pos = (772,0);
},
{
name = top;
pos = (772,650);
}
);
background = {
shapes = (
{
closed = 1;
nodes = (
(356,552,l),
(356,607,l),
(383,607,l),
(1096,176,l),
(1096,-54,ls),
(1096,-153,o),
(1059,-187,o),
(1032,-198,c),
(1032,143,l)
);
},
{
closed = 1;
nodes = (
(964,-135,ls),
(964,-195,o),
(944,-216,o),
(904,-216,cs),
(825,-216,o),
(782,-152,o),
(772,-76,c),
(733,-76,l,{
name = hr01;
}),
(733,-260,l),
(780,-260,l),
(780,-213,l),
(831,-259,o),
(924,-283,o),
(1019,-283,cs),
(1170,-283,o),
(1305,-222,o),
(1302,-86,cs),
(1301,410,ls),
(1301,583,o),
(1430,607,o),
(1529,607,c),
(1529,650,l),
(1009,650,l),
(1009,607,l),
(1108,607,o),
(1237,583,o),
(1237,410,cs),
(1237,387,o),
(1222,383,o),
(1214,383,cs),
(1196,383,o),
(1120,431,o),
(1120,431,cs),
(772,650,l),
(23,650,l),
(23,607,l),
(187,607,o),
(350,519,o),
(350,382,cs),
(350,277,ls),
(350,104,o),
(168,43,o),
(35,43,c),
(35,0,l),
(730,0,l),
(730,43,l),
(597,43,o),
(415,104,o),
(415,277,cs),
(415,323,ls),
(415,379,o),
(440,393,o),
(465,393,cs,{
name = hr02;
}),
(490,393,o),
(515,379,o),
(515,379,cs),
(964,108,l)
);
}
);
};
layerId = master01;
shapes = (
{
closed = 1;
nodes = (
(1170,-283,o),
(1305,-222,o),
(1302,-86,cs),
(1301,410,ls),
(1301,583,o),
(1430,607,o),
(1529,607,c),
(1529,650,l),
(1009,650,l),
(1009,607,l),
(1108,607,o),
(1237,583,o),
(1237,410,cs),
(1237,387,o),
(1222,383,o),
(1214,383,cs),
(1196,383,o),
(1120,431,o),
(1120,431,cs),
(772,650,l),
(23,650,l),
(23,607,l),
(187,607,o),
(350,519,o),
(350,382,cs),
(350,277,ls),
(350,104,o),
(168,43,o),
(35,43,c),
(35,0,l),
(730,0,l),
(730,43,l),
(597,43,o),
(415,104,o),
(415,277,cs),
(415,323,ls),
(415,379,o),
(440,393,o),
(465,393,cs,{
name = hr02;
}),
(490,393,o),
(515,379,o),
(515,379,cs),
(964,108,l),
(964,-135,ls),
(964,-195,o),
(944,-216,o),
(904,-216,cs),
(825,-216,o),
(782,-152,o),
(772,-76,c),
(733,-76,l,{
name = hr01;
}),
(733,-260,l),
(780,-260,l),
(780,-213,l),
(831,-259,o),
(924,-283,o),
(1019,-283,cs)
);
},
{
closed = 1;
nodes = (
(1032,143,l),
(356,552,l),
(356,607,l),
(383,607,l),
(1096,176,l),
(1096,-54,ls),
(1096,-153,o),
(1059,-187,o),
(1032,-198,c)
);
}
);
width = 1544;
}
);
unicode = 330;
},
{
glyphname = O;
kernLeft = O;
lastChange = "2023-02-16 10:29:22 +0000";
layers = (
{
anchors = (
{
name = bottom;
pos = (673,0);
},
{
name = center;
pos = (673,325);
},
{
name = ogonek;
pos = (1211,10);
},
{
name = top;
pos = (673,650);
},
{
name = topleft;
pos = (20,650);
},
{
name = topright;
pos = (1325,650);
}
);
background = {
shapes = (
{
closed = 1;
nodes = (
(1322,516,o),
(1070,670,o),
(672,670,cs),
(274,670,o),
(22,516,o),
(22,325,cs),
(22,133,o),
(313,-22,o),
(672,-22,cs),
(1031,-22,o),
(1322,133,o),
(1322,325,cs,{
name = hr00;
})
);
},
{
closed = 1;
nodes = (
(836,629,o),
(879,524,o),
(879,324,cs),
(879,123,o),
(803,19,o),
(672,19,cs),
(542,19,o),
(465,123,o),
(465,324,cs),
(465,524,o),
(509,629,o),
(672,629,cs)
);
},
{
closed = 1;
nodes = (
(200,96,o),
(76,202,o),
(76,325,cs),
(76,449,o),
(202,556,o),
(388,611,c),
(389,607,l),
(246,551,o),
(149,445,o),
(149,325,cs),
(149,205,o),
(244,100,o),
(385,44,c),
(384,40,l)
);
},
{
closed = 1;
nodes = (
(1035,219,o),
(984,116,o),
(909,47,c),
(903,49,l),
(937,133,o),
(960,231,o),
(960,325,cs),
(960,419,o),
(937,517,o),
(903,601,c),
(909,603,l),
(984,534,o),
(1035,431,o),
(1035,325,c)
);
}
);
};
layerId = master01;
shapes = (
{
closed = 1;
nodes = (
(1031,-22,o),
(1322,133,o),
(1322,325,cs,{
name = hr00;
}),
(1322,516,o),
(1070,670,o),
(672,670,cs),
(274,670,o),
(22,516,o),
(22,325,cs),
(22,133,o),
(313,-22,o),
(672,-22,cs)
);
},
{
closed = 1;
nodes = (
(200,96,o),
(76,202,o),
(76,325,cs),
(76,449,o),
(202,556,o),
(388,611,c),
(389,607,l),
(246,551,o),
(149,445,o),
(149,325,cs),
(149,205,o),
(244,100,o),
(385,44,c),
(384,40,l)
);
},
{
closed = 1;
nodes = (
(542,19,o),
(465,123,o),
(465,324,cs),
(465,524,o),
(509,629,o),
(672,629,cs),
(836,629,o),
(879,524,o),
(879,324,cs),
(879,123,o),
(803,19,o),
(672,19,cs)
);
},
{
closed = 1;
nodes = (
(903,49,l),
(937,133,o),
(960,231,o),
(960,325,cs),
(960,419,o),
(937,517,o),
(903,601,c),
(909,603,l),
(984,534,o),
(1035,431,o),
(1035,325,c),
(1035,219,o),
(984,116,o),
(909,47,c)
);
}
);
width = 1345;
}
);
unicode = 79;
},
{
glyphname = Oacute;
kernLeft = O;
lastChange = "2023-02-16 09:44:17 +0000";
layers = (
{
background = {
shapes = (
{
closed = 1;
nodes = (
(1322,516,o),
(1070,670,o),
(672,670,cs),
(274,670,o),
(22,516,o),
(22,325,cs),
(22,133,o),
(313,-22,o),
(672,-22,cs),
(1031,-22,o),
(1322,133,o),
(1322,325,cs,{
name = hr00;
})
);
},
{
closed = 1;
nodes = (
(836,629,o),
(879,524,o),
(879,324,cs),
(879,123,o),
(803,19,o),
(672,19,cs),
(542,19,o),
(465,123,o),
(465,324,cs),
(465,524,o),
(509,629,o),
(672,629,cs)
);
},
{
closed = 1;
nodes = (
(200,96,o),
(76,202,o),
(76,325,cs),
(76,449,o),
(202,556,o),
(388,611,c),
(389,607,l),
(246,551,o),
(149,445,o),
(149,325,cs),
(149,205,o),
(244,100,o),
(385,44,c),
(384,40,l)
);
},
{
closed = 1;
nodes = (
(1035,219,o),
(984,116,o),
(909,47,c),
(903,49,l),
(937,133,o),
(960,231,o),
(960,325,cs),
(960,419,o),
(937,517,o),
(903,601,c),
(909,603,l),
(984,534,o),
(1035,431,o),
(1035,325,c)
);
},
{
closed = 1;
nodes = (
(923,763,o),
(947,862,o),
(947,862,c),
(656,862,l),
(606,792,o),
(553,752,o),
(397,752,c),
(397,716,l,{
name = hr01;
}),
(451,716,ls),
(538,716,o),
(721,716,o),
(799,734,c)
);
},
{
closed = 1;
nodes = (
(625,769,o),
(678,797,o),
(696,834,c),
(760,834,l),
(743,809,o),
(699,760,o),
(595,755,c),
(595,759,l)
);
}
);
};
layerId = master01;
shapes = (
{
ref = O;
},
{
pos = (348,0);
ref = acutecomb.case;
}
);
width = 1345;
}
);
unicode = 211;
},
{
glyphname = Obreve;
kernLeft = O;
lastChange = "2023-02-16 09:44:17 +0000";
layers = (
{
background = {
shapes = (
{
closed = 1;
nodes = (
(1322,516,o),
(1070,670,o),
(672,670,cs),
(274,670,o),
(22,516,o),
(22,325,cs),
(22,133,o),
(313,-22,o),
(672,-22,cs),
(1031,-22,o),
(1322,133,o),
(1322,325,cs,{
name = hr00;
})
);
},
{
closed = 1;
nodes = (
(836,629,o),
(879,524,o),
(879,324,cs),
(879,123,o),
(803,19,o),
(672,19,cs),
(542,19,o),
(465,123,o),
(465,324,cs),
(465,524,o),
(509,629,o),
(672,629,cs)
);
},
{
closed = 1;
nodes = (
(200,96,o),
(76,202,o),
(76,325,cs),
(76,449,o),
(202,556,o),
(388,611,c),
(389,607,l),
(246,551,o),
(149,445,o),
(149,325,cs),
(149,205,o),
(244,100,o),
(385,44,c),
(384,40,l)
);
},
{
closed = 1;
nodes = (
(1035,219,o),
(984,116,o),
(909,47,c),
(903,49,l),
(937,133,o),
(960,231,o),
(960,325,cs),
(960,419,o),
(937,517,o),
(903,601,c),
(909,603,l),
(984,534,o),
(1035,431,o),
(1035,325,c)
);
},
{
closed = 1;
nodes = (
(592,818,o),
(539,846,o),
(498,879,c),
(477,873,l),
(477,768,o),
(566,683,o),
(673,683,cs),
(782,683,o),
(867,768,o),
(867,873,c),
(847,879,l),
(807,846,o),
(755,818,o),
(673,818,cs)
);
},
{
closed = 1;
nodes = (
(727,755,o),
(775,773,o),
(807,797,c),
(812,794,l),
(785,746,o),
(731,715,o),
(673,715,cs),
(616,715,o),
(562,746,o),
(535,794,c),
(540,797,l),
(572,773,o),
(622,755,o),
(673,755,cs,{
name = hr01;
})
);
}
);
};
layerId = master01;
shapes = (
{
ref = O;
},
{
pos = (428,0);
ref = brevecomb.case;
}
);
width = 1345;
}
);
unicode = 334;
},
{
glyphname = Ocircumflex;
kernLeft = O;
lastChange = "2023-02-16 09:44:17 +0000";
layers = (
{
background = {
shapes = (
{
closed = 1;
nodes = (
(1322,516,o),
(1070,670,o),
(672,670,cs),
(274,670,o),
(22,516,o),
(22,325,cs),
(22,133,o),
(313,-22,o),
(672,-22,cs),
(1031,-22,o),
(1322,133,o),
(1322,325,cs,{
name = hr00;
})
);
},
{
closed = 1;
nodes = (
(836,629,o),
(879,524,o),
(879,324,cs),
(879,123,o),
(803,19,o),
(672,19,cs),
(542,19,o),
(465,123,o),
(465,324,cs),
(465,524,o),
(509,629,o),
(672,629,cs)
);
},
{
closed = 1;
nodes = (
(200,96,o),
(76,202,o),
(76,325,cs),
(76,449,o),
(202,556,o),
(388,611,c),
(389,607,l),
(246,551,o),
(149,445,o),
(149,325,cs),
(149,205,o),
(244,100,o),
(385,44,c),
(384,40,l)
);
},
{
closed = 1;
nodes = (
(1035,219,o),
(984,116,o),
(909,47,c),
(903,49,l),
(937,133,o),
(960,231,o),
(960,325,cs),
(960,419,o),
(937,517,o),
(903,601,c),
(909,603,l),
(984,534,o),
(1035,431,o),
(1035,325,c)
);
},
{
closed = 1;
nodes = (
(377,716,l),
(674,716,l),
(778,828,l),
(881,716,l),
(968,716,l),
(835,862,l),
(511,862,l)
);
},
{
closed = 1;
nodes = (
(550,754,l),
(488,754,l),
(563,837,l),
(625,837,l,{
name = hr01;
})
);
}
);
};
layerId = master01;
shapes = (
{
ref = O;
},
{
pos = (327,0);
ref = circumflexcomb.case;
}
);
width = 1345;
}
);
unicode = 212;
},
{
glyphname = Odieresis;
kernLeft = O;
lastChange = "2023-02-16 09:44:17 +0000";
layers = (
{
background = {
shapes = (
{
closed = 1;
nodes = (
(1322,516,o),
(1070,670,o),
(672,670,cs),
(274,670,o),
(22,516,o),
(22,325,cs),
(22,133,o),
(313,-22,o),
(672,-22,cs),
(1031,-22,o),
(1322,133,o),
(1322,325,cs,{
name = hr00;
})
);
},
{
closed = 1;
nodes = (
(836,629,o),
(879,524,o),
(879,324,cs),
(879,123,o),
(803,19,o),
(672,19,cs),
(542,19,o),
(465,123,o),
(465,324,cs),
(465,524,o),
(509,629,o),
(672,629,cs)
);
},
{
closed = 1;
nodes = (
(200,96,o),
(76,202,o),
(76,325,cs),
(76,449,o),
(202,556,o),
(388,611,c),
(389,607,l),
(246,551,o),
(149,445,o),
(149,325,cs),
(149,205,o),
(244,100,o),
(385,44,c),
(384,40,l)
);
},
{
closed = 1;
nodes = (
(1035,219,o),
(984,116,o),
(909,47,c),
(903,49,l),
(937,133,o),
(960,231,o),
(960,325,cs),
(960,419,o),
(937,517,o),
(903,601,c),
(909,603,l),
(984,534,o),
(1035,431,o),
(1035,325,c)
);
},
{
closed = 1;
nodes = (
(1037,861,o),
(976,913,o),
(899,913,cs),
(824,913,o),
(763,861,o),
(763,798,cs),
(763,735,o),
(824,685,o),
(899,685,cs),
(976,685,o),
(1037,735,o),
(1037,798,c,{
name = hr00;
})
);
},
{
closed = 1;
nodes = (
(581,861,o),
(520,913,o),
(443,913,cs),
(368,913,o),
(307,861,o),
(307,798,cs),
(307,735,o),
(368,685,o),
(443,685,cs),
(520,685,o),
(581,735,o),
(581,798,c)
);
},
{
closed = 1;
nodes = (
(385,762,o),
(397,732,o),
(416,711,c),
(413,708,l),
(373,725,o),
(344,760,o),
(344,798,cs),
(344,836,o),
(373,871,o),
(413,888,c),
(416,885,l),
(397,864,o),
(385,834,o),
(385,798,c)
);
},
{
closed = 1;
nodes = (
(841,762,o),
(853,732,o),
(872,711,c),
(869,708,l),
(829,725,o),
(800,760,o),
(800,798,cs),
(800,836,o),
(829,871,o),
(869,888,c),
(872,885,l),
(853,864,o),
(841,834,o),
(841,798,cs)
);
}
);
};
layerId = master01;
shapes = (
{
ref = O;
},
{
pos = (231,0);
ref = dieresiscomb.case;
}
);
width = 1345;
}
);
unicode = 214;
},
{
glyphname = Ograve;
kernLeft = O;
lastChange = "2023-02-16 09:44:17 +0000";
layers = (
{
background = {
shapes = (
{
closed = 1;
nodes = (
(1322,516,o),
(1070,670,o),
(672,670,cs),
(274,670,o),
(22,516,o),
(22,325,cs),
(22,133,o),
(313,-22,o),
(672,-22,cs),
(1031,-22,o),
(1322,133,o),
(1322,325,cs,{
name = hr00;
})
);
},
{
closed = 1;
nodes = (
(836,629,o),
(879,524,o),
(879,324,cs),
(879,123,o),
(803,19,o),
(672,19,cs),
(542,19,o),
(465,123,o),
(465,324,cs),
(465,524,o),
(509,629,o),
(672,629,cs)
);
},
{
closed = 1;
nodes = (
(200,96,o),
(76,202,o),
(76,325,cs),
(76,449,o),
(202,556,o),
(388,611,c),
(389,607,l),
(246,551,o),
(149,445,o),
(149,325,cs),
(149,205,o),
(244,100,o),
(385,44,c),
(384,40,l)
);
},
{
closed = 1;
nodes = (
(1035,219,o),
(984,116,o),
(909,47,c),
(903,49,l),
(937,133,o),
(960,231,o),
(960,325,cs),
(960,419,o),
(937,517,o),
(903,601,c),
(909,603,l),
(984,534,o),
(1035,431,o),
(1035,325,c)
);
},
{
closed = 1;
nodes = (
(623,716,o),
(806,716,o),
(893,716,cs),
(947,716,l),
(947,752,l,{
name = hr01;
}),
(791,752,o),
(738,792,o),
(688,862,c),
(397,862,l),
(397,862,o),
(421,763,o),
(545,734,cs)
);
},
{
closed = 1;
nodes = (
(531,760,o),
(487,809,o),
(470,834,c),
(534,834,l),
(552,797,o),
(605,769,o),
(635,759,c),
(635,755,l)
);
}
);
};
layerId = master01;
shapes = (
{
ref = O;
},
{
pos = (348,0);
ref = gravecomb.case;
}
);
width = 1345;
}
);
unicode = 210;
},
{
glyphname = Ohungarumlaut;
kernLeft = O;
lastChange = "2023-02-16 09:50:01 +0000";
layers = (
{
background = {
shapes = (
{
closed = 1;
nodes = (
(1322,516,o),
(1070,670,o),
(672,670,cs),
(274,670,o),
(22,516,o),
(22,325,cs),
(22,133,o),
(313,-22,o),
(672,-22,cs),
(1031,-22,o),
(1322,133,o),
(1322,325,cs,{
name = hr00;
})
);
},
{
closed = 1;
nodes = (
(836,629,o),
(879,524,o),
(879,324,cs),
(879,123,o),
(803,19,o),
(672,19,cs),
(542,19,o),
(465,123,o),
(465,324,cs),
(465,524,o),
(509,629,o),
(672,629,cs)
);
},
{
closed = 1;
nodes = (
(200,96,o),
(76,202,o),
(76,325,cs),
(76,449,o),
(202,556,o),
(388,611,c),
(389,607,l),
(246,551,o),
(149,445,o),
(149,325,cs),
(149,205,o),
(244,100,o),
(385,44,c),
(384,40,l)
);
},
{
closed = 1;
nodes = (
(1035,219,o),
(984,116,o),
(909,47,c),
(903,49,l),
(937,133,o),
(960,231,o),
(960,325,cs),
(960,419,o),
(937,517,o),
(903,601,c),
(909,603,l),
(984,534,o),
(1035,431,o),
(1035,325,c)
);
},
{
closed = 1;
nodes = (
(705,765,o),
(728,862,o),
(728,862,c),
(487,862,l),
(445,792,o),
(400,752,o),
(298,752,c,{
name = hr01;
}),
(298,716,l,{
name = hr02;
}),
(313,716,ls),
(386,716,o),
(514,717,o),
(584,734,cs)
);
},
{
closed = 1;
nodes = (
(456,769,o),
(509,797,o),
(527,834,c,{
name = hr03;
}),
(591,834,l),
(574,809,o),
(530,760,o),
(426,755,c),
(426,759,l)
);
},
{
closed = 1;
nodes = (
(1104,765,o),
(1127,862,o),
(1127,862,c,{
name = hr04;
}),
(886,862,l),
(844,792,o),
(799,752,o),
(697,752,c,{
name = hr05;
}),
(697,716,l,{
name = hr06;
}),
(712,716,ls),
(785,716,o),
(913,717,o),
(983,734,cs)
);
},
{
closed = 1;
nodes = (
(855,769,o),
(908,797,o),
(926,834,c,{
name = hr07;
}),
(990,834,l),
(973,809,o),
(929,760,o),
(825,755,c),
(825,759,l)
);
}
);
};
layerId = master01;
shapes = (
{
ref = O;
},
{
pos = (248,0);
ref = hungarumlautcomb.case;
}
);
width = 1345;
}
);
unicode = 336;
},
{
glyphname = Omacron;
kernLeft = O;
lastChange = "2023-02-16 09:44:17 +0000";
layers = (
{
background = {
shapes = (
{
closed = 1;
nodes = (
(1322,516,o),
(1070,670,o),
(672,670,cs),
(274,670,o),
(22,516,o),
(22,325,cs),
(22,133,o),
(313,-22,o),
(672,-22,cs),
(1031,-22,o),
(1322,133,o),
(1322,325,cs,{
name = hr00;
})
);
},
{
closed = 1;
nodes = (
(836,629,o),
(879,524,o),
(879,324,cs),
(879,123,o),
(803,19,o),
(672,19,cs),
(542,19,o),
(465,123,o),
(465,324,cs),
(465,524,o),
(509,629,o),
(672,629,cs)
);
},
{
closed = 1;
nodes = (
(200,96,o),
(76,202,o),
(76,325,cs),
(76,449,o),
(202,556,o),
(388,611,c),
(389,607,l),
(246,551,o),
(149,445,o),
(149,325,cs),
(149,205,o),
(244,100,o),
(385,44,c),
(384,40,l)
);
},
{
closed = 1;
nodes = (
(1035,219,o),
(984,116,o),
(909,47,c),
(903,49,l),
(937,133,o),
(960,231,o),
(960,325,cs),
(960,419,o),
(937,517,o),
(903,601,c),
(909,603,l),
(984,534,o),
(1035,431,o),
(1035,325,c)
);
},
{
closed = 1;
nodes = (
(875,722,l),
(875,856,l),
(470,856,l),
(470,722,l,{
name = hr00;
})
);
},
{
closed = 1;
nodes = (
(531,742,l),
(531,836,l),
(585,836,l),
(585,742,l)
);
}
);
};
layerId = master01;
shapes = (
{
ref = O;
},
{
pos = (420,0);
ref = macroncomb.case;
}
);
width = 1345;
}
);
unicode = 332;
},
{
glyphname = Oslash;
kernLeft = O;
lastChange = "2023-02-16 09:39:43 +0000";
layers = (
{
background = {
shapes = (
{
closed = 1;
nodes = (
(1322,516,o),
(1070,670,o),
(672,670,cs),
(274,670,o),
(22,516,o),
(22,325,cs),
(22,133,o),
(313,-22,o),
(672,-22,cs),
(1031,-22,o),
(1322,133,o),
(1322,325,cs,{
name = hr00;
})
);
},
{
closed = 1;
nodes = (
(836,629,o),
(879,524,o),
(879,324,cs),
(879,123,o),
(803,19,o),
(672,19,cs),
(542,19,o),
(465,123,o),
(465,324,cs),
(465,524,o),
(509,629,o),
(672,629,cs)
);
},
{
closed = 1;
nodes = (
(200,96,o),
(76,202,o),
(76,325,cs),
(76,449,o),
(202,556,o),
(388,611,c),
(389,607,l),
(246,551,o),
(149,445,o),
(149,325,cs),
(149,205,o),
(244,100,o),
(385,44,c),
(384,40,l)
);
},
{
closed = 1;
nodes = (
(1035,219,o),
(984,116,o),
(909,47,c),
(903,49,l),
(937,133,o),
(960,231,o),
(960,325,cs),
(960,419,o),
(937,517,o),
(903,601,c),
(909,603,l),
(984,534,o),
(1035,431,o),
(1035,325,c)
);
},
{
closed = 1;
nodes = (
(895,741,l),
(843,741,l),
(449,-89,l),
(501,-89,l,{
name = hr00;
})
);
}
);
};
layerId = master01;
shapes = (
{
alignment = -1;
ref = O;
},
{
alignment = -1;
pos = (389,-63);
ref = fraction;
scale = (1,1.2);
}
);
width = 1345;
}
);
unicode = 216;
},
{
glyphname = Oslashacute;
kernLeft = O;
lastChange = "2023-02-16 09:44:17 +0000";
layers = (
{
background = {
shapes = (
{
closed = 1;
nodes = (
(1322,516,o),
(1070,670,o),
(672,670,cs),
(274,670,o),
(22,516,o),
(22,325,cs),
(22,133,o),
(313,-22,o),
(672,-22,cs),
(1031,-22,o),
(1322,133,o),
(1322,325,cs,{
name = hr00;
})
);
},
{
closed = 1;
nodes = (
(836,629,o),
(879,524,o),
(879,324,cs),
(879,123,o),
(803,19,o),
(672,19,cs),
(542,19,o),
(465,123,o),
(465,324,cs),
(465,524,o),
(509,629,o),
(672,629,cs)
);
},
{
closed = 1;
nodes = (
(200,96,o),
(76,202,o),
(76,325,cs),
(76,449,o),
(202,556,o),
(388,611,c),
(389,607,l),
(246,551,o),
(149,445,o),
(149,325,cs),
(149,205,o),
(244,100,o),
(385,44,c),
(384,40,l)
);
},
{
closed = 1;
nodes = (
(1035,219,o),
(984,116,o),
(909,47,c),
(903,49,l),
(937,133,o),
(960,231,o),
(960,325,cs),
(960,419,o),
(937,517,o),
(903,601,c),
(909,603,l),
(984,534,o),
(1035,431,o),
(1035,325,c)
);
},
{
closed = 1;
nodes = (
(895,706,l),
(843,706,l),
(449,-55,l),
(501,-55,l,{
name = hr00;
})
);
},
{
closed = 1;
nodes = (
(953,763,o),
(977,862,o),
(977,862,c),
(686,862,l),
(636,792,o),
(583,752,o),
(427,752,c),
(427,716,l),
(481,716,ls),
(568,716,o),
(751,716,o),
(829,734,c,{
name = hr00;
})
);
},
{
closed = 1;
nodes = (
(655,769,o),
(708,797,o),
(726,834,c),
(790,834,l),
(773,809,o),
(729,760,o),
(625,755,c),
(625,759,l)
);
}
);
};
layerId = master01;
shapes = (
{
ref = Oslash;
},
{
pos = (348,0);
ref = acutecomb.case;
}
);
width = 1345;
}
);
unicode = 510;
},
{
glyphname = Otilde;
kernLeft = O;
lastChange = "2023-02-16 09:44:17 +0000";
layers = (
{
background = {
shapes = (
{
closed = 1;
nodes = (
(1322,516,o),
(1070,670,o),
(672,670,cs),
(274,670,o),
(22,516,o),
(22,325,cs),
(22,133,o),
(313,-22,o),
(672,-22,cs),
(1031,-22,o),
(1322,133,o),
(1322,325,cs,{
name = hr00;
})
);
},
{
closed = 1;
nodes = (
(836,629,o),
(879,524,o),
(879,324,cs),
(879,123,o),
(803,19,o),
(672,19,cs),
(542,19,o),
(465,123,o),
(465,324,cs),
(465,524,o),
(509,629,o),
(672,629,cs)
);
},
{
closed = 1;
nodes = (
(200,96,o),
(76,202,o),
(76,325,cs),
(76,449,o),
(202,556,o),
(388,611,c),
(389,607,l),
(246,551,o),
(149,445,o),
(149,325,cs),
(149,205,o),
(244,100,o),
(385,44,c),
(384,40,l)
);
},
{
closed = 1;
nodes = (
(1035,219,o),
(984,116,o),
(909,47,c),
(903,49,l),
(937,133,o),
(960,231,o),
(960,325,cs),
(960,419,o),
(937,517,o),
(903,601,c),
(909,603,l),
(984,534,o),
(1035,431,o),
(1035,325,c)
);
},
{
closed = 1;
nodes = (
(887,757,o),
(833,739,o),
(787,739,cs),
(647,739,o),
(554,789,o),
(470,789,cs),
(456,789,o),
(442,787,o),
(428,784,c),
(425,788,l),
(443,804,o),
(468,818,o),
(505,818,cs),
(615,818,o),
(659,774,o),
(815,774,cs,{
name = hr01;
}),
(844,774,o),
(890,780,o),
(918,789,c,{
name = hr02;
}),
(920,785,l)
);
},
{
closed = 1;
nodes = (
(945,856,o),
(924,843,o),
(880,843,cs,{
name = hr03;
}),
(774,843,o),
(729,879,o),
(579,879,cs,{
name = hr04;
}),
(431,879,o),
(357,767,o),
(353,717,c),
(381,717,l),
(390,739,o),
(414,754,o),
(443,754,cs,{
name = hr05;
}),
(573,754,o),
(623,705,o),
(780,705,cs,{
name = hr06;
}),
(919,705,o),
(986,825,o),
(991,878,c),
(958,878,l)
);
}
);
};
layerId = master01;
shapes = (
{
ref = O;
},
{
pos = (304,0);
ref = tildecomb.case;
}
);
width = 1345;
}
);
unicode = 213;
},
{
glyphname = OE;
kernLeft = O;
lastChange = "2023-02-16 10:29:22 +0000";
layers = (
{
anchors = (
{
name = bottom;
pos = (969,0);
},
{
name = top;
pos = (969,650);
}
);
background = {
shapes = (
{
closed = 1;
nodes = (
(542,43,o),
(465,139,o),
(465,325,cs),
(465,510,o),
(509,607,o),
(672,607,cs),
(771,607,ls),
(832,607,o),
(880,556,o),
(880,497,cs),
(880,151,ls),
(880,71,o),
(832,43,o),
(771,43,cs),
(672,43,ls,{
name = hr00;
})
);
},
{
closed = 1;
nodes = (
(1858,212,l),
(1829,212,l),
(1707,48,o),
(1525,43,o),
(1380,43,cs),
(1355,43,ls),
(1275,43,o),
(1269,99,o),
(1269,187,cs),
(1269,223,ls),
(1269,265,o),
(1289,312,o),
(1357,312,cs),
(1444,312,o),
(1567,270,o),
(1600,194,c),
(1637,194,l),
(1637,499,l),
(1600,499,l),
(1567,428,o),
(1444,372,o),
(1357,372,cs),
(1279,372,o),
(1269,433,o),
(1269,474,cs),
(1269,508,ls),
(1269,565,o),
(1312,605,o),
(1382,605,cs),
(1629,605,o),
(1764,507,o),
(1829,420,c),
(1858,420,l),
(1858,650,l),
(672,650,ls),
(274,650,o),
(22,505,o),
(22,326,cs),
(22,146,o),
(313,0,o),
(672,0,cs),
(1858,0,l)
);
},
{
closed = 1;
nodes = (
(200,116,o),
(76,202,o),
(76,325,cs),
(76,449,o),
(202,536,o),
(388,591,c),
(389,587,l),
(246,531,o),
(149,445,o),
(149,325,cs),
(149,205,o),
(244,120,o),
(385,64,c),
(384,60,l)
);
},
{
closed = 1;
nodes = (
(947,43,l),
(947,607,l),
(1013,607,l),
(1013,43,l)
);
}
);
};
layerId = master01;
shapes = (
{
closed = 1;
nodes = (
(1858,0,l),
(1858,212,l),
(1829,212,l),
(1707,48,o),
(1525,43,o),
(1380,43,cs),
(1355,43,ls),
(1275,43,o),
(1269,99,o),
(1269,187,cs),
(1269,223,ls),
(1269,265,o),
(1289,312,o),
(1357,312,cs),
(1444,312,o),
(1567,270,o),
(1600,194,c),
(1637,194,l),
(1637,499,l),
(1600,499,l),
(1567,428,o),
(1444,372,o),
(1357,372,cs),
(1279,372,o),
(1269,433,o),
(1269,474,cs),
(1269,508,ls),
(1269,565,o),
(1312,605,o),
(1382,605,cs),
(1629,605,o),
(1764,507,o),
(1829,420,c),
(1858,420,l),
(1858,650,l),
(672,650,ls),
(274,650,o),
(22,505,o),
(22,326,cs),
(22,146,o),
(313,0,o),
(672,0,cs)
);
},
{
closed = 1;
nodes = (
(200,116,o),
(76,202,o),
(76,325,cs),
(76,449,o),
(202,536,o),
(388,591,c),
(389,587,l),
(246,531,o),
(149,445,o),
(149,325,cs),
(149,205,o),
(244,120,o),
(385,64,c),
(384,60,l)
);
},
{
closed = 1;
nodes = (
(542,43,o),
(465,139,o),
(465,325,cs),
(465,510,o),
(509,607,o),
(672,607,cs),
(771,607,ls),
(832,607,o),
(880,556,o),
(880,497,cs),
(880,151,ls),
(880,71,o),
(832,43,o),
(771,43,cs),
(672,43,ls,{
name = hr00;
})
);
},
{
closed = 1;
nodes = (
(947,607,l),
(1013,607,l),
(1013,43,l),
(947,43,l)
);
}
);
width = 1938;
}
);
unicode = 338;
},
{
glyphname = P;
kernRight = P;
lastChange = "2023-02-16 10:29:22 +0000";
layers = (
{
anchors = (
{
name = bottom;
pos = (724,0);
},
{
name = top;
pos = (724,650);
}
);
background = {
shapes = (
{
closed = 1;
nodes = (
(73,607,l),
(194,607,ls),
(255,607,o),
(303,556,o),
(303,497,cs),
(303,151,ls),
(303,72,o),
(255,43,o),
(194,43,cs),
(73,43,l),
(73,0,l),
(924,0,l),
(924,43,l),
(802,43,ls),
(742,43,o),
(694,72,o),
(694,151,cs),
(694,216,ls),
(694,265,o),
(712,284,o),
(749,284,cs),
(1122,284,ls),
(1300,284,o),
(1434,332,o),
(1434,469,cs),
(1434,630,o),
(1229,650,o),
(1082,650,cs),
(73,650,l,{
name = hr00;
})
);
},
{
closed = 1;
nodes = (
(370,43,l),
(370,607,l),
(436,607,l),
(436,43,l)
);
},
{
closed = 1;
nodes = (
(717,329,o),
(695,352,o),
(695,379,cs),
(695,556,ls),
(695,584,o),
(717,607,o),
(745,607,cs),
(846,607,ls),
(901,607,o),
(1010,571,o),
(1010,468,cs),
(1010,365,o),
(901,329,o),
(846,329,cs),
(745,329,ls)
);
},
{
closed = 1;
nodes = (
(1157,411,o),
(1113,351,o),
(1061,333,c),
(1056,336,l),
(1080,373,o),
(1088,422,o),
(1088,468,cs),
(1088,514,o),
(1080,563,o),
(1056,600,c),
(1061,603,l),
(1113,585,o),
(1157,525,o),
(1157,468,c)
);
}
);
};
layerId = master01;
shapes = (
{
closed = 1;
nodes = (
(924,0,l),
(924,43,l),
(802,43,ls),
(742,43,o),
(694,72,o),
(694,151,cs),
(694,216,ls),
(694,265,o),
(712,284,o),
(749,284,cs),
(1122,284,ls),
(1300,284,o),
(1434,332,o),
(1434,469,cs),
(1434,630,o),
(1229,650,o),
(1082,650,cs),
(73,650,l,{
name = hr00;
}),
(73,607,l),
(194,607,ls),
(255,607,o),
(303,556,o),
(303,497,cs),
(303,151,ls),
(303,72,o),
(255,43,o),
(194,43,cs),
(73,43,l),
(73,0,l)
);
},
{
closed = 1;
nodes = (
(370,607,l),
(436,607,l),
(436,43,l),
(370,43,l)
);
},
{
closed = 1;
nodes = (
(717,329,o),
(695,352,o),
(695,379,cs),
(695,556,ls),
(695,584,o),
(717,607,o),
(745,607,cs),
(846,607,ls),
(901,607,o),
(1010,571,o),
(1010,468,cs),
(1010,365,o),
(901,329,o),
(846,329,cs),
(745,329,ls)
);
},
{
closed = 1;
nodes = (
(1056,336,l),
(1080,373,o),
(1088,422,o),
(1088,468,cs),
(1088,514,o),
(1080,563,o),
(1056,600,c),
(1061,603,l),
(1113,585,o),
(1157,525,o),
(1157,468,c),
(1157,411,o),
(1113,351,o),
(1061,333,c)
);
}
);
width = 1447;
}
);
unicode = 80;
},
{
glyphname = Thorn;
lastChange = "2023-02-16 10:29:22 +0000";
layers = (
{
anchors = (
{
name = bottom;
pos = (724,0);
},
{
name = top;
pos = (724,650);
}
);
background = {
shapes = (
{
closed = 1;
nodes = (
(716,187,o),
(694,210,o),
(694,237,cs),
(694,413,ls),
(694,441,o),
(716,464,o),
(744,464,cs),
(845,464,ls),
(900,464,o),
(1009,429,o),
(1009,326,cs),
(1009,223,o),
(900,187,o),
(845,187,cs),
(744,187,ls,{
name = hr00;
})
);
},
{
closed = 1;
nodes = (
(1156,269,o),
(1112,209,o),
(1060,191,c),
(1055,194,l),
(1079,231,o),
(1087,280,o),
(1087,326,cs),
(1087,372,o),
(1079,421,o),
(1055,458,c),
(1060,461,l),
(1112,443,o),
(1156,383,o),
(1156,326,c)
);
},
{
closed = 1;
nodes = (
(924,607,l),
(924,650,l),
(73,650,l),
(73,607,l),
(195,607,ls),
(255,607,o),
(304,556,o),
(304,497,cs),
(304,151,ls),
(304,71,o),
(255,43,o),
(195,43,cs),
(73,43,l),
(73,0,l),
(924,0,l),
(924,43,l),
(693,43,l),
(693,74,ls),
(693,123,o),
(711,142,o),
(748,142,cs),
(1121,142,ls),
(1299,142,o),
(1433,190,o),
(1433,327,cs),
(1433,488,o),
(1228,509,o),
(1081,509,cs),
(748,509,ls),
(711,509,o),
(693,528,o),
(693,577,cs),
(693,607,l)
);
},
{
closed = 1;
nodes = (
(371,43,l),
(371,607,l),
(436,607,l),
(436,43,l)
);
}
);
};
layerId = master01;
shapes = (
{
closed = 1;
nodes = (
(924,0,l),
(924,43,l),
(693,43,l),
(693,74,ls),
(693,123,o),
(711,142,o),
(748,142,cs),
(1121,142,ls),
(1299,142,o),
(1433,190,o),
(1433,327,cs),
(1433,488,o),
(1228,509,o),
(1081,509,cs),
(748,509,ls),
(711,509,o),
(693,528,o),
(693,577,cs),
(693,607,l),
(924,607,l),
(924,650,l),
(73,650,l),
(73,607,l),
(195,607,ls),
(255,607,o),
(304,556,o),
(304,497,cs),
(304,151,ls),
(304,71,o),
(255,43,o),
(195,43,cs),
(73,43,l),
(73,0,l)
);
},
{
closed = 1;
nodes = (
(371,607,l),
(436,607,l),
(436,43,l),
(371,43,l)
);
},
{
closed = 1;
nodes = (
(716,187,o),
(694,210,o),
(694,237,cs),
(694,413,ls),
(694,441,o),
(716,464,o),
(744,464,cs),
(845,464,ls),
(900,464,o),
(1009,429,o),
(1009,326,cs),
(1009,223,o),
(900,187,o),
(845,187,cs),
(744,187,ls,{
name = hr00;
})
);
},
{
closed = 1;
nodes = (
(1055,194,l),
(1079,231,o),
(1087,280,o),
(1087,326,cs),
(1087,372,o),
(1079,421,o),
(1055,458,c),
(1060,461,l),
(1112,443,o),
(1156,383,o),
(1156,326,c),
(1156,269,o),
(1112,209,o),
(1060,191,c)
);
}
);
width = 1447;
}
);
unicode = 222;
},
{
glyphname = Q;
kernLeft = O;
lastChange = "2023-02-16 10:29:22 +0000";
layers = (
{
anchors = (
{
name = bottom;
pos = (673,0);
},
{
name = top;
pos = (673,650);
}
);
background = {
shapes = (
{
closed = 1;
nodes = (
(1322,517,o),
(1070,671,o),
(672,671,cs),
(274,671,o),
(22,517,o),
(22,325,cs),
(22,139,o),
(295,-11,o),
(638,-21,c),
(638,-25,l),
(552,-56,o),
(457,-101,o),
(427,-164,c),
(427,-207,l),
(916,-207,l),
(916,-164,l),
(759,-164,ls),
(734,-164,o),
(721,-139,o),
(721,-106,cs),
(721,-78,o),
(730,-46,o),
(751,-19,c),
(1072,2,o),
(1322,148,o),
(1322,325,cs,{
name = hr00;
})
);
},
{
closed = 1;
nodes = (
(465,525,o),
(509,629,o),
(672,629,cs),
(836,629,o),
(879,525,o),
(879,325,cs),
(879,124,o),
(803,20,o),
(672,20,cs),
(542,20,o),
(465,124,o),
(465,325,cs)
);
},
{
closed = 1;
nodes = (
(637,-59,o),
(558,-128,o),
(558,-164,c),
(497,-164,l),
(497,-126,o),
(607,-57,o),
(655,-39,c),
(657,-42,l)
);
},
{
closed = 1;
nodes = (
(200,96,o),
(76,202,o),
(76,325,cs),
(76,449,o),
(202,556,o),
(388,611,c),
(389,607,l),
(246,551,o),
(149,445,o),
(149,325,cs),
(149,205,o),
(244,100,o),
(385,44,c),
(384,40,l)
);
},
{
closed = 1;
nodes = (
(1035,219,o),
(984,116,o),
(909,47,c),
(903,49,l),
(937,133,o),
(960,231,o),
(960,325,cs),
(960,419,o),
(937,517,o),
(903,601,c),
(909,603,l),
(984,534,o),
(1035,431,o),
(1035,325,cs)
);
}
);
};
layerId = master01;
shapes = (
{
closed = 1;
nodes = (
(916,-207,l),
(916,-164,l),
(759,-164,ls),
(734,-164,o),
(721,-139,o),
(721,-106,cs),
(721,-78,o),
(730,-46,o),
(751,-19,c),
(1072,2,o),
(1322,148,o),
(1322,325,cs,{
name = hr00;
}),
(1322,517,o),
(1070,671,o),
(672,671,cs),
(274,671,o),
(22,517,o),
(22,325,cs),
(22,139,o),
(295,-11,o),
(638,-21,c),
(638,-25,l),
(552,-56,o),
(457,-101,o),
(427,-164,c),
(427,-207,l)
);
},
{
closed = 1;
nodes = (
(497,-126,o),
(607,-57,o),
(655,-39,c),
(657,-42,l),
(637,-59,o),
(558,-128,o),
(558,-164,c),
(497,-164,l)
);
},
{
closed = 1;
nodes = (
(200,96,o),
(76,202,o),
(76,325,cs),
(76,449,o),
(202,556,o),
(388,611,c),
(389,607,l),
(246,551,o),
(149,445,o),
(149,325,cs),
(149,205,o),
(244,100,o),
(385,44,c),
(384,40,l)
);
},
{
closed = 1;
nodes = (
(542,20,o),
(465,124,o),
(465,325,cs),
(465,525,o),
(509,629,o),
(672,629,cs),
(836,629,o),
(879,525,o),
(879,325,cs),
(879,124,o),
(803,20,o),
(672,20,cs)
);
},
{
closed = 1;
nodes = (
(903,49,l),
(937,133,o),
(960,231,o),
(960,325,cs),
(960,419,o),
(937,517,o),
(903,601,c),
(909,603,l),
(984,534,o),
(1035,431,o),
(1035,325,cs),
(1035,219,o),
(984,116,o),
(909,47,c)
);
}
);
width = 1345;
}
);
unicode = 81;
},
{
glyphname = R;
lastChange = "2023-02-16 10:29:22 +0000";
layers = (
{
anchors = (
{
name = bottom;
pos = (843,0);
},
{
name = top;
pos = (843,650);
}
);
background = {
shapes = (
{
closed = 1;
nodes = (
(1319,215,l),
(1222,230,o),
(1148,267,o),
(1120,291,c),
(1120,296,l),
(1291,300,o),
(1499,321,o),
(1499,469,cs),
(1499,631,o),
(1295,650,o),
(1147,650,cs),
(73,650,l),
(73,607,l),
(194,607,ls),
(255,607,o),
(303,557,o),
(303,497,cs),
(303,152,ls),
(303,72,o),
(255,43,o),
(194,43,cs),
(73,43,l),
(73,0,l),
(877,0,l),
(877,43,l),
(802,43,ls),
(742,43,o),
(694,72,o),
(694,152,cs),
(694,227,ls),
(694,275,o),
(695,298,o),
(723,298,cs),
(746,298,o),
(778,256,o),
(778,256,cs),
(978,0,l),
(1571,0,l),
(1571,43,l),
(1453,43,l,{
name = hr00;
})
);
},
{
closed = 1;
nodes = (
(370,43,l),
(370,607,l),
(436,607,l),
(436,43,l)
);
},
{
closed = 1;
nodes = (
(1113,375,o),
(1119,421,o),
(1119,468,cs),
(1119,518,o),
(1114,561,o),
(1089,598,c),
(1092,601,l),
(1148,585,o),
(1188,532,o),
(1188,468,cs),
(1188,405,o),
(1148,351,o),
(1093,336,c),
(1090,339,l)
);
},
{
closed = 1;
nodes = (
(695,584,o),
(717,607,o),
(745,607,cs),
(745,607,o),
(807,607,o),
(862,607,cs),
(917,607,o),
(1026,571,o),
(1026,468,cs),
(1026,380,o),
(940,349,o),
(856,349,cs),
(774,349,o),
(695,378,o),
(695,413,cs),
(695,556,ls)
);
},
{
closed = 1;
nodes = (
(826,298,l),
(909,298,l),
(1107,43,l),
(1024,43,l)
);
}
);
};
layerId = master01;
shapes = (
{
closed = 1;
nodes = (
(877,0,l),
(877,43,l),
(802,43,ls),
(742,43,o),
(694,72,o),
(694,152,cs),
(694,227,ls),
(694,275,o),
(695,298,o),
(723,298,cs),
(746,298,o),
(778,256,o),
(778,256,cs),
(978,0,l),
(1571,0,l),
(1571,43,l),
(1453,43,l,{
name = hr00;
}),
(1319,215,l),
(1222,230,o),
(1148,267,o),
(1120,291,c),
(1120,296,l),
(1291,300,o),
(1499,321,o),
(1499,469,cs),
(1499,631,o),
(1295,650,o),
(1147,650,cs),
(73,650,l),
(73,607,l),
(194,607,ls),
(255,607,o),
(303,557,o),
(303,497,cs),
(303,152,ls),
(303,72,o),
(255,43,o),
(194,43,cs),
(73,43,l),
(73,0,l)
);
},
{
closed = 1;
nodes = (
(370,607,l),
(436,607,l),
(436,43,l),
(370,43,l)
);
},
{
closed = 1;
nodes = (
(826,298,l),
(909,298,l),
(1107,43,l),
(1024,43,l)
);
},
{
closed = 1;
nodes = (
(774,349,o),
(695,378,o),
(695,413,cs),
(695,556,ls),
(695,584,o),
(717,607,o),
(745,607,cs),
(745,607,o),
(807,607,o),
(862,607,cs),
(917,607,o),
(1026,571,o),
(1026,468,cs),
(1026,380,o),
(940,349,o),
(856,349,cs)
);
},
{
closed = 1;
nodes = (
(1090,339,l),
(1113,375,o),
(1119,421,o),
(1119,468,cs),
(1119,518,o),
(1114,561,o),
(1089,598,c),
(1092,601,l),
(1148,585,o),
(1188,532,o),
(1188,468,cs),
(1188,405,o),
(1148,351,o),
(1093,336,c)
);
}
);
width = 1585;
}
);
unicode = 82;
},
{
glyphname = Racute;
lastChange = "2023-02-16 09:50:32 +0000";
layers = (
{
background = {
shapes = (
{
closed = 1;
nodes = (
(1319,215,l),
(1222,230,o),
(1148,267,o),
(1120,291,c),
(1120,296,l),
(1291,300,o),
(1499,321,o),
(1499,469,cs),
(1499,631,o),
(1295,650,o),
(1147,650,cs),
(73,650,l),
(73,607,l),
(194,607,ls),
(255,607,o),
(303,557,o),
(303,497,cs),
(303,152,ls),
(303,72,o),
(255,43,o),
(194,43,cs),
(73,43,l),
(73,0,l),
(877,0,l),
(877,43,l),
(802,43,ls),
(742,43,o),
(694,72,o),
(694,152,cs),
(694,227,ls),
(694,275,o),
(695,298,o),
(723,298,cs),
(746,298,o),
(778,256,o),
(778,256,cs),
(978,0,l),
(1571,0,l),
(1571,43,l),
(1453,43,l,{
name = hr00;
})
);
},
{
closed = 1;
nodes = (
(370,43,l),
(370,607,l),
(436,607,l),
(436,43,l)
);
},
{
closed = 1;
nodes = (
(1113,375,o),
(1119,421,o),
(1119,468,cs),
(1119,518,o),
(1114,561,o),
(1089,598,c),
(1092,601,l),
(1148,585,o),
(1188,532,o),
(1188,468,cs),
(1188,405,o),
(1148,351,o),
(1093,336,c),
(1090,339,l)
);
},
{
closed = 1;
nodes = (
(695,584,o),
(717,607,o),
(745,607,cs),
(745,607,o),
(807,607,o),
(862,607,cs),
(917,607,o),
(1026,571,o),
(1026,468,cs),
(1026,380,o),
(940,349,o),
(856,349,cs),
(774,349,o),
(695,378,o),
(695,413,cs),
(695,556,ls)
);
},
{
closed = 1;
nodes = (
(826,298,l),
(909,298,l),
(1107,43,l),
(1024,43,l)
);
},
{
closed = 1;
nodes = (
(1093,763,o),
(1117,862,o),
(1117,862,c),
(826,862,l),
(776,792,o),
(723,752,o),
(567,752,c),
(567,716,l),
(621,716,ls),
(708,716,o),
(891,716,o),
(969,734,c,{
name = hr00;
})
);
},
{
closed = 1;
nodes = (
(795,769,o),
(848,797,o),
(866,834,c),
(930,834,l),
(913,809,o),
(869,760,o),
(765,755,c),
(765,759,l)
);
}
);
};
layerId = master01;
shapes = (
{
ref = R;
},
{
pos = (518,0);
ref = acutecomb.case;
}
);
width = 1585;
}
);
unicode = 340;
},
{
glyphname = Rcaron;
lastChange = "2023-02-16 09:50:32 +0000";
layers = (
{
background = {
shapes = (
{
closed = 1;
nodes = (
(1319,215,l),
(1222,230,o),
(1148,267,o),
(1120,291,c),
(1120,296,l),
(1291,300,o),
(1499,321,o),
(1499,469,cs),
(1499,631,o),
(1295,650,o),
(1147,650,cs),
(73,650,l),
(73,607,l),
(194,607,ls),
(255,607,o),
(303,557,o),
(303,497,cs),
(303,152,ls),
(303,72,o),
(255,43,o),
(194,43,cs),
(73,43,l),
(73,0,l),
(877,0,l),
(877,43,l),
(802,43,ls),
(742,43,o),
(694,72,o),
(694,152,cs),
(694,227,ls),
(694,275,o),
(695,298,o),
(723,298,cs),
(746,298,o),
(778,256,o),
(778,256,cs),
(978,0,l),
(1571,0,l),
(1571,43,l),
(1453,43,l,{
name = hr00;
})
);
},
{
closed = 1;
nodes = (
(370,43,l),
(370,607,l),
(436,607,l),
(436,43,l)
);
},
{
closed = 1;
nodes = (
(1113,375,o),
(1119,421,o),
(1119,468,cs),
(1119,518,o),
(1114,561,o),
(1089,598,c),
(1092,601,l),
(1148,585,o),
(1188,532,o),
(1188,468,cs),
(1188,405,o),
(1148,351,o),
(1093,336,c),
(1090,339,l)
);
},
{
closed = 1;
nodes = (
(695,584,o),
(717,607,o),
(745,607,cs),
(745,607,o),
(807,607,o),
(862,607,cs),
(917,607,o),
(1026,571,o),
(1026,468,cs),
(1026,380,o),
(940,349,o),
(856,349,cs),
(774,349,o),
(695,378,o),
(695,413,cs),
(695,556,ls)
);
},
{
closed = 1;
nodes = (
(826,298,l),
(909,298,l),
(1107,43,l),
(1024,43,l)
);
},
{
closed = 1;
nodes = (
(1138,862,l),
(1051,862,l),
(948,750,l),
(844,862,l),
(547,862,l),
(681,716,l),
(1005,716,l)
);
},
{
closed = 1;
nodes = (
(658,824,l,{
name = hr01;
}),
(720,824,l),
(795,741,l),
(733,741,l)
);
}
);
};
layerId = master01;
shapes = (
{
ref = R;
},
{
pos = (497,0);
ref = caroncomb.case;
}
);
width = 1585;
}
);
unicode = 344;
},
{
glyphname = Rcommaaccent;
lastChange = "2023-02-16 09:50:38 +0000";
layers = (
{
background = {
shapes = (
{
closed = 1;
nodes = (
(1319,215,l),
(1222,230,o),
(1148,267,o),
(1120,291,c),
(1120,296,l),
(1291,300,o),
(1499,321,o),
(1499,469,cs),
(1499,631,o),
(1295,650,o),
(1147,650,cs),
(73,650,l),
(73,607,l),
(194,607,ls),
(255,607,o),
(303,557,o),
(303,497,cs),
(303,152,ls),
(303,72,o),
(255,43,o),
(194,43,cs),
(73,43,l),
(73,0,l),
(877,0,l),
(877,43,l),
(802,43,ls),
(742,43,o),
(694,72,o),
(694,152,cs),
(694,227,ls),
(694,275,o),
(695,298,o),
(723,298,cs),
(746,298,o),
(778,256,o),
(778,256,cs),
(978,0,l),
(1571,0,l),
(1571,43,l),
(1453,43,l,{
name = hr00;
})
);
},
{
closed = 1;
nodes = (
(370,43,l),
(370,607,l),
(436,607,l),
(436,43,l)
);
},
{
closed = 1;
nodes = (
(1113,375,o),
(1119,421,o),
(1119,468,cs),
(1119,518,o),
(1114,561,o),
(1089,598,c),
(1092,601,l),
(1148,585,o),
(1188,532,o),
(1188,468,cs),
(1188,405,o),
(1148,351,o),
(1093,336,c),
(1090,339,l)
);
},
{
closed = 1;
nodes = (
(695,584,o),
(717,607,o),
(745,607,cs),
(745,607,o),
(807,607,o),
(862,607,cs),
(917,607,o),
(1026,571,o),
(1026,468,cs),
(1026,380,o),
(940,349,o),
(856,349,cs),
(774,349,o),
(695,378,o),
(695,413,cs),
(695,556,ls)
);
},
{
closed = 1;
nodes = (
(826,298,l),
(909,298,l),
(1107,43,l),
(1024,43,l)
);
},
{
closed = 1;
nodes = (
(780,-203,o),
(791,-231,o),
(807,-250,c),
(805,-253,l),
(770,-237,o),
(745,-205,o),
(745,-172,cs),
(745,-139,o),
(770,-107,o),
(805,-91,c),
(807,-94,l),
(791,-113,o),
(780,-141,o),
(780,-172,c,{
name = hr00;
})
);
},
{
closed = 1;
nodes = (
(705,-235,o),
(766,-287,o),
(843,-287,cs),
(858,-287,o),
(873,-285,o),
(886,-281,c),
(857,-340,o),
(763,-359,o),
(715,-359,c),
(715,-396,l),
(911,-383,o),
(979,-278,o),
(979,-180,cs),
(979,-109,o),
(918,-59,o),
(843,-59,cs),
(766,-59,o),
(705,-109,o),
(705,-172,cs)
);
}
);
};
layerId = master01;
shapes = (
{
ref = R;
},
{
pos = (706,0);
ref = commaaccentcomb;
}
);
width = 1585;
}
);
unicode = 342;
},
{
glyphname = S;
lastChange = "2023-02-16 10:29:22 +0000";
layers = (
{
anchors = (
{
name = bottom;
pos = (631,0);
},
{
name = top;
pos = (631,650);
}
);
background = {
shapes = (
{
closed = 1;
nodes = (
(96,186,o),
(858,185,o),
(858,70,cs),
(858,27,o),
(768,20,o),
(691,20,cs),
(433,20,o),
(183,185,o),
(141,281,c),
(94,281,l),
(94,0,l,{
name = hr01;
}),
(141,0,l),
(169,58,l),
(332,8,o),
(457,-21,o),
(644,-21,cs,{
name = hr02;
}),
(981,-21,o),
(1166,44,o),
(1166,206,cs),
(1166,526,o),
(431,436,o),
(431,575,cs),
(431,617,o),
(487,629,o),
(558,629,cs),
(733,629,o),
(1035,508,o),
(1083,439,c),
(1130,439,l),
(1130,650,l,{
name = hr03;
}),
(1083,650,l),
(1065,607,l),
(936,636,o),
(706,670,o),
(567,670,cs,{
name = hr04;
}),
(377,670,o),
(96,666,o),
(96,447,cs)
);
},
{
closed = 1;
nodes = (
(909,167,o),
(800,168,o),
(504,244,cs),
(266,305,o),
(157,367,o),
(157,460,cs,{
name = hr05;
}),
(157,482,o),
(162,512,o),
(170,530,c),
(177,529,l),
(202,395,o),
(390,335,o),
(577,291,cs),
(784,241,o),
(977,230,o),
(977,92,cs),
(977,69,l),
(973,68,l)
);
}
);
};
layerId = master01;
shapes = (
{
closed = 1;
nodes = (
(981,-21,o),
(1166,44,o),
(1166,206,cs),
(1166,526,o),
(431,436,o),
(431,575,cs),
(431,617,o),
(487,629,o),
(558,629,cs),
(733,629,o),
(1035,508,o),
(1083,439,c),
(1130,439,l),
(1130,650,l,{
name = hr03;
}),
(1083,650,l),
(1065,607,l),
(936,636,o),
(706,670,o),
(567,670,cs,{
name = hr04;
}),
(377,670,o),
(96,666,o),
(96,447,cs),
(96,186,o),
(858,185,o),
(858,70,cs),
(858,27,o),
(768,20,o),
(691,20,cs),
(433,20,o),
(183,185,o),
(141,281,c),
(94,281,l),
(94,0,l,{
name = hr01;
}),
(141,0,l),
(169,58,l),
(332,8,o),
(457,-21,o),
(644,-21,cs,{
name = hr02;
})
);
},
{
closed = 1;
nodes = (
(909,167,o),
(800,168,o),
(504,244,cs),
(266,305,o),
(157,367,o),
(157,460,cs,{
name = hr05;
}),
(157,482,o),
(162,512,o),
(170,530,c),
(177,529,l),
(202,395,o),
(390,335,o),
(577,291,cs),
(784,241,o),
(977,230,o),
(977,92,cs),
(977,69,l),
(973,68,l)
);
}
);
width = 1261;
}
);
unicode = 83;
},
{
glyphname = Sacute;
lastChange = "2023-02-16 09:44:17 +0000";
layers = (
{
background = {
shapes = (
{
closed = 1;
nodes = (
(96,186,o),
(858,185,o),
(858,70,cs),
(858,27,o),
(768,20,o),
(691,20,cs),
(433,20,o),
(183,185,o),
(141,281,c),
(94,281,l),
(94,0,l,{
name = hr01;
}),
(141,0,l),
(169,58,l),
(332,8,o),
(457,-21,o),
(644,-21,cs,{
name = hr02;
}),
(981,-21,o),
(1166,44,o),
(1166,206,cs),
(1166,526,o),
(431,436,o),
(431,575,cs),
(431,617,o),
(487,629,o),
(558,629,cs),
(733,629,o),
(1035,508,o),
(1083,439,c),
(1130,439,l),
(1130,650,l,{
name = hr03;
}),
(1083,650,l),
(1065,607,l),
(936,636,o),
(706,670,o),
(567,670,cs,{
name = hr04;
}),
(377,670,o),
(96,666,o),
(96,447,cs)
);
},
{
closed = 1;
nodes = (
(909,167,o),
(800,168,o),
(504,244,cs),
(266,305,o),
(157,367,o),
(157,460,cs,{
name = hr05;
}),
(157,482,o),
(162,512,o),
(170,530,c),
(177,529,l),
(202,395,o),
(390,335,o),
(577,291,cs),
(784,241,o),
(977,230,o),
(977,92,cs),
(977,69,l),
(973,68,l)
);
},
{
closed = 1;
nodes = (
(911,763,o),
(935,862,o),
(935,862,c),
(644,862,l),
(594,792,o),
(541,752,o),
(385,752,c),
(385,716,l),
(439,716,ls),
(526,716,o),
(709,716,o),
(787,734,c,{
name = hr00;
})
);
},
{
closed = 1;
nodes = (
(613,769,o),
(666,797,o),
(684,834,c),
(748,834,l),
(731,809,o),
(687,760,o),
(583,755,c),
(583,759,l)
);
}
);
};
layerId = master01;
shapes = (
{
ref = S;
},
{
pos = (306,0);
ref = acutecomb.case;
}
);
width = 1261;
}
);
unicode = 346;
},
{
glyphname = Scaron;
lastChange = "2023-02-16 09:44:17 +0000";
layers = (
{
background = {
shapes = (
{
closed = 1;
nodes = (
(96,186,o),
(858,185,o),
(858,70,cs),
(858,27,o),
(768,20,o),
(691,20,cs),
(433,20,o),
(183,185,o),
(141,281,c),
(94,281,l),
(94,0,l,{
name = hr01;
}),
(141,0,l),
(169,58,l),
(332,8,o),
(457,-21,o),
(644,-21,cs,{
name = hr02;
}),
(981,-21,o),
(1166,44,o),
(1166,206,cs),
(1166,526,o),
(431,436,o),
(431,575,cs),
(431,617,o),
(487,629,o),
(558,629,cs),
(733,629,o),
(1035,508,o),
(1083,439,c),
(1130,439,l),
(1130,650,l,{
name = hr03;
}),
(1083,650,l),
(1065,607,l),
(936,636,o),
(706,670,o),
(567,670,cs,{
name = hr04;
}),
(377,670,o),
(96,666,o),
(96,447,cs)
);
},
{
closed = 1;
nodes = (
(909,167,o),
(800,168,o),
(504,244,cs),
(266,305,o),
(157,367,o),
(157,460,cs,{
name = hr05;
}),
(157,482,o),
(162,512,o),
(170,530,c),
(177,529,l),
(202,395,o),
(390,335,o),
(577,291,cs),
(784,241,o),
(977,230,o),
(977,92,cs),
(977,69,l),
(973,68,l)
);
},
{
closed = 1;
nodes = (
(911,862,l),
(824,862,l),
(721,750,l),
(617,862,l),
(320,862,l),
(454,716,l),
(778,716,l)
);
},
{
closed = 1;
nodes = (
(431,824,l,{
name = hr01;
}),
(493,824,l),
(568,741,l),
(506,741,l)
);
}
);
};
layerId = master01;
shapes = (
{
ref = S;
},
{
pos = (285,0);
ref = caroncomb.case;
}
);
width = 1261;
}
);
unicode = 352;
},
{
glyphname = Scedilla;
lastChange = "2023-02-16 09:44:17 +0000";
layers = (
{
background = {
shapes = (
{
closed = 1;
nodes = (
(96,186,o),
(858,185,o),
(858,70,cs),
(858,27,o),
(768,20,o),
(691,20,cs),
(433,20,o),
(183,185,o),
(141,281,c),
(94,281,l),
(94,0,l,{
name = hr01;
}),
(141,0,l),
(169,58,l),
(332,8,o),
(457,-21,o),
(644,-21,cs,{
name = hr02;
}),
(981,-21,o),
(1166,44,o),
(1166,206,cs),
(1166,526,o),
(431,436,o),
(431,575,cs),
(431,617,o),
(487,629,o),
(558,629,cs),
(733,629,o),
(1035,508,o),
(1083,439,c),
(1130,439,l),
(1130,650,l,{
name = hr03;
}),
(1083,650,l),
(1065,607,l),
(936,636,o),
(706,670,o),
(567,670,cs,{
name = hr04;
}),
(377,670,o),
(96,666,o),
(96,447,cs)
);
},
{
closed = 1;
nodes = (
(909,167,o),
(800,168,o),
(504,244,cs),
(266,305,o),
(157,367,o),
(157,460,cs,{
name = hr05;
}),
(157,482,o),
(162,512,o),
(170,530,c),
(177,529,l),
(202,395,o),
(390,335,o),
(577,291,cs),
(784,241,o),
(977,230,o),
(977,92,cs),
(977,69,l),
(973,68,l)
);
},
{
closed = 1;
nodes = (
(448,-207,o),
(535,-223,o),
(630,-223,cs),
(738,-223,o),
(863,-212,o),
(863,-133,cs),
(863,-35,o),
(692,16,o),
(522,16,c),
(522,0,l),
(610,-13,o),
(653,-50,o),
(653,-105,cs),
(653,-154,o),
(618,-175,o),
(575,-175,cs),
(522,-175,o),
(457,-132,o),
(436,-79,c),
(397,-79,l),
(397,-188,l)
);
},
{
closed = 1;
nodes = (
(723,-41,o),
(763,-65,o),
(763,-107,cs,{
name = hr01;
}),
(763,-146,o),
(711,-178,o),
(671,-188,c),
(668,-182,l),
(696,-169,o),
(713,-137,o),
(713,-107,cs),
(713,-74,o),
(698,-49,o),
(667,-30,c),
(671,-24,l)
);
}
);
};
layerId = master01;
shapes = (
{
ref = S;
},
{
pos = (348,0);
ref = cedillacomb;
}
);
width = 1261;
}
);
unicode = 350;
},
{
glyphname = Scircumflex;
lastChange = "2023-02-16 09:44:17 +0000";
layers = (
{
background = {
shapes = (
{
closed = 1;
nodes = (
(96,186,o),
(858,185,o),
(858,70,cs),
(858,27,o),
(768,20,o),
(691,20,cs),
(433,20,o),
(183,185,o),
(141,281,c),
(94,281,l),
(94,0,l,{
name = hr01;
}),
(141,0,l),
(169,58,l),
(332,8,o),
(457,-21,o),
(644,-21,cs,{
name = hr02;
}),
(981,-21,o),
(1166,44,o),
(1166,206,cs),
(1166,526,o),
(431,436,o),
(431,575,cs),
(431,617,o),
(487,629,o),
(558,629,cs),
(733,629,o),
(1035,508,o),
(1083,439,c),
(1130,439,l),
(1130,650,l,{
name = hr03;
}),
(1083,650,l),
(1065,607,l),
(936,636,o),
(706,670,o),
(567,670,cs,{
name = hr04;
}),
(377,670,o),
(96,666,o),
(96,447,cs)
);
},
{
closed = 1;
nodes = (
(909,167,o),
(800,168,o),
(504,244,cs),
(266,305,o),
(157,367,o),
(157,460,cs,{
name = hr05;
}),
(157,482,o),
(162,512,o),
(170,530,c),
(177,529,l),
(202,395,o),
(390,335,o),
(577,291,cs),
(784,241,o),
(977,230,o),
(977,92,cs),
(977,69,l),
(973,68,l)
);
},
{
closed = 1;
nodes = (
(335,716,l),
(632,716,l),
(736,828,l),
(839,716,l),
(926,716,l),
(793,862,l),
(469,862,l,{
name = hr00;
})
);
},
{
closed = 1;
nodes = (
(508,754,l),
(446,754,l),
(521,837,l),
(583,837,l)
);
}
);
};
layerId = master01;
shapes = (
{
ref = S;
},
{
pos = (285,0);
ref = circumflexcomb.case;
}
);
width = 1261;
}
);
unicode = 348;
},
{
glyphname = Scommaaccent;
lastChange = "2023-02-16 09:44:17 +0000";
layers = (
{
background = {
shapes = (
{
closed = 1;
nodes = (
(96,186,o),
(858,185,o),
(858,70,cs),
(858,27,o),
(768,20,o),
(691,20,cs),
(433,20,o),
(183,185,o),
(141,281,c),
(94,281,l),
(94,0,l,{
name = hr01;
}),
(141,0,l),
(169,58,l),
(332,8,o),
(457,-21,o),
(644,-21,cs,{
name = hr02;
}),
(981,-21,o),
(1166,44,o),
(1166,206,cs),
(1166,526,o),
(431,436,o),
(431,575,cs),
(431,617,o),
(487,629,o),
(558,629,cs),
(733,629,o),
(1035,508,o),
(1083,439,c),
(1130,439,l),
(1130,650,l,{
name = hr03;
}),
(1083,650,l),
(1065,607,l),
(936,636,o),
(706,670,o),
(567,670,cs,{
name = hr04;
}),
(377,670,o),
(96,666,o),
(96,447,cs)
);
},
{
closed = 1;
nodes = (
(909,167,o),
(800,168,o),
(504,244,cs),
(266,305,o),
(157,367,o),
(157,460,cs,{
name = hr05;
}),
(157,482,o),
(162,512,o),
(170,530,c),
(177,529,l),
(202,395,o),
(390,335,o),
(577,291,cs),
(784,241,o),
(977,230,o),
(977,92,cs),
(977,69,l),
(973,68,l)
);
},
{
closed = 1;
nodes = (
(568,-203,o),
(579,-231,o),
(595,-250,c),
(593,-253,l),
(558,-237,o),
(533,-205,o),
(533,-172,cs),
(533,-139,o),
(558,-107,o),
(593,-91,c),
(595,-94,l),
(579,-113,o),
(568,-141,o),
(568,-172,c,{
name = hr00;
})
);
},
{
closed = 1;
nodes = (
(493,-235,o),
(554,-287,o),
(631,-287,cs),
(646,-287,o),
(661,-285,o),
(674,-281,c),
(645,-340,o),
(551,-359,o),
(503,-359,c),
(503,-396,l),
(699,-383,o),
(767,-278,o),
(767,-180,cs),
(767,-109,o),
(706,-59,o),
(631,-59,cs),
(554,-59,o),
(493,-109,o),
(493,-172,cs)
);
}
);
};
layerId = master01;
shapes = (
{
ref = S;
},
{
pos = (494,0);
ref = commaaccentcomb;
}
);
width = 1261;
}
);
unicode = 536;
},
{
glyphname = T;
kernLeft = T;
kernRight = T;
lastChange = "2023-02-16 10:29:22 +0000";
layers = (
{
anchors = (
{
name = bottom;
pos = (552,0);
},
{
name = center;
pos = (552,325);
},
{
name = top;
pos = (552,650);
}
);
background = {
shapes = (
{
closed = 1;
nodes = (
(846,606,o),
(1017,365,o),
(1017,365,c),
(1055,365,l),
(1055,650,l),
(66,650,l),
(66,365,l),
(86,365,l),
(86,365,o),
(258,606,o),
(319,606,cs),
(346,606,o),
(356,587,o),
(356,557,cs,{
name = hr01;
}),
(356,152,ls),
(356,72,o),
(308,43,o),
(248,43,cs),
(127,43,l),
(127,0,l),
(977,0,l),
(977,43,l),
(856,43,ls),
(796,43,o),
(747,72,o),
(747,152,cs),
(747,557,ls),
(747,587,o),
(758,606,o),
(785,606,cs)
);
},
{
closed = 1;
nodes = (
(424,43,l),
(424,607,l),
(489,607,l),
(489,43,l)
);
}
);
};
layerId = master01;
shapes = (
{
closed = 1;
nodes = (
(977,0,l),
(977,43,l),
(856,43,ls),
(796,43,o),
(747,72,o),
(747,152,cs),
(747,557,ls),
(747,587,o),
(758,606,o),
(785,606,cs),
(846,606,o),
(1017,365,o),
(1017,365,c),
(1055,365,l),
(1055,650,l),
(66,650,l),
(66,365,l),
(86,365,l),
(86,365,o),
(258,606,o),
(319,606,cs),
(346,606,o),
(356,587,o),
(356,557,cs,{
name = hr01;
}),
(356,152,ls),
(356,72,o),
(308,43,o),
(248,43,cs),
(127,43,l),
(127,0,l)
);
},
{
closed = 1;
nodes = (
(424,607,l),
(489,607,l),
(489,43,l),
(424,43,l)
);
}
);
width = 1104;
}
);
unicode = 84;
},
{
glyphname = Tbar;
kernLeft = T;
kernRight = T;
lastChange = "2023-02-16 10:29:22 +0000";
layers = (
{
background = {
shapes = (
{
closed = 1;
nodes = (
(216,310,l),
(216,238,l),
(394,238,l),
(394,310,l,{
name = hr00;
})
);
},
{
closed = 1;
nodes = (
(710,310,l),
(710,238,l),
(888,238,l),
(888,310,l)
);
},
{
closed = 1;
nodes = (
(846,606,o),
(1017,365,o),
(1017,365,c),
(1055,365,l),
(1055,650,l),
(66,650,l),
(66,365,l),
(86,365,l),
(86,365,o),
(258,606,o),
(319,606,cs),
(346,606,o),
(356,587,o),
(356,557,cs,{
name = hr01;
}),
(356,152,ls),
(356,72,o),
(308,43,o),
(248,43,cs),
(127,43,l),
(127,0,l),
(977,0,l),
(977,43,l),
(856,43,ls),
(796,43,o),
(747,72,o),
(747,152,cs),
(747,557,ls),
(747,587,o),
(758,606,o),
(785,606,cs)
);
},
{
closed = 1;
nodes = (
(424,43,l),
(424,607,l),
(489,607,l),
(489,43,l)
);
}
);
};
layerId = master01;
shapes = (
{
closed = 1;
nodes = (
(888,238,l),
(888,310,l),
(710,310,l),
(710,238,l)
);
},
{
closed = 1;
nodes = (
(394,238,l),
(394,310,l,{
name = hr00;
}),
(216,310,l),
(216,238,l)
);
},
{
ref = T;
}
);
width = 1104;
}
);
unicode = 358;
},
{
glyphname = Tcaron;
kernLeft = T;
kernRight = T;
lastChange = "2023-02-16 09:44:17 +0000";
layers = (
{
background = {
shapes = (
{
closed = 1;
nodes = (
(846,606,o),
(1017,365,o),
(1017,365,c),
(1055,365,l),
(1055,650,l),
(66,650,l),
(66,365,l),
(86,365,l),
(86,365,o),
(258,606,o),
(319,606,cs),
(346,606,o),
(356,587,o),
(356,557,cs,{
name = hr01;
}),
(356,152,ls),
(356,72,o),
(308,43,o),
(248,43,cs),
(127,43,l),
(127,0,l),
(977,0,l),
(977,43,l),
(856,43,ls),
(796,43,o),
(747,72,o),
(747,152,cs),
(747,557,ls),
(747,587,o),
(758,606,o),
(785,606,cs)
);
},
{
closed = 1;
nodes = (
(424,43,l),
(424,607,l),
(489,607,l),
(489,43,l)
);
},
{
closed = 1;
nodes = (
(847,862,l),
(760,862,l),
(657,750,l),
(553,862,l),
(256,862,l),
(390,716,l),
(714,716,l,{
name = hr00;
})
);
},
{
closed = 1;
nodes = (
(367,824,l),
(429,824,l),
(504,741,l),
(442,741,l)
);
}
);
};
layerId = master01;
shapes = (
{
ref = T;
},
{
pos = (206,0);
ref = caroncomb.case;
}
);
width = 1104;
}
);
unicode = 356;
},
{
glyphname = Tcedilla;
kernLeft = T;
kernRight = T;
lastChange = "2023-02-16 09:44:17 +0000";
layers = (
{
background = {
shapes = (
{
closed = 1;
nodes = (
(846,606,o),
(1017,365,o),
(1017,365,c),
(1055,365,l),
(1055,650,l),
(66,650,l),
(66,365,l),
(86,365,l),
(86,365,o),
(258,606,o),
(319,606,cs),
(346,606,o),
(356,587,o),
(356,557,cs,{
name = hr01;
}),
(356,152,ls),
(356,72,o),
(308,43,o),
(248,43,cs),
(127,43,l),
(127,0,l),
(977,0,l),
(977,43,l),
(856,43,ls),
(796,43,o),
(747,72,o),
(747,152,cs),
(747,557,ls),
(747,587,o),
(758,606,o),
(785,606,cs)
);
},
{
closed = 1;
nodes = (
(424,43,l),
(424,607,l),
(489,607,l),
(489,43,l)
);
},
{
closed = 1;
nodes = (
(370,-207,o),
(457,-223,o),
(552,-223,cs),
(660,-223,o),
(785,-212,o),
(785,-133,cs),
(785,-35,o),
(614,16,o),
(444,16,c),
(444,0,l),
(532,-13,o),
(575,-50,o),
(575,-105,cs),
(575,-154,o),
(540,-175,o),
(497,-175,cs),
(444,-175,o),
(379,-132,o),
(358,-79,c),
(319,-79,l),
(319,-188,l)
);
},
{
closed = 1;
nodes = (
(645,-41,o),
(685,-65,o),
(685,-107,cs,{
name = hr01;
}),
(685,-146,o),
(633,-178,o),
(593,-188,c),
(590,-182,l),
(618,-169,o),
(635,-137,o),
(635,-107,cs),
(635,-74,o),
(620,-49,o),
(589,-30,c),
(593,-24,l)
);
}
);
};
layerId = master01;
shapes = (
{
ref = T;
},
{
pos = (269,0);
ref = cedillacomb;
}
);
width = 1104;
}
);
unicode = 354;
},
{
glyphname = Tcommaaccent;
kernLeft = T;
kernRight = T;
lastChange = "2023-02-16 09:44:17 +0000";
layers = (
{
background = {
shapes = (
{
closed = 1;
nodes = (
(846,606,o),
(1017,365,o),
(1017,365,c),
(1055,365,l),
(1055,650,l),
(66,650,l),
(66,365,l),
(86,365,l),
(86,365,o),
(258,606,o),
(319,606,cs),
(346,606,o),
(356,587,o),
(356,557,cs,{
name = hr01;
}),
(356,152,ls),
(356,72,o),
(308,43,o),
(248,43,cs),
(127,43,l),
(127,0,l),
(977,0,l),
(977,43,l),
(856,43,ls),
(796,43,o),
(747,72,o),
(747,152,cs),
(747,557,ls),
(747,587,o),
(758,606,o),
(785,606,cs)
);
},
{
closed = 1;
nodes = (
(424,43,l),
(424,607,l),
(489,607,l),
(489,43,l)
);
},
{
closed = 1;
nodes = (
(490,-203,o),
(501,-231,o),
(517,-250,c),
(515,-253,l),
(480,-237,o),
(455,-205,o),
(455,-172,cs),
(455,-139,o),
(480,-107,o),
(515,-91,c),
(517,-94,l),
(501,-113,o),
(490,-141,o),
(490,-172,c,{
name = hr00;
})
);
},
{
closed = 1;
nodes = (
(415,-235,o),
(476,-287,o),
(553,-287,cs),
(568,-287,o),
(583,-285,o),
(596,-281,c),
(567,-340,o),
(473,-359,o),
(425,-359,c),
(425,-396,l),
(621,-383,o),
(689,-278,o),
(689,-180,cs),
(689,-109,o),
(628,-59,o),
(553,-59,cs),
(476,-59,o),
(415,-109,o),
(415,-172,cs)
);
}
);
};
layerId = master01;
shapes = (
{
ref = T;
},
{
pos = (415,0);
ref = commaaccentcomb;
}
);
width = 1104;
}
);
unicode = 538;
},
{
glyphname = U;
kernLeft = U;
kernRight = U;
lastChange = "2023-02-16 10:29:22 +0000";
layers = (
{
anchors = (
{
name = bottom;
pos = (609,0);
},
{
name = ogonek;
pos = (901,22);
},
{
name = top;
pos = (649,650);
},
{
name = topright;
pos = (1197,650);
}
);
background = {
shapes = (
{
closed = 1;
nodes = (
(757,607,l),
(818,607,o),
(947,584,o),
(947,411,cs),
(947,174,ls),
(947,97,o),
(904,31,o),
(692,31,cs),
(608,31,o),
(577,73,o),
(577,167,cs),
(577,499,ls),
(577,579,o),
(625,607,o),
(685,607,cs),
(701,607,l),
(701,650,l),
(40,650,l),
(40,607,l),
(78,607,ls),
(138,607,o),
(186,579,o),
(186,499,cs),
(186,177,ls),
(186,96,o),
(220,-22,o),
(652,-22,cs),
(1000,-22,o),
(1012,96,o),
(1012,220,cs),
(1012,411,ls),
(1012,584,o),
(1113,607,o),
(1212,607,c),
(1212,650,l),
(757,650,l,{
name = hr00;
})
);
},
{
closed = 1;
nodes = (
(319,607,l),
(319,88,l),
(315,88,o),
(254,88,o),
(254,210,cs),
(254,334,o),
(254,607,o),
(254,607,c)
);
}
);
};
layerId = master01;
shapes = (
{
closed = 1;
nodes = (
(1000,-22,o),
(1012,96,o),
(1012,220,cs),
(1012,411,ls),
(1012,584,o),
(1113,607,o),
(1212,607,c),
(1212,650,l),
(757,650,l,{
name = hr00;
}),
(757,607,l),
(818,607,o),
(947,584,o),
(947,411,cs),
(947,174,ls),
(947,97,o),
(904,31,o),
(692,31,cs),
(608,31,o),
(577,73,o),
(577,167,cs),
(577,499,ls),
(577,579,o),
(625,607,o),
(685,607,cs),
(701,607,l),
(701,650,l),
(40,650,l),
(40,607,l),
(78,607,ls),
(138,607,o),
(186,579,o),
(186,499,cs),
(186,177,ls),
(186,96,o),
(220,-22,o),
(652,-22,cs)
);
},
{
closed = 1;
nodes = (
(315,88,o),
(254,88,o),
(254,210,cs),
(254,334,o),
(254,607,o),
(254,607,c),
(319,607,l),
(319,88,l)
);
}
);
width = 1217;
}
);
unicode = 85;
},
{
glyphname = Uacute;
kernLeft = U;
kernRight = U;
lastChange = "2023-02-16 09:50:52 +0000";
layers = (
{
background = {
shapes = (
{
closed = 1;
nodes = (
(757,607,l),
(818,607,o),
(947,584,o),
(947,411,cs),
(947,174,ls),
(947,97,o),
(904,31,o),
(692,31,cs),
(608,31,o),
(577,73,o),
(577,167,cs),
(577,499,ls),
(577,579,o),
(625,607,o),
(685,607,cs),
(701,607,l),
(701,650,l),
(40,650,l),
(40,607,l),
(78,607,ls),
(138,607,o),
(186,579,o),
(186,499,cs),
(186,177,ls),
(186,96,o),
(220,-22,o),
(652,-22,cs),
(1000,-22,o),
(1012,96,o),
(1012,220,cs),
(1012,411,ls),
(1012,584,o),
(1113,607,o),
(1212,607,c),
(1212,650,l),
(757,650,l,{
name = hr00;
})
);
},
{
closed = 1;
nodes = (
(319,607,l),
(319,88,l),
(315,88,o),
(254,88,o),
(254,210,cs),
(254,334,o),
(254,607,o),
(254,607,c)
);
},
{
closed = 1;
nodes = (
(899,763,o),
(923,862,o),
(923,862,c),
(632,862,l),
(582,792,o),
(529,752,o),
(373,752,c),
(373,716,l,{
name = hr01;
}),
(427,716,ls),
(514,716,o),
(697,716,o),
(775,734,c)
);
},
{
closed = 1;
nodes = (
(601,769,o),
(654,797,o),
(672,834,c),
(736,834,l),
(719,809,o),
(675,760,o),
(571,755,c),
(571,759,l)
);
}
);
};
layerId = master01;
shapes = (
{
ref = U;
},
{
pos = (324,0);
ref = acutecomb.case;
}
);
width = 1217;
}
);
unicode = 218;
},
{
glyphname = Ubreve;
kernLeft = U;
kernRight = U;
lastChange = "2023-02-16 09:50:52 +0000";
layers = (
{
background = {
shapes = (
{
closed = 1;
nodes = (
(757,607,l),
(818,607,o),
(947,584,o),
(947,411,cs),
(947,174,ls),
(947,97,o),
(904,31,o),
(692,31,cs),
(608,31,o),
(577,73,o),
(577,167,cs),
(577,499,ls),
(577,579,o),
(625,607,o),
(685,607,cs),
(701,607,l),
(701,650,l),
(40,650,l),
(40,607,l),
(78,607,ls),
(138,607,o),
(186,579,o),
(186,499,cs),
(186,177,ls),
(186,96,o),
(220,-22,o),
(652,-22,cs),
(1000,-22,o),
(1012,96,o),
(1012,220,cs),
(1012,411,ls),
(1012,584,o),
(1113,607,o),
(1212,607,c),
(1212,650,l),
(757,650,l,{
name = hr00;
})
);
},
{
closed = 1;
nodes = (
(319,607,l),
(319,88,l),
(315,88,o),
(254,88,o),
(254,210,cs),
(254,334,o),
(254,607,o),
(254,607,c)
);
},
{
closed = 1;
nodes = (
(528,818,o),
(475,846,o),
(434,879,c),
(413,873,l),
(413,768,o),
(502,683,o),
(609,683,cs),
(718,683,o),
(803,768,o),
(803,873,c),
(783,879,l),
(743,846,o),
(691,818,o),
(609,818,cs)
);
},
{
closed = 1;
nodes = (
(663,755,o),
(711,773,o),
(743,797,c),
(748,794,l),
(721,746,o),
(667,715,o),
(609,715,cs),
(552,715,o),
(498,746,o),
(471,794,c),
(476,797,l),
(508,773,o),
(558,755,o),
(609,755,cs,{
name = hr01;
})
);
}
);
};
layerId = master01;
shapes = (
{
ref = U;
},
{
pos = (404,0);
ref = brevecomb.case;
}
);
width = 1217;
}
);
unicode = 364;
},
{
glyphname = Ucircumflex;
kernLeft = U;
kernRight = U;
lastChange = "2023-02-16 09:50:52 +0000";
layers = (
{
background = {
shapes = (
{
closed = 1;
nodes = (
(757,607,l),
(818,607,o),
(947,584,o),
(947,411,cs),
(947,174,ls),
(947,97,o),
(904,31,o),
(692,31,cs),
(608,31,o),
(577,73,o),
(577,167,cs),
(577,499,ls),
(577,579,o),
(625,607,o),
(685,607,cs),
(701,607,l),
(701,650,l),
(40,650,l),
(40,607,l),
(78,607,ls),
(138,607,o),
(186,579,o),
(186,499,cs),
(186,177,ls),
(186,96,o),
(220,-22,o),
(652,-22,cs),
(1000,-22,o),
(1012,96,o),
(1012,220,cs),
(1012,411,ls),
(1012,584,o),
(1113,607,o),
(1212,607,c),
(1212,650,l),
(757,650,l,{
name = hr00;
})
);
},
{
closed = 1;
nodes = (
(319,607,l),
(319,88,l),
(315,88,o),
(254,88,o),
(254,210,cs),
(254,334,o),
(254,607,o),
(254,607,c)
);
},
{
closed = 1;
nodes = (
(358,716,l),
(655,716,l),
(759,828,l),
(862,716,l),
(949,716,l),
(816,862,l),
(492,862,l)
);
},
{
closed = 1;
nodes = (
(531,754,l),
(469,754,l),
(544,837,l),
(606,837,l,{
name = hr01;
})
);
}
);
};
layerId = master01;
shapes = (
{
ref = U;
},
{
pos = (303,0);
ref = circumflexcomb.case;
}
);
width = 1217;
}
);
unicode = 219;
},
{
glyphname = Udieresis;
kernLeft = U;
kernRight = U;
lastChange = "2023-02-16 09:50:52 +0000";
layers = (
{
background = {
shapes = (
{
closed = 1;
nodes = (
(757,607,l),
(818,607,o),
(947,584,o),
(947,411,cs),
(947,174,ls),
(947,97,o),
(904,31,o),
(692,31,cs),
(608,31,o),
(577,73,o),
(577,167,cs),
(577,499,ls),
(577,579,o),
(625,607,o),
(685,607,cs),
(701,607,l),
(701,650,l),
(40,650,l),
(40,607,l),
(78,607,ls),
(138,607,o),
(186,579,o),
(186,499,cs),
(186,177,ls),
(186,96,o),
(220,-22,o),
(652,-22,cs),
(1000,-22,o),
(1012,96,o),
(1012,220,cs),
(1012,411,ls),
(1012,584,o),
(1113,607,o),
(1212,607,c),
(1212,650,l),
(757,650,l,{
name = hr00;
})
);
},
{
closed = 1;
nodes = (
(319,607,l),
(319,88,l),
(315,88,o),
(254,88,o),
(254,210,cs),
(254,334,o),
(254,607,o),
(254,607,c)
);
},
{
closed = 1;
nodes = (
(1029,861,o),
(968,913,o),
(891,913,cs),
(816,913,o),
(755,861,o),
(755,798,cs),
(755,735,o),
(816,685,o),
(891,685,cs),
(968,685,o),
(1029,735,o),
(1029,798,c,{
name = hr00;
})
);
},
{
closed = 1;
nodes = (
(573,861,o),
(512,913,o),
(435,913,cs),
(360,913,o),
(299,861,o),
(299,798,cs),
(299,735,o),
(360,685,o),
(435,685,cs),
(512,685,o),
(573,735,o),
(573,798,c)
);
},
{
closed = 1;
nodes = (
(377,762,o),
(389,732,o),
(408,711,c),
(405,708,l),
(365,725,o),
(336,760,o),
(336,798,cs),
(336,836,o),
(365,871,o),
(405,888,c),
(408,885,l),
(389,864,o),
(377,834,o),
(377,798,c)
);
},
{
closed = 1;
nodes = (
(833,762,o),
(845,732,o),
(864,711,c),
(861,708,l),
(821,725,o),
(792,760,o),
(792,798,cs),
(792,836,o),
(821,871,o),
(861,888,c),
(864,885,l),
(845,864,o),
(833,834,o),
(833,798,cs)
);
}
);
};
layerId = master01;
shapes = (
{
ref = U;
},
{
pos = (207,0);
ref = dieresiscomb.case;
}
);
width = 1217;
}
);
unicode = 220;
},
{
glyphname = Ugrave;
kernLeft = U;
kernRight = U;
lastChange = "2023-02-16 09:50:52 +0000";
layers = (
{
background = {
shapes = (
{
closed = 1;
nodes = (
(757,607,l),
(818,607,o),
(947,584,o),
(947,411,cs),
(947,174,ls),
(947,97,o),
(904,31,o),
(692,31,cs),
(608,31,o),
(577,73,o),
(577,167,cs),
(577,499,ls),
(577,579,o),
(625,607,o),
(685,607,cs),
(701,607,l),
(701,650,l),
(40,650,l),
(40,607,l),
(78,607,ls),
(138,607,o),
(186,579,o),
(186,499,cs),
(186,177,ls),
(186,96,o),
(220,-22,o),
(652,-22,cs),
(1000,-22,o),
(1012,96,o),
(1012,220,cs),
(1012,411,ls),
(1012,584,o),
(1113,607,o),
(1212,607,c),
(1212,650,l),
(757,650,l,{
name = hr00;
})
);
},
{
closed = 1;
nodes = (
(319,607,l),
(319,88,l),
(315,88,o),
(254,88,o),
(254,210,cs),
(254,334,o),
(254,607,o),
(254,607,c)
);
},
{
closed = 1;
nodes = (
(569,716,o),
(752,716,o),
(839,716,cs),
(893,716,l),
(893,752,l,{
name = hr01;
}),
(737,752,o),
(684,792,o),
(634,862,c),
(343,862,l),
(343,862,o),
(367,763,o),
(491,734,cs)
);
},
{
closed = 1;
nodes = (
(477,760,o),
(433,809,o),
(416,834,c),
(480,834,l),
(498,797,o),
(551,769,o),
(581,759,c),
(581,755,l)
);
}
);
};
layerId = master01;
shapes = (
{
ref = U;
},
{
pos = (324,0);
ref = gravecomb.case;
}
);
width = 1217;
}
);
unicode = 217;
},
{
glyphname = Uhungarumlaut;
kernLeft = U;
kernRight = U;
lastChange = "2023-02-16 09:50:52 +0000";
layers = (
{
background = {
shapes = (
{
closed = 1;
nodes = (
(757,607,l),
(818,607,o),
(947,584,o),
(947,411,cs),
(947,174,ls),
(947,97,o),
(904,31,o),
(692,31,cs),
(608,31,o),
(577,73,o),
(577,167,cs),
(577,499,ls),
(577,579,o),
(625,607,o),
(685,607,cs),
(701,607,l),
(701,650,l),
(40,650,l),
(40,607,l),
(78,607,ls),
(138,607,o),
(186,579,o),
(186,499,cs),
(186,177,ls),
(186,96,o),
(220,-22,o),
(652,-22,cs),
(1000,-22,o),
(1012,96,o),
(1012,220,cs),
(1012,411,ls),
(1012,584,o),
(1113,607,o),
(1212,607,c),
(1212,650,l),
(757,650,l,{
name = hr00;
})
);
},
{
closed = 1;
nodes = (
(319,607,l),
(319,88,l),
(315,88,o),
(254,88,o),
(254,210,cs),
(254,334,o),
(254,607,o),
(254,607,c)
);
},
{
closed = 1;
nodes = (
(701,765,o),
(724,862,o),
(724,862,c),
(483,862,l),
(441,792,o),
(396,752,o),
(294,752,c,{
name = hr01;
}),
(294,716,l,{
name = hr02;
}),
(309,716,ls),
(382,716,o),
(510,717,o),
(580,734,cs)
);
},
{
closed = 1;
nodes = (
(452,769,o),
(505,797,o),
(523,834,c,{
name = hr03;
}),
(587,834,l),
(570,809,o),
(526,760,o),
(422,755,c),
(422,759,l)
);
},
{
closed = 1;
nodes = (
(1100,765,o),
(1123,862,o),
(1123,862,c,{
name = hr04;
}),
(882,862,l),
(840,792,o),
(795,752,o),
(693,752,c,{
name = hr05;
}),
(693,716,l,{
name = hr06;
}),
(708,716,ls),
(781,716,o),
(909,717,o),
(979,734,cs)
);
},
{
closed = 1;
nodes = (
(851,769,o),
(904,797,o),
(922,834,c,{
name = hr07;
}),
(986,834,l),
(969,809,o),
(925,760,o),
(821,755,c),
(821,759,l)
);
}
);
};
layerId = master01;
shapes = (
{
ref = U;
},
{
pos = (224,0);
ref = hungarumlautcomb.case;
}
);
width = 1217;
}
);
unicode = 368;
},
{
glyphname = Umacron;
kernLeft = U;
kernRight = U;
lastChange = "2023-02-16 09:50:52 +0000";
layers = (
{
background = {
shapes = (
{
closed = 1;
nodes = (
(757,607,l),
(818,607,o),
(947,584,o),
(947,411,cs),
(947,174,ls),
(947,97,o),
(904,31,o),
(692,31,cs),
(608,31,o),
(577,73,o),
(577,167,cs),
(577,499,ls),
(577,579,o),
(625,607,o),
(685,607,cs),
(701,607,l),
(701,650,l),
(40,650,l),
(40,607,l),
(78,607,ls),
(138,607,o),
(186,579,o),
(186,499,cs),
(186,177,ls),
(186,96,o),
(220,-22,o),
(652,-22,cs),
(1000,-22,o),
(1012,96,o),
(1012,220,cs),
(1012,411,ls),
(1012,584,o),
(1113,607,o),
(1212,607,c),
(1212,650,l),
(757,650,l,{
name = hr00;
})
);
},
{
closed = 1;
nodes = (
(319,607,l),
(319,88,l),
(315,88,o),
(254,88,o),
(254,210,cs),
(254,334,o),
(254,607,o),
(254,607,c)
);
},
{
closed = 1;
nodes = (
(811,722,l),
(811,856,l),
(406,856,l),
(406,722,l,{
name = hr00;
})
);
},
{
closed = 1;
nodes = (
(467,742,l),
(467,836,l),
(521,836,l),
(521,742,l)
);
}
);
};
layerId = master01;
shapes = (
{
ref = U;
},
{
pos = (396,0);
ref = macroncomb.case;
}
);
width = 1217;
}
);
unicode = 362;
},
{
glyphname = Uogonek;
kernLeft = U;
kernRight = U;
lastChange = "2023-02-16 09:51:04 +0000";
layers = (
{
background = {
shapes = (
{
closed = 1;
nodes = (
(757,607,l),
(818,607,o),
(947,584,o),
(947,411,cs),
(947,174,ls),
(947,97,o),
(904,31,o),
(692,31,cs),
(608,31,o),
(577,73,o),
(577,167,cs),
(577,499,ls),
(577,579,o),
(625,607,o),
(685,607,cs),
(701,607,l),
(701,650,l),
(40,650,l),
(40,607,l),
(78,607,ls),
(138,607,o),
(186,579,o),
(186,499,cs),
(186,177,ls),
(186,96,o),
(220,-22,o),
(652,-22,cs),
(1000,-22,o),
(1012,96,o),
(1012,220,cs),
(1012,411,ls),
(1012,584,o),
(1113,607,o),
(1212,607,c),
(1212,650,l),
(757,650,l,{
name = hr00;
})
);
},
{
closed = 1;
nodes = (
(319,607,l),
(319,88,l),
(315,88,o),
(254,88,o),
(254,210,cs),
(254,334,o),
(254,607,o),
(254,607,c)
);
},
{
closed = 1;
nodes = (
(862,-80,l),
(841,-133,o),
(776,-176,o),
(723,-176,cs),
(680,-176,o),
(645,-155,o),
(645,-106,cs),
(645,-51,o),
(688,-7,o),
(776,6,c),
(776,22,l),
(606,11,o),
(435,-36,o),
(435,-134,cs),
(435,-213,o),
(560,-224,o),
(668,-224,cs),
(763,-224,o),
(850,-208,o),
(901,-189,c),
(901,-80,l,{
name = hr00;
})
);
},
{
closed = 1;
nodes = (
(539,-62,o),
(525,-88,o),
(525,-119,cs),
(525,-148,o),
(551,-184,o),
(579,-196,c),
(577,-201,l),
(512,-193,o),
(475,-161,o),
(475,-124,cs),
(475,-84,o),
(515,-55,o),
(567,-39,c),
(570,-44,l)
);
}
);
};
layerId = master01;
shapes = (
{
ref = U;
},
{
pos = (385,0);
ref = ogonekcomb;
}
);
width = 1217;
}
);
unicode = 370;
},
{
glyphname = Uring;
kernLeft = U;
kernRight = U;
lastChange = "2023-02-16 09:50:52 +0000";
layers = (
{
background = {
shapes = (
{
closed = 1;
nodes = (
(757,607,l),
(818,607,o),
(947,584,o),
(947,411,cs),
(947,174,ls),
(947,97,o),
(904,31,o),
(692,31,cs),
(608,31,o),
(577,73,o),
(577,167,cs),
(577,499,ls),
(577,579,o),
(625,607,o),
(685,607,cs),
(701,607,l),
(701,650,l),
(40,650,l),
(40,607,l),
(78,607,ls),
(138,607,o),
(186,579,o),
(186,499,cs),
(186,177,ls),
(186,96,o),
(220,-22,o),
(652,-22,cs),
(1000,-22,o),
(1012,96,o),
(1012,220,cs),
(1012,411,ls),
(1012,584,o),
(1113,607,o),
(1212,607,c),
(1212,650,l),
(757,650,l,{
name = hr00;
})
);
},
{
closed = 1;
nodes = (
(319,607,l),
(319,88,l),
(315,88,o),
(254,88,o),
(254,210,cs),
(254,334,o),
(254,607,o),
(254,607,c)
);
},
{
closed = 1;
nodes = (
(559,853,o),
(581,897,o),
(607,897,cs),
(633,897,o),
(655,853,o),
(655,798,cs),
(655,743,o),
(633,699,o),
(607,699,cs),
(581,699,o),
(559,743,o),
(559,798,cs,{
name = hr00;
})
);
},
{
closed = 1;
nodes = (
(766,870,o),
(695,930,o),
(607,930,cs),
(521,930,o),
(450,870,o),
(450,798,cs),
(450,725,o),
(521,668,o),
(607,668,cs),
(695,668,o),
(766,725,o),
(766,798,cs)
);
},
{
closed = 1;
nodes = (
(522,762,o),
(534,730,o),
(553,708,c),
(550,705,l),
(510,723,o),
(482,760,o),
(482,798,cs),
(482,836,o),
(510,873,o),
(550,891,c),
(553,888,l),
(534,866,o),
(522,833,o),
(522,798,c)
);
}
);
};
layerId = master01;
shapes = (
{
ref = U;
},
{
pos = (462,0);
ref = ringcomb.case;
}
);
width = 1217;
}
);
unicode = 366;
},
{
glyphname = Utilde;
kernLeft = U;
kernRight = U;
lastChange = "2023-02-16 09:50:52 +0000";
layers = (
{
background = {
shapes = (
{
closed = 1;
nodes = (
(757,607,l),
(818,607,o),
(947,584,o),
(947,411,cs),
(947,174,ls),
(947,97,o),
(904,31,o),
(692,31,cs),
(608,31,o),
(577,73,o),
(577,167,cs),
(577,499,ls),
(577,579,o),
(625,607,o),
(685,607,cs),
(701,607,l),
(701,650,l),
(40,650,l),
(40,607,l),
(78,607,ls),
(138,607,o),
(186,579,o),
(186,499,cs),
(186,177,ls),
(186,96,o),
(220,-22,o),
(652,-22,cs),
(1000,-22,o),
(1012,96,o),
(1012,220,cs),
(1012,411,ls),
(1012,584,o),
(1113,607,o),
(1212,607,c),
(1212,650,l),
(757,650,l,{
name = hr00;
})
);
},
{
closed = 1;
nodes = (
(319,607,l),
(319,88,l),
(315,88,o),
(254,88,o),
(254,210,cs),
(254,334,o),
(254,607,o),
(254,607,c)
);
},
{
closed = 1;
nodes = (
(823,757,o),
(769,739,o),
(723,739,cs),
(583,739,o),
(490,789,o),
(406,789,cs),
(392,789,o),
(378,787,o),
(364,784,c),
(361,788,l),
(379,804,o),
(404,818,o),
(441,818,cs),
(551,818,o),
(595,774,o),
(751,774,cs,{
name = hr01;
}),
(780,774,o),
(826,780,o),
(854,789,c,{
name = hr02;
}),
(856,785,l)
);
},
{
closed = 1;
nodes = (
(881,856,o),
(860,843,o),
(816,843,cs,{
name = hr03;
}),
(710,843,o),
(665,879,o),
(515,879,cs,{
name = hr04;
}),
(367,879,o),
(293,767,o),
(289,717,c),
(317,717,l),
(326,739,o),
(350,754,o),
(379,754,cs,{
name = hr05;
}),
(509,754,o),
(559,705,o),
(716,705,cs,{
name = hr06;
}),
(855,705,o),
(922,825,o),
(927,878,c),
(894,878,l)
);
}
);
};
layerId = master01;
shapes = (
{
ref = U;
},
{
pos = (280,0);
ref = tildecomb.case;
}
);
width = 1217;
}
);
unicode = 360;
},
{
glyphname = V;
kernLeft = V;
kernRight = V;
lastChange = "2023-02-16 10:29:22 +0000";
layers = (
{
anchors = (
{
name = bottom;
pos = (630,0);
},
{
name = top;
pos = (630,650);
}
);
background = {
shapes = (
{
closed = 1;
nodes = (
(1222,607,l),
(654,-23,l),
(618,-23,l),
(53,607,l),
(-14,607,l),
(-14,650,l),
(690,650,l),
(690,607,l),
(662,607,ls),
(621,607,o),
(599,573,o),
(599,533,cs),
(599,505,o),
(611,473,o),
(634,450,cs),
(821,260,l),
(951,402,ls),
(972,424,o),
(981,449,o),
(981,474,cs),
(981,541,o),
(910,607,o),
(805,607,cs),
(779,607,o),
(755,607,o),
(755,607,c),
(755,650,l),
(1273,650,l),
(1273,607,l,{
name = hr00;
})
);
},
{
closed = 1;
nodes = (
(651,38,l),
(691,83,l),
(221,607,l),
(141,607,l)
);
}
);
};
layerId = master01;
shapes = (
{
closed = 1;
nodes = (
(654,-23,l),
(1222,607,l),
(1273,607,l,{
name = hr00;
}),
(1273,650,l),
(755,650,l),
(755,607,l),
(755,607,o),
(779,607,o),
(805,607,cs),
(910,607,o),
(981,541,o),
(981,474,cs),
(981,449,o),
(972,424,o),
(951,402,cs),
(821,260,l),
(634,450,ls),
(611,473,o),
(599,505,o),
(599,533,cs),
(599,573,o),
(621,607,o),
(662,607,cs),
(690,607,l),
(690,650,l),
(-14,650,l),
(-14,607,l),
(53,607,l),
(618,-23,l)
);
},
{
closed = 1;
nodes = (
(141,607,l),
(221,607,l),
(691,83,l),
(651,38,l)
);
}
);
width = 1259;
}
);
unicode = 86;
},
{
glyphname = W;
kernLeft = V;
kernRight = V;
lastChange = "2023-02-16 10:29:22 +0000";
layers = (
{
anchors = (
{
name = bottom;
pos = (1014,0);
},
{
name = top;
pos = (1114,650);
}
);
background = {
shapes = (
{
closed = 1;
nodes = (
(1459,650,l),
(755,650,l),
(755,607,l),
(822,607,l),
(978,433,l),
(821,260,l),
(634,450,ls),
(611,473,o),
(599,505,o),
(599,533,cs),
(599,573,o),
(621,607,o),
(662,607,cs),
(690,607,l),
(690,650,l),
(-14,650,l),
(-14,607,l),
(53,607,l),
(618,-23,l),
(654,-23,l),
(1021,383,l),
(1387,-23,l),
(1423,-23,l),
(1992,607,l),
(2041,607,l),
(2041,650,l),
(1524,650,l),
(1524,607,l),
(1524,607,o),
(1549,607,o),
(1573,607,cs),
(1679,607,o),
(1750,542,o),
(1750,474,cs),
(1750,449,o),
(1741,424,o),
(1720,402,cs),
(1589,260,l),
(1404,450,ls),
(1381,473,o),
(1369,505,o),
(1369,533,cs),
(1369,573,o),
(1391,607,o),
(1432,607,cs),
(1459,607,l,{
name = hr00;
})
);
},
{
closed = 1;
nodes = (
(691,83,l),
(651,38,l),
(141,607,l),
(221,607,l)
);
},
{
closed = 1;
nodes = (
(1460,83,l),
(1420,38,l),
(910,607,l),
(990,607,l)
);
}
);
};
layerId = master01;
shapes = (
{
closed = 1;
nodes = (
(654,-23,l),
(1021,383,l),
(1387,-23,l),
(1423,-23,l),
(1992,607,l),
(2041,607,l),
(2041,650,l),
(1524,650,l),
(1524,607,l),
(1524,607,o),
(1549,607,o),
(1573,607,cs),
(1679,607,o),
(1750,542,o),
(1750,474,cs),
(1750,449,o),
(1741,424,o),
(1720,402,cs),
(1589,260,l),
(1404,450,ls),
(1381,473,o),
(1369,505,o),
(1369,533,cs),
(1369,573,o),
(1391,607,o),
(1432,607,cs),
(1459,607,l,{
name = hr00;
}),
(1459,650,l),
(755,650,l),
(755,607,l),
(822,607,l),
(978,433,l),
(821,260,l),
(634,450,ls),
(611,473,o),
(599,505,o),
(599,533,cs),
(599,573,o),
(621,607,o),
(662,607,cs),
(690,607,l),
(690,650,l),
(-14,650,l),
(-14,607,l),
(53,607,l),
(618,-23,l)
);
},
{
closed = 1;
nodes = (
(141,607,l),
(221,607,l),
(691,83,l),
(651,38,l)
);
},
{
closed = 1;
nodes = (
(910,607,l),
(990,607,l),
(1460,83,l),
(1420,38,l)
);
}
);
width = 2028;
}
);
unicode = 87;
},
{
glyphname = Wacute;
kernLeft = V;
kernRight = V;
lastChange = "2023-02-16 09:51:13 +0000";
layers = (
{
background = {
shapes = (
{
closed = 1;
nodes = (
(1459,650,l),
(755,650,l),
(755,607,l),
(822,607,l),
(978,433,l),
(821,260,l),
(634,450,ls),
(611,473,o),
(599,505,o),
(599,533,cs),
(599,573,o),
(621,607,o),
(662,607,cs),
(690,607,l),
(690,650,l),
(-14,650,l),
(-14,607,l),
(53,607,l),
(618,-23,l),
(654,-23,l),
(1021,383,l),
(1387,-23,l),
(1423,-23,l),
(1992,607,l),
(2041,607,l),
(2041,650,l),
(1524,650,l),
(1524,607,l),
(1524,607,o),
(1549,607,o),
(1573,607,cs),
(1679,607,o),
(1750,542,o),
(1750,474,cs),
(1750,449,o),
(1741,424,o),
(1720,402,cs),
(1589,260,l),
(1404,450,ls),
(1381,473,o),
(1369,505,o),
(1369,533,cs),
(1369,573,o),
(1391,607,o),
(1432,607,cs),
(1459,607,l,{
name = hr00;
})
);
},
{
closed = 1;
nodes = (
(691,83,l),
(651,38,l),
(141,607,l),
(221,607,l)
);
},
{
closed = 1;
nodes = (
(1460,83,l),
(1420,38,l),
(910,607,l),
(990,607,l)
);
},
{
closed = 1;
nodes = (
(1365,763,o),
(1389,862,o),
(1389,862,c),
(1098,862,l),
(1048,792,o),
(995,752,o),
(839,752,c),
(839,716,l),
(893,716,ls),
(980,716,o),
(1163,716,o),
(1241,734,c,{
name = hr00;
})
);
},
{
closed = 1;
nodes = (
(1067,769,o),
(1120,797,o),
(1138,834,c),
(1202,834,l),
(1185,809,o),
(1141,760,o),
(1037,755,c),
(1037,759,l)
);
}
);
};
layerId = master01;
shapes = (
{
ref = W;
},
{
pos = (789,0);
ref = acutecomb.case;
}
);
width = 2028;
}
);
unicode = 7810;
},
{
glyphname = Wcircumflex;
kernLeft = V;
kernRight = V;
lastChange = "2023-02-16 09:51:13 +0000";
layers = (
{
background = {
shapes = (
{
closed = 1;
nodes = (
(1459,650,l),
(755,650,l),
(755,607,l),
(822,607,l),
(978,433,l),
(821,260,l),
(634,450,ls),
(611,473,o),
(599,505,o),
(599,533,cs),
(599,573,o),
(621,607,o),
(662,607,cs),
(690,607,l),
(690,650,l),
(-14,650,l),
(-14,607,l),
(53,607,l),
(618,-23,l),
(654,-23,l),
(1021,383,l),
(1387,-23,l),
(1423,-23,l),
(1992,607,l),
(2041,607,l),
(2041,650,l),
(1524,650,l),
(1524,607,l),
(1524,607,o),
(1549,607,o),
(1573,607,cs),
(1679,607,o),
(1750,542,o),
(1750,474,cs),
(1750,449,o),
(1741,424,o),
(1720,402,cs),
(1589,260,l),
(1404,450,ls),
(1381,473,o),
(1369,505,o),
(1369,533,cs),
(1369,573,o),
(1391,607,o),
(1432,607,cs),
(1459,607,l,{
name = hr00;
})
);
},
{
closed = 1;
nodes = (
(691,83,l),
(651,38,l),
(141,607,l),
(221,607,l)
);
},
{
closed = 1;
nodes = (
(1460,83,l),
(1420,38,l),
(910,607,l),
(990,607,l)
);
},
{
closed = 1;
nodes = (
(818,716,l),
(1115,716,l),
(1219,828,l),
(1322,716,l),
(1409,716,l),
(1276,862,l),
(952,862,l,{
name = hr00;
})
);
},
{
closed = 1;
nodes = (
(991,754,l),
(929,754,l),
(1004,837,l),
(1066,837,l)
);
}
);
};
layerId = master01;
shapes = (
{
ref = W;
},
{
pos = (768,0);
ref = circumflexcomb.case;
}
);
width = 2028;
}
);
unicode = 372;
},
{
glyphname = Wdieresis;
kernLeft = V;
kernRight = V;
lastChange = "2023-02-16 09:51:13 +0000";
layers = (
{
background = {
shapes = (
{
closed = 1;
nodes = (
(1459,650,l),
(755,650,l),
(755,607,l),
(822,607,l),
(978,433,l),
(821,260,l),
(634,450,ls),
(611,473,o),
(599,505,o),
(599,533,cs),
(599,573,o),
(621,607,o),
(662,607,cs),
(690,607,l),
(690,650,l),
(-14,650,l),
(-14,607,l),
(53,607,l),
(618,-23,l),
(654,-23,l),
(1021,383,l),
(1387,-23,l),
(1423,-23,l),
(1992,607,l),
(2041,607,l),
(2041,650,l),
(1524,650,l),
(1524,607,l),
(1524,607,o),
(1549,607,o),
(1573,607,cs),
(1679,607,o),
(1750,542,o),
(1750,474,cs),
(1750,449,o),
(1741,424,o),
(1720,402,cs),
(1589,260,l),
(1404,450,ls),
(1381,473,o),
(1369,505,o),
(1369,533,cs),
(1369,573,o),
(1391,607,o),
(1432,607,cs),
(1459,607,l,{
name = hr00;
})
);
},
{
closed = 1;
nodes = (
(691,83,l),
(651,38,l),
(141,607,l),
(221,607,l)
);
},
{
closed = 1;
nodes = (
(1460,83,l),
(1420,38,l),
(910,607,l),
(990,607,l)
);
},
{
closed = 1;
nodes = (
(1479,861,o),
(1418,913,o),
(1341,913,cs),
(1266,913,o),
(1205,861,o),
(1205,798,cs),
(1205,735,o),
(1266,685,o),
(1341,685,cs),
(1418,685,o),
(1479,735,o),
(1479,798,c,{
name = hr00;
})
);
},
{
closed = 1;
nodes = (
(1023,861,o),
(962,913,o),
(885,913,cs),
(810,913,o),
(749,861,o),
(749,798,cs),
(749,735,o),
(810,685,o),
(885,685,cs),
(962,685,o),
(1023,735,o),
(1023,798,c)
);
},
{
closed = 1;
nodes = (
(827,762,o),
(839,732,o),
(858,711,c),
(855,708,l),
(815,725,o),
(786,760,o),
(786,798,cs),
(786,836,o),
(815,871,o),
(855,888,c),
(858,885,l),
(839,864,o),
(827,834,o),
(827,798,c)
);
},
{
closed = 1;
nodes = (
(1283,762,o),
(1295,732,o),
(1314,711,c),
(1311,708,l),
(1271,725,o),
(1242,760,o),
(1242,798,cs),
(1242,836,o),
(1271,871,o),
(1311,888,c),
(1314,885,l),
(1295,864,o),
(1283,834,o),
(1283,798,cs)
);
}
);
};
layerId = master01;
shapes = (
{
ref = W;
},
{
pos = (672,0);
ref = dieresiscomb.case;
}
);
width = 2028;
}
);
unicode = 7812;
},
{
glyphname = Wgrave;
kernLeft = V;
kernRight = V;
lastChange = "2023-02-16 09:51:13 +0000";
layers = (
{
background = {
shapes = (
{
closed = 1;
nodes = (
(1459,650,l),
(755,650,l),
(755,607,l),
(822,607,l),
(978,433,l),
(821,260,l),
(634,450,ls),
(611,473,o),
(599,505,o),
(599,533,cs),
(599,573,o),
(621,607,o),
(662,607,cs),
(690,607,l),
(690,650,l),
(-14,650,l),
(-14,607,l),
(53,607,l),
(618,-23,l),
(654,-23,l),
(1021,383,l),
(1387,-23,l),
(1423,-23,l),
(1992,607,l),
(2041,607,l),
(2041,650,l),
(1524,650,l),
(1524,607,l),
(1524,607,o),
(1549,607,o),
(1573,607,cs),
(1679,607,o),
(1750,542,o),
(1750,474,cs),
(1750,449,o),
(1741,424,o),
(1720,402,cs),
(1589,260,l),
(1404,450,ls),
(1381,473,o),
(1369,505,o),
(1369,533,cs),
(1369,573,o),
(1391,607,o),
(1432,607,cs),
(1459,607,l,{
name = hr00;
})
);
},
{
closed = 1;
nodes = (
(691,83,l),
(651,38,l),
(141,607,l),
(221,607,l)
);
},
{
closed = 1;
nodes = (
(1460,83,l),
(1420,38,l),
(910,607,l),
(990,607,l)
);
},
{
closed = 1;
nodes = (
(965,716,o),
(1148,716,o),
(1235,716,cs),
(1289,716,l),
(1289,752,l),
(1133,752,o),
(1080,792,o),
(1030,862,c),
(739,862,l),
(739,862,o),
(763,763,o),
(887,734,cs,{
name = hr00;
})
);
},
{
closed = 1;
nodes = (
(873,760,o),
(829,809,o),
(812,834,c),
(876,834,l),
(894,797,o),
(947,769,o),
(977,759,c),
(977,755,l)
);
}
);
};
layerId = master01;
shapes = (
{
ref = W;
},
{
pos = (789,0);
ref = gravecomb.case;
}
);
width = 2028;
}
);
unicode = 7808;
},
{
glyphname = X;
lastChange = "2023-02-16 10:29:22 +0000";
layers = (
{
anchors = (
{
name = bottom;
pos = (687,0);
},
{
name = top;
pos = (687,650);
}
);
background = {
shapes = (
{
closed = 1;
nodes = (
(1221,43,o),
(1145,71,o),
(1067,151,cs),
(849,376,l),
(1079,525,ls),
(1115,548,o),
(1210,607,o),
(1294,607,cs),
(1327,607,l),
(1327,649,l),
(841,649,l),
(841,607,l),
(860,607,ls),
(893,607,o),
(920,583,o),
(920,546,cs),
(920,518,o),
(898,483,o),
(833,439,cs),
(805,420,l),
(730,497,ls),
(701,526,o),
(687,552,o),
(687,572,cs),
(687,592,o),
(702,607,o),
(733,607,cs),
(751,607,l),
(751,650,l),
(64,650,l),
(64,607,l),
(125,607,l),
(185,607,o),
(282,556,o),
(340,497,cs),
(535,296,l),
(263,121,ls),
(227,98,o),
(131,43,o),
(47,43,cs),
(22,43,o),
(13,43,o),
(13,43,c),
(13,0,l),
(576,0,l),
(576,43,l),
(481,43,ls),
(448,43,o),
(421,65,o),
(421,102,cs),
(421,130,o),
(442,166,o),
(508,209,cs),
(577,254,l),
(677,151,ls),
(712,114,o),
(727,89,o),
(727,72,cs),
(727,52,o),
(706,43,o),
(674,43,cs),
(634,43,l),
(634,0,l),
(1360,0,l),
(1360,43,l),
(1282,43,ls,{
name = hr00;
})
);
},
{
closed = 1;
nodes = (
(313,607,l),
(390,607,l),
(942,43,l),
(865,43,l)
);
}
);
};
layerId = master01;
shapes = (
{
closed = 1;
nodes = (
(576,0,l),
(576,43,l),
(481,43,ls),
(448,43,o),
(421,65,o),
(421,102,cs),
(421,130,o),
(442,166,o),
(508,209,cs),
(577,254,l),
(677,151,ls),
(712,114,o),
(727,89,o),
(727,72,cs),
(727,52,o),
(706,43,o),
(674,43,cs),
(634,43,l),
(634,0,l),
(1360,0,l),
(1360,43,l),
(1282,43,ls,{
name = hr00;
}),
(1221,43,o),
(1145,71,o),
(1067,151,cs),
(849,376,l),
(1079,525,ls),
(1115,548,o),
(1210,607,o),
(1294,607,cs),
(1327,607,l),
(1327,649,l),
(841,649,l),
(841,607,l),
(860,607,ls),
(893,607,o),
(920,583,o),
(920,546,cs),
(920,518,o),
(898,483,o),
(833,439,cs),
(805,420,l),
(730,497,ls),
(701,526,o),
(687,552,o),
(687,572,cs),
(687,592,o),
(702,607,o),
(733,607,cs),
(751,607,l),
(751,650,l),
(64,650,l),
(64,607,l),
(125,607,l),
(185,607,o),
(282,556,o),
(340,497,cs),
(535,296,l),
(263,121,ls),
(227,98,o),
(131,43,o),
(47,43,cs),
(22,43,o),
(13,43,o),
(13,43,c),
(13,0,l)
);
},
{
closed = 1;
nodes = (
(313,607,l),
(390,607,l),
(942,43,l),
(865,43,l)
);
}
);
width = 1373;
}
);
unicode = 88;
},
{
glyphname = Y;
kernLeft = V;
kernRight = V;
lastChange = "2023-02-16 10:29:22 +0000";
layers = (
{
anchors = (
{
name = bottom;
pos = (655,0);
},
{
name = top;
pos = (655,650);
},
{
name = topleft;
pos = (20,650);
}
);
background = {
shapes = (
{
closed = 1;
nodes = (
(800,607,l),
(850,607,ls),
(914,607,o),
(949,575,o),
(949,534,cs),
(949,499,o),
(925,457,o),
(877,418,cs),
(818,370,l),
(689,498,ls),
(668,518,o),
(659,542,o),
(659,561,cs),
(659,587,o),
(677,607,o),
(707,607,cs),
(735,607,l),
(735,650,l),
(-14,650,l),
(-14,607,l),
(87,607,l),
(427,270,l),
(427,151,ls),
(427,72,o),
(379,43,o),
(319,43,cs),
(197,43,l),
(197,0,l),
(1048,0,l),
(1048,43,l),
(927,43,ls),
(867,43,o),
(818,72,o),
(818,151,cs),
(818,291,l),
(1257,607,l),
(1323,607,l),
(1323,650,l),
(800,650,l,{
name = hr00;
})
);
},
{
closed = 1;
nodes = (
(560,43,l),
(495,43,l),
(495,292,l),
(176,607,l),
(255,607,l),
(560,306,l)
);
}
);
};
layerId = master01;
shapes = (
{
closed = 1;
nodes = (
(1048,0,l),
(1048,43,l),
(927,43,ls),
(867,43,o),
(818,72,o),
(818,151,cs),
(818,291,l),
(1257,607,l),
(1323,607,l),
(1323,650,l),
(800,650,l,{
name = hr00;
}),
(800,607,l),
(850,607,ls),
(914,607,o),
(949,575,o),
(949,534,cs),
(949,499,o),
(925,457,o),
(877,418,cs),
(818,370,l),
(689,498,ls),
(668,518,o),
(659,542,o),
(659,561,cs),
(659,587,o),
(677,607,o),
(707,607,cs),
(735,607,l),
(735,650,l),
(-14,650,l),
(-14,607,l),
(87,607,l),
(427,270,l),
(427,151,ls),
(427,72,o),
(379,43,o),
(319,43,cs),
(197,43,l),
(197,0,l)
);
},
{
closed = 1;
nodes = (
(495,292,l),
(176,607,l),
(255,607,l),
(560,306,l),
(560,43,l),
(495,43,l)
);
}
);
width = 1309;
}
);
unicode = 89;
},
{
glyphname = Yacute;
kernLeft = V;
kernRight = V;
lastChange = "2023-02-16 09:44:17 +0000";
layers = (
{
background = {
shapes = (
{
closed = 1;
nodes = (
(800,607,l),
(850,607,ls),
(914,607,o),
(949,575,o),
(949,534,cs),
(949,499,o),
(925,457,o),
(877,418,cs),
(818,370,l),
(689,498,ls),
(668,518,o),
(659,542,o),
(659,561,cs),
(659,587,o),
(677,607,o),
(707,607,cs),
(735,607,l),
(735,650,l),
(-14,650,l),
(-14,607,l),
(87,607,l),
(427,270,l),
(427,151,ls),
(427,72,o),
(379,43,o),
(319,43,cs),
(197,43,l),
(197,0,l),
(1048,0,l),
(1048,43,l),
(927,43,ls),
(867,43,o),
(818,72,o),
(818,151,cs),
(818,291,l),
(1257,607,l),
(1323,607,l),
(1323,650,l),
(800,650,l,{
name = hr00;
})
);
},
{
closed = 1;
nodes = (
(560,43,l),
(495,43,l),
(495,292,l),
(176,607,l),
(255,607,l),
(560,306,l)
);
},
{
closed = 1;
nodes = (
(952,763,o),
(976,862,o),
(976,862,c),
(685,862,l),
(635,792,o),
(582,752,o),
(426,752,c),
(426,716,l,{
name = hr01;
}),
(480,716,ls),
(567,716,o),
(750,716,o),
(828,734,c)
);
},
{
closed = 1;
nodes = (
(654,769,o),
(707,797,o),
(725,834,c),
(789,834,l),
(772,809,o),
(728,760,o),
(624,755,c),
(624,759,l)
);
}
);
};
layerId = master01;
shapes = (
{
ref = Y;
},
{
pos = (330,0);
ref = acutecomb.case;
}
);
width = 1309;
}
);
unicode = 221;
},
{
glyphname = Ycircumflex;
kernLeft = V;
kernRight = V;
lastChange = "2023-02-16 09:44:17 +0000";
layers = (
{
background = {
shapes = (
{
closed = 1;
nodes = (
(800,607,l),
(850,607,ls),
(914,607,o),
(949,575,o),
(949,534,cs),
(949,499,o),
(925,457,o),
(877,418,cs),
(818,370,l),
(689,498,ls),
(668,518,o),
(659,542,o),
(659,561,cs),
(659,587,o),
(677,607,o),
(707,607,cs),
(735,607,l),
(735,650,l),
(-14,650,l),
(-14,607,l),
(87,607,l),
(427,270,l),
(427,151,ls),
(427,72,o),
(379,43,o),
(319,43,cs),
(197,43,l),
(197,0,l),
(1048,0,l),
(1048,43,l),
(927,43,ls),
(867,43,o),
(818,72,o),
(818,151,cs),
(818,291,l),
(1257,607,l),
(1323,607,l),
(1323,650,l),
(800,650,l,{
name = hr00;
})
);
},
{
closed = 1;
nodes = (
(560,43,l),
(495,43,l),
(495,292,l),
(176,607,l),
(255,607,l),
(560,306,l)
);
},
{
closed = 1;
nodes = (
(339,716,l),
(636,716,l),
(740,828,l),
(843,716,l),
(930,716,l),
(797,862,l),
(473,862,l,{
name = hr00;
})
);
},
{
closed = 1;
nodes = (
(512,754,l),
(450,754,l),
(525,837,l),
(587,837,l)
);
}
);
};
layerId = master01;
shapes = (
{
ref = Y;
},
{
pos = (309,0);
ref = circumflexcomb.case;
}
);
width = 1309;
}
);
unicode = 374;
},
{
glyphname = Ydieresis;
kernLeft = V;
kernRight = V;
lastChange = "2023-02-16 09:44:17 +0000";
layers = (
{
background = {
shapes = (
{
closed = 1;
nodes = (
(800,607,l),
(850,607,ls),
(914,607,o),
(949,575,o),
(949,534,cs),
(949,499,o),
(925,457,o),
(877,418,cs),
(818,370,l),
(689,498,ls),
(668,518,o),
(659,542,o),
(659,561,cs),
(659,587,o),
(677,607,o),
(707,607,cs),
(735,607,l),
(735,650,l),
(-14,650,l),
(-14,607,l),
(87,607,l),
(427,270,l),
(427,151,ls),
(427,72,o),
(379,43,o),
(319,43,cs),
(197,43,l),
(197,0,l),
(1048,0,l),
(1048,43,l),
(927,43,ls),
(867,43,o),
(818,72,o),
(818,151,cs),
(818,291,l),
(1257,607,l),
(1323,607,l),
(1323,650,l),
(800,650,l,{
name = hr00;
})
);
},
{
closed = 1;
nodes = (
(560,43,l),
(495,43,l),
(495,292,l),
(176,607,l),
(255,607,l),
(560,306,l)
);
},
{
closed = 1;
nodes = (
(1019,861,o),
(958,913,o),
(881,913,cs),
(806,913,o),
(745,861,o),
(745,798,cs),
(745,735,o),
(806,685,o),
(881,685,cs),
(958,685,o),
(1019,735,o),
(1019,798,c,{
name = hr00;
})
);
},
{
closed = 1;
nodes = (
(563,861,o),
(502,913,o),
(425,913,cs),
(350,913,o),
(289,861,o),
(289,798,cs),
(289,735,o),
(350,685,o),
(425,685,cs),
(502,685,o),
(563,735,o),
(563,798,c)
);
},
{
closed = 1;
nodes = (
(367,762,o),
(379,732,o),
(398,711,c),
(395,708,l),
(355,725,o),
(326,760,o),
(326,798,cs),
(326,836,o),
(355,871,o),
(395,888,c),
(398,885,l),
(379,864,o),
(367,834,o),
(367,798,c)
);
},
{
closed = 1;
nodes = (
(823,762,o),
(835,732,o),
(854,711,c),
(851,708,l),
(811,725,o),
(782,760,o),
(782,798,cs),
(782,836,o),
(811,871,o),
(851,888,c),
(854,885,l),
(835,864,o),
(823,834,o),
(823,798,cs)
);
}
);
};
layerId = master01;
shapes = (
{
ref = Y;
},
{
pos = (213,0);
ref = dieresiscomb.case;
}
);
width = 1309;
}
);
unicode = 376;
},
{
glyphname = Ygrave;
kernLeft = V;
kernRight = V;
lastChange = "2023-02-16 09:44:17 +0000";
layers = (
{
background = {
shapes = (
{
closed = 1;
nodes = (
(800,607,l),
(850,607,ls),
(914,607,o),
(949,575,o),
(949,534,cs),
(949,499,o),
(925,457,o),
(877,418,cs),
(818,370,l),
(689,498,ls),
(668,518,o),
(659,542,o),
(659,561,cs),
(659,587,o),
(677,607,o),
(707,607,cs),
(735,607,l),
(735,650,l),
(-14,650,l),
(-14,607,l),
(87,607,l),
(427,270,l),
(427,151,ls),
(427,72,o),
(379,43,o),
(319,43,cs),
(197,43,l),
(197,0,l),
(1048,0,l),
(1048,43,l),
(927,43,ls),
(867,43,o),
(818,72,o),
(818,151,cs),
(818,291,l),
(1257,607,l),
(1323,607,l),
(1323,650,l),
(800,650,l,{
name = hr00;
})
);
},
{
closed = 1;
nodes = (
(560,43,l),
(495,43,l),
(495,292,l),
(176,607,l),
(255,607,l),
(560,306,l)
);
},
{
closed = 1;
nodes = (
(565,716,o),
(748,716,o),
(835,716,cs),
(889,716,l),
(889,752,l),
(733,752,o),
(680,792,o),
(630,862,c),
(339,862,l),
(339,862,o),
(363,763,o),
(487,734,cs,{
name = hr00;
})
);
},
{
closed = 1;
nodes = (
(473,760,o),
(429,809,o),
(412,834,c),
(476,834,l),
(494,797,o),
(547,769,o),
(577,759,c),
(577,755,l)
);
}
);
};
layerId = master01;
shapes = (
{
ref = Y;
},
{
pos = (330,0);
ref = gravecomb.case;
}
);
width = 1309;
}
);
unicode = 7922;
},
{
glyphname = Z;
lastChange = "2023-02-16 10:29:22 +0000";
layers = (
{
anchors = (
{
name = bottom;
pos = (587,0);
},
{
name = center;
pos = (587,325);
},
{
name = top;
pos = (667,650);
}
);
background = {
shapes = (
{
closed = 1;
nodes = (
(548,43,l),
(666,43,ls),
(913,43,o),
(1015,154,o),
(1075,226,c),
(1104,226,l),
(1104,0,l),
(54,0,l),
(54,43,l),
(77,43,l),
(626,607,l),
(569,607,ls),
(327,607,o),
(206,489,o),
(141,424,c),
(112,424,l),
(112,650,l),
(1119,650,l),
(1119,607,l),
(1098,607,l,{
name = hr00;
})
);
},
{
closed = 1;
nodes = (
(165,43,l),
(250,43,l),
(795,607,l),
(714,607,l)
);
}
);
};
layerId = master01;
shapes = (
{
closed = 1;
nodes = (
(1104,0,l),
(1104,226,l),
(1075,226,l),
(1015,154,o),
(913,43,o),
(666,43,cs),
(548,43,l),
(1098,607,l,{
name = hr00;
}),
(1119,607,l),
(1119,650,l),
(112,650,l),
(112,424,l),
(141,424,l),
(206,489,o),
(327,607,o),
(569,607,cs),
(626,607,l),
(77,43,l),
(54,43,l),
(54,0,l)
);
},
{
closed = 1;
nodes = (
(714,607,l),
(795,607,l),
(250,43,l),
(165,43,l)
);
}
);
width = 1173;
}
);
unicode = 90;
},
{
glyphname = Zacute;
lastChange = "2023-02-16 09:51:22 +0000";
layers = (
{
background = {
shapes = (
{
closed = 1;
nodes = (
(548,43,l),
(666,43,ls),
(913,43,o),
(1015,154,o),
(1075,226,c),
(1104,226,l),
(1104,0,l),
(54,0,l),
(54,43,l),
(77,43,l),
(626,607,l),
(569,607,ls),
(327,607,o),
(206,489,o),
(141,424,c),
(112,424,l),
(112,650,l),
(1119,650,l),
(1119,607,l),
(1098,607,l,{
name = hr00;
})
);
},
{
closed = 1;
nodes = (
(165,43,l),
(250,43,l),
(795,607,l),
(714,607,l)
);
},
{
closed = 1;
nodes = (
(917,763,o),
(941,862,o),
(941,862,c),
(650,862,l),
(600,792,o),
(547,752,o),
(391,752,c),
(391,716,l),
(445,716,ls),
(532,716,o),
(715,716,o),
(793,734,c,{
name = hr00;
})
);
},
{
closed = 1;
nodes = (
(619,769,o),
(672,797,o),
(690,834,c),
(754,834,l),
(737,809,o),
(693,760,o),
(589,755,c),
(589,759,l)
);
}
);
};
layerId = master01;
shapes = (
{
ref = Z;
},
{
pos = (342,0);
ref = acutecomb.case;
}
);
width = 1173;
}
);
unicode = 377;
},
{
glyphname = Zcaron;
lastChange = "2023-02-16 09:51:22 +0000";
layers = (
{
background = {
shapes = (
{
closed = 1;
nodes = (
(548,43,l),
(666,43,ls),
(913,43,o),
(1015,154,o),
(1075,226,c),
(1104,226,l),
(1104,0,l),
(54,0,l),
(54,43,l),
(77,43,l),
(626,607,l),
(569,607,ls),
(327,607,o),
(206,489,o),
(141,424,c),
(112,424,l),
(112,650,l),
(1119,650,l),
(1119,607,l),
(1098,607,l,{
name = hr00;
})
);
},
{
closed = 1;
nodes = (
(165,43,l),
(250,43,l),
(795,607,l),
(714,607,l)
);
},
{
closed = 1;
nodes = (
(937,862,l),
(850,862,l),
(747,750,l),
(643,862,l),
(346,862,l),
(480,716,l),
(804,716,l)
);
},
{
closed = 1;
nodes = (
(457,824,l,{
name = hr01;
}),
(519,824,l),
(594,741,l),
(532,741,l)
);
}
);
};
layerId = master01;
shapes = (
{
ref = Z;
},
{
pos = (321,0);
ref = caroncomb.case;
}
);
width = 1173;
}
);
unicode = 381;
},
{
glyphname = Zdotaccent;
lastChange = "2023-02-16 09:51:22 +0000";
layers = (
{
background = {
shapes = (
{
closed = 1;
nodes = (
(548,43,l),
(666,43,ls),
(913,43,o),
(1015,154,o),
(1075,226,c),
(1104,226,l),
(1104,0,l),
(54,0,l),
(54,43,l),
(77,43,l),
(626,607,l),
(569,607,ls),
(327,607,o),
(206,489,o),
(141,424,c),
(112,424,l),
(112,650,l),
(1119,650,l),
(1119,607,l),
(1098,607,l,{
name = hr00;
})
);
},
{
closed = 1;
nodes = (
(165,43,l),
(250,43,l),
(795,607,l),
(714,607,l)
);
},
{
closed = 1;
nodes = (
(803,861,o),
(742,913,o),
(665,913,cs),
(590,913,o),
(529,861,o),
(529,798,cs),
(529,735,o),
(590,685,o),
(665,685,cs),
(742,685,o),
(803,735,o),
(803,798,c,{
name = hr00;
})
);
},
{
closed = 1;
nodes = (
(591,767,o),
(602,739,o),
(618,720,c),
(616,717,l),
(581,733,o),
(556,765,o),
(556,798,cs),
(556,831,o),
(581,863,o),
(616,879,c),
(618,876,l),
(602,857,o),
(591,829,o),
(591,798,c)
);
}
);
};
layerId = master01;
shapes = (
{
ref = Z;
},
{
pos = (480,0);
ref = dotaccentcomb.case;
}
);
width = 1173;
}
);
unicode = 379;
},
{
glyphname = L.alt;
kernRight = L;
lastChange = "2023-02-16 10:29:22 +0000";
layers = (
{
anchors = (
{
name = bottom;
pos = (625,0);
},
{
name = center;
pos = (625,325);
},
{
name = top;
pos = (625,650);
},
{
name = topright;
pos = (1229,650);
}
);
background = {
shapes = (
{
closed = 1;
nodes = (
(692,556,o),
(741,607,o),
(801,607,c),
(801,650,l),
(73,650,l),
(73,607,l),
(193,607,ls),
(253,607,o),
(301,556,o),
(301,497,cs),
(301,151,ls),
(301,71,o),
(253,43,o),
(193,43,cs),
(73,43,l),
(73,0,l),
(1236,0,l),
(1236,288,l),
(1202,288,l),
(1059,85,o),
(900,43,o),
(801,43,cs),
(715,43,o),
(692,92,o),
(692,151,cs),
(692,497,ls,{
name = hr00;
})
);
},
{
closed = 1;
nodes = (
(369,43,l),
(369,607,l),
(434,607,l),
(434,43,l)
);
}
);
};
layerId = master01;
shapes = (
{
closed = 1;
nodes = (
(1236,0,l),
(1236,288,l),
(1202,288,l),
(1059,85,o),
(900,43,o),
(801,43,cs),
(715,43,o),
(692,92,o),
(692,151,cs),
(692,497,ls,{
name = hr00;
}),
(692,556,o),
(741,607,o),
(801,607,c),
(801,650,l),
(73,650,l),
(73,607,l),
(193,607,ls),
(253,607,o),
(301,556,o),
(301,497,cs),
(301,151,ls),
(301,71,o),
(253,43,o),
(193,43,cs),
(73,43,l),
(73,0,l)
);
},
{
closed = 1;
nodes = (
(369,607,l),
(434,607,l),
(434,43,l),
(369,43,l)
);
}
);
width = 1249;
}
);
},
{
glyphname = a;
lastChange = "2023-02-16 10:29:22 +0000";
layers = (
{
anchors = (
{
name = bottom;
pos = (594,0);
},
{
name = ogonek;
pos = (1201,22);
},
{
name = top;
pos = (493,558);
}
);
background = {
shapes = (
{
closed = 1;
nodes = (
(197,558,l),
(197,515,l),
(267,515,ls),
(334,515,o),
(348,498,o),
(370,471,cs),
(398,436,l),
(144,111,ls),
(144,111,o),
(94,43,o),
(-14,43,c),
(-14,0,l),
(362,0,l),
(362,43,l),
(280,43,l),
(245,43,o),
(219,63,o),
(219,98,cs),
(219,117,o),
(226,139,o),
(242,166,c),
(616,166,l),
(647,127,ls),
(663,107,o),
(670,90,o),
(670,76,cs),
(670,54,o),
(649,43,o),
(623,43,c),
(557,43,l),
(557,0,l),
(1201,0,l),
(1201,43,l),
(1102,43,l),
(688,558,l,{
name = hr00;
})
);
},
{
closed = 1;
nodes = (
(484,515,l),
(864,43,l),
(804,43,l),
(423,515,l)
);
},
{
closed = 1;
nodes = (
(583,207,l),
(274,207,l),
(426,403,l)
);
}
);
};
layerId = master01;
shapes = (
{
closed = 1;
nodes = (
(362,0,l),
(362,43,l),
(280,43,l),
(245,43,o),
(219,63,o),
(219,98,cs),
(219,117,o),
(226,139,o),
(242,166,c),
(616,166,l),
(647,127,ls),
(663,107,o),
(670,90,o),
(670,76,cs),
(670,54,o),
(649,43,o),
(623,43,c),
(557,43,l),
(557,0,l),
(1201,0,l),
(1201,43,l),
(1102,43,l),
(688,558,l,{
name = hr00;
}),
(197,558,l),
(197,515,l),
(267,515,ls),
(334,515,o),
(348,498,o),
(370,471,cs),
(398,436,l),
(144,111,ls),
(144,111,o),
(94,43,o),
(-14,43,c),
(-14,0,l)
);
},
{
closed = 1;
nodes = (
(426,403,l),
(583,207,l),
(274,207,l)
);
},
{
closed = 1;
nodes = (
(423,515,l),
(484,515,l),
(864,43,l),
(804,43,l)
);
}
);
width = 1188;
}
);
unicode = 97;
},
{
glyphname = aacute;
lastChange = "2023-02-16 09:51:31 +0000";
layers = (
{
background = {
shapes = (
{
closed = 1;
nodes = (
(197,558,l),
(197,515,l),
(267,515,ls),
(334,515,o),
(348,498,o),
(370,471,cs),
(398,436,l),
(144,111,ls),
(144,111,o),
(94,43,o),
(-14,43,c),
(-14,0,l),
(362,0,l),
(362,43,l),
(280,43,l),
(245,43,o),
(219,63,o),
(219,98,cs),
(219,117,o),
(226,139,o),
(242,166,c),
(616,166,l),
(647,127,ls),
(663,107,o),
(670,90,o),
(670,76,cs),
(670,54,o),
(649,43,o),
(623,43,c),
(557,43,l),
(557,0,l),
(1201,0,l),
(1201,43,l),
(1102,43,l),
(688,558,l,{
name = hr00;
})
);
},
{
closed = 1;
nodes = (
(484,515,l),
(864,43,l),
(804,43,l),
(423,515,l)
);
},
{
closed = 1;
nodes = (
(583,207,l),
(274,207,l),
(426,403,l)
);
},
{
closed = 1;
nodes = (
(760,671,o),
(784,770,o),
(784,770,c),
(493,770,l),
(443,700,o),
(390,660,o),
(234,660,c),
(234,624,l,{
name = hr01;
}),
(288,624,ls),
(375,624,o),
(558,624,o),
(636,642,c)
);
},
{
closed = 1;
nodes = (
(462,677,o),
(515,705,o),
(533,742,c),
(597,742,l),
(580,717,o),
(536,668,o),
(432,663,c),
(432,667,l)
);
}
);
};
layerId = master01;
shapes = (
{
ref = a;
},
{
pos = (168,0);
ref = acutecomb;
}
);
width = 1188;
}
);
unicode = 225;
},
